<svg width="91" height="91" viewBox="0 0 91 91" fill="none" xmlns="http://www.w3.org/2000/svg">
<rect x="0.587891" y="0.75" width="90" height="90" rx="45" fill="#F399DD"/>
<g clip-path="url(#clip0_2684_13949)">
<path fill-rule="evenodd" clip-rule="evenodd" d="M51.6018 30.4059C52.2193 29.1702 53.1686 28.1309 54.3433 27.4042C55.5181 26.6775 56.8719 26.2923 58.2533 26.2916H60.7664C60.9937 26.2916 61.2118 26.3819 61.3725 26.5426C61.5333 26.7034 61.6236 26.9214 61.6236 27.1487V34.7601L70.9081 37.8527C71.0781 37.9101 71.2258 38.0194 71.3303 38.1652C71.4349 38.311 71.4911 38.4859 71.491 38.6653V41.9567C71.4892 43.9275 70.7055 45.8171 69.3119 47.2107C67.9183 48.6043 66.0287 49.388 64.0578 49.3899H58.3321V49.3967C54.8213 48.6527 52.2156 46.6744 50.3298 44.343C49.0456 42.7375 48.0227 40.9394 47.299 39.015L51.6018 30.4059ZM42.9138 39.4539H37.4213C34.6275 39.4503 31.9175 38.499 29.7344 36.7556L25.1161 33.0596C24.9899 32.9587 24.8377 32.8957 24.6771 32.8776C24.5165 32.8595 24.3541 32.8872 24.2086 32.9575C24.0631 33.0277 23.9404 33.1376 23.8547 33.2746C23.769 33.4116 23.7237 33.57 23.7241 33.7316V61.6916C23.6974 62.4688 23.8274 63.2435 24.1063 63.9694C24.3853 64.6953 24.8076 65.3577 25.3479 65.917C25.8883 66.4763 26.5357 66.921 27.2517 67.2248C27.9676 67.5286 28.7373 67.6852 29.515 67.6852C30.2927 67.6852 31.0624 67.5286 31.7783 67.2248C32.4942 66.921 33.1417 66.4763 33.682 65.917C34.2224 65.3577 34.6447 64.6953 34.9236 63.9694C35.2026 63.2435 35.3326 62.4688 35.3058 61.6916V60.0459C35.3068 59.4008 35.5636 58.7825 36.02 58.3268C36.4765 57.871 37.0951 57.615 37.7401 57.615H44.3196C44.6392 57.615 44.9558 57.678 45.2511 57.8003C45.5465 57.9226 45.8148 58.1019 46.0409 58.328C46.2669 58.554 46.4462 58.8224 46.5685 59.1177C46.6909 59.4131 46.7538 59.7296 46.7538 60.0493V61.695C46.7271 62.4722 46.8571 63.2469 47.1361 63.9728C47.415 64.6988 47.8373 65.3611 48.3777 65.9204C48.918 66.4797 49.5655 66.9245 50.2814 67.2282C50.9973 67.532 51.767 67.6886 52.5447 67.6886C53.3224 67.6886 54.0921 67.532 54.808 67.2282C55.5239 66.9245 56.1714 66.4797 56.7118 65.9204C57.2521 65.3611 57.6744 64.6988 57.9534 63.9728C58.2323 63.2469 58.3623 62.4722 58.3356 61.695V53.751C53.227 52.9316 49.5241 50.151 46.9973 47.0379C45.1844 44.7797 43.8014 42.208 42.9173 39.4504" fill="black"/>
</g>
<defs>
<clipPath id="clip0_2684_13949">
<rect width="48" height="48" fill="white" transform="translate(23.5879 19.75)"/>
</clipPath>
</defs>
</svg>
