<svg xmlns="http://www.w3.org/2000/svg" width="181" height="53" viewBox="0 0 181 53" fill="none">
  <path d="M179.307 46.517C179.307 49.2882 177.015 51.5329 174.181 51.5329H6.43907C3.60614 51.5329 1.30664 49.2882 1.30664 46.517V6.51749C1.30664 3.74765 3.60614 1.49512 6.43907 1.49512H174.18C177.015 1.49512 179.305 3.74765 179.305 6.51749L179.307 46.517Z" fill="black"/>
  <path d="M173.64 1.5553C176.727 1.5553 179.238 4.00417 179.238 7.01368V46.0137C179.238 49.0232 176.727 51.472 173.64 51.472H6.97331C3.88664 51.472 1.37497 49.0232 1.37497 46.0137V7.01368C1.37497 4.00417 3.88664 1.5553 6.97331 1.5553H173.64ZM173.64 0.513675H6.97331C3.30831 0.513675 0.306641 3.4403 0.306641 7.01368V46.0137C0.306641 49.587 3.30831 52.5137 6.97331 52.5137H173.64C177.305 52.5137 180.307 49.587 180.307 46.0137V7.01368C180.307 3.4403 177.305 0.513675 173.64 0.513675Z" fill="#A6A6A6"/>
  <path d="M40.4771 26.2328C40.4384 22.0429 43.9958 20.0045 44.1584 19.9096C42.1438 17.0457 39.0211 16.6544 37.9238 16.6232C35.3011 16.3541 32.7571 18.1533 31.4211 18.1533C30.0584 18.1533 28.0011 16.6492 25.7838 16.6934C22.9304 16.7363 20.2611 18.347 18.7971 20.8482C15.7758 25.9481 18.0291 33.4426 20.9238 37.5649C22.3718 39.5838 24.0638 41.838 26.2784 41.7587C28.4451 41.6716 29.2544 40.4119 31.8691 40.4119C34.4598 40.4119 35.2198 41.7587 37.4784 41.708C39.8038 41.6716 41.2678 39.68 42.6651 37.6429C44.3384 35.3289 45.0104 33.05 45.0371 32.933C44.9824 32.9148 40.5211 31.2547 40.4771 26.2328Z" fill="white"/>
  <path d="M36.2104 13.9114C37.3758 12.4905 38.1731 10.5574 37.9518 8.5957C36.2651 8.6685 34.1558 9.7332 32.9411 11.1229C31.8664 12.3475 30.9064 14.3547 31.1544 16.2423C33.0491 16.3801 34.9944 15.3102 36.2104 13.9114Z" fill="white"/>
  <path d="M65.7064 13.525C65.7064 15.0551 65.2357 16.2069 64.2957 16.9804C63.425 17.6941 62.1877 18.0516 60.585 18.0516C59.7904 18.0516 59.1103 18.0178 58.541 17.9502V9.58989C59.2837 9.47289 60.0837 9.41309 60.9477 9.41309C62.4744 9.41309 63.625 9.73679 64.401 10.3842C65.2704 11.1161 65.7064 12.1626 65.7064 13.525ZM64.233 13.5627C64.233 12.5708 63.9637 11.8103 63.425 11.2799C62.8864 10.7508 62.0997 10.4856 61.0637 10.4856C60.6237 10.4856 60.249 10.5142 59.9384 10.574V16.9297C60.1104 16.9557 60.425 16.9674 60.8824 16.9674C61.9517 16.9674 62.777 16.6775 63.3584 16.0977C63.9397 15.5179 64.233 14.6729 64.233 13.5627Z" fill="white"/>
  <path d="M73.5183 14.8618C73.5183 15.8043 73.2423 16.5765 72.6903 17.1823C72.1116 17.805 71.345 18.1157 70.3876 18.1157C69.465 18.1157 68.7303 17.818 68.1823 17.22C67.6356 16.6233 67.3623 15.8706 67.3623 14.9632C67.3623 14.0142 67.6436 13.2355 68.209 12.631C68.7743 12.0265 69.5343 11.7236 70.4916 11.7236C71.4143 11.7236 72.1556 12.0213 72.717 12.618C73.2503 13.1978 73.5183 13.9466 73.5183 14.8618ZM72.069 14.906C72.069 14.3405 71.9436 13.8556 71.6943 13.4513C71.401 12.9625 70.9836 12.7181 70.441 12.7181C69.8796 12.7181 69.453 12.9625 69.1596 13.4513C68.909 13.8556 68.785 14.3483 68.785 14.9307C68.785 15.4962 68.9103 15.9811 69.1596 16.3854C69.4623 16.8742 69.8836 17.1186 70.4276 17.1186C70.961 17.1186 71.3796 16.8703 71.681 16.3724C71.9396 15.9603 72.069 15.4715 72.069 14.906Z" fill="white"/>
  <path d="M83.9934 11.8477L82.0267 17.9759H80.7467L79.932 15.3148C79.7254 14.6505 79.5574 13.9901 79.4267 13.3349H79.4014C79.28 14.0083 79.112 14.6674 78.896 15.3148L78.0307 17.9759H76.736L74.8867 11.8477H76.3227L77.0334 14.761C77.2054 15.45 77.3467 16.1065 77.4601 16.7279H77.4854C77.5894 16.2157 77.7614 15.5631 78.004 14.774L78.896 11.849H80.0347L80.8894 14.7116C81.096 15.4097 81.264 16.0818 81.3934 16.7292H81.432C81.5267 16.0987 81.6694 15.4266 81.8587 14.7116L82.6214 11.849H83.9934V11.8477Z" fill="white"/>
  <path d="M91.2369 17.9766H89.8395V14.4666C89.8395 13.385 89.4182 12.8442 88.5729 12.8442C88.1582 12.8442 87.8235 12.9924 87.5635 13.2901C87.3062 13.5878 87.1755 13.9388 87.1755 14.3405V17.9753H85.7782V13.5995C85.7782 13.0613 85.7609 12.4776 85.7275 11.8458H86.9555L87.0209 12.8039H87.0595C87.2222 12.5062 87.4649 12.2605 87.7835 12.0642C88.1622 11.8354 88.5862 11.7197 89.0502 11.7197C89.6369 11.7197 90.1249 11.9043 90.5129 12.2748C90.9955 12.7285 91.2369 13.4058 91.2369 14.3054V17.9766Z" fill="white"/>
  <path d="M95.0903 17.9762H93.6943V9.03613H95.0903V17.9762Z" fill="white"/>
  <path d="M103.317 14.8618C103.317 15.8043 103.041 16.5765 102.489 17.1823C101.91 17.805 101.142 18.1157 100.186 18.1157C99.2625 18.1157 98.5278 17.818 97.9811 17.22C97.4345 16.6233 97.1611 15.8706 97.1611 14.9632C97.1611 14.0142 97.4425 13.2355 98.0078 12.631C98.5731 12.0265 99.3331 11.7236 100.289 11.7236C101.213 11.7236 101.953 12.0213 102.516 12.618C103.049 13.1978 103.317 13.9466 103.317 14.8618ZM101.866 14.906C101.866 14.3405 101.741 13.8556 101.492 13.4513C101.2 12.9625 100.781 12.7181 100.24 12.7181C99.6771 12.7181 99.2505 12.9625 98.9585 13.4513C98.7078 13.8556 98.5838 14.3483 98.5838 14.9307C98.5838 15.4962 98.7091 15.9811 98.9585 16.3854C99.2611 16.8742 99.6825 17.1186 100.226 17.1186C100.76 17.1186 101.177 16.8703 101.478 16.3724C101.738 15.9603 101.866 15.4715 101.866 14.906Z" fill="white"/>
  <path d="M110.08 17.9766H108.825L108.721 17.2707H108.683C108.253 17.8336 107.641 18.1157 106.847 18.1157C106.253 18.1157 105.773 17.9298 105.412 17.5606C105.084 17.2252 104.92 16.8079 104.92 16.3126C104.92 15.5638 105.24 14.9931 105.884 14.5979C106.527 14.2027 107.431 14.009 108.595 14.0181V13.9037C108.595 13.0964 108.16 12.6934 107.289 12.6934C106.669 12.6934 106.123 12.8455 105.651 13.1471L105.367 12.2527C105.951 11.9004 106.672 11.7236 107.523 11.7236C109.165 11.7236 109.989 12.5686 109.989 14.2586V16.5154C109.989 17.1277 110.02 17.6152 110.08 17.9766ZM108.629 15.8706V14.9255C107.088 14.8995 106.317 15.3116 106.317 16.1605C106.317 16.4803 106.405 16.7195 106.585 16.8794C106.765 17.0393 106.995 17.1186 107.268 17.1186C107.575 17.1186 107.861 17.0237 108.123 16.8352C108.385 16.6454 108.547 16.4049 108.607 16.1098C108.621 16.0435 108.629 15.9629 108.629 15.8706Z" fill="white"/>
  <path d="M118.02 17.9762H116.78L116.714 16.9921H116.676C116.28 17.7409 115.605 18.1153 114.657 18.1153C113.9 18.1153 113.269 17.8254 112.769 17.2456C112.269 16.6658 112.02 15.9131 112.02 14.9888C112.02 13.9969 112.29 13.1935 112.834 12.5799C113.361 12.0079 114.006 11.7219 114.774 11.7219C115.618 11.7219 116.209 11.9988 116.545 12.5539H116.572V9.03613H117.97V16.3252C117.97 16.9219 117.986 17.4718 118.02 17.9762ZM116.572 15.3918V14.37C116.572 14.1932 116.558 14.0502 116.533 13.941C116.454 13.6134 116.285 13.3378 116.028 13.1155C115.768 12.8932 115.454 12.7814 115.093 12.7814C114.572 12.7814 114.164 12.9829 113.864 13.3872C113.566 13.7915 113.416 14.3076 113.416 14.9381C113.416 15.5439 113.558 16.0353 113.845 16.4136C114.148 16.8166 114.556 17.0181 115.066 17.0181C115.525 17.0181 115.892 16.8504 116.17 16.5137C116.44 16.203 116.572 15.8286 116.572 15.3918Z" fill="white"/>
  <path d="M129.97 14.8618C129.97 15.8043 129.694 16.5765 129.142 17.1823C128.564 17.805 127.798 18.1157 126.84 18.1157C125.918 18.1157 125.184 17.818 124.634 17.22C124.088 16.6233 123.814 15.8706 123.814 14.9632C123.814 14.0142 124.096 13.2355 124.661 12.631C125.226 12.0265 125.986 11.7236 126.945 11.7236C127.866 11.7236 128.609 12.0213 129.169 12.618C129.702 13.1978 129.97 13.9466 129.97 14.8618ZM128.522 14.906C128.522 14.3405 128.397 13.8556 128.148 13.4513C127.853 12.9625 127.437 12.7181 126.893 12.7181C126.333 12.7181 125.906 12.9625 125.612 13.4513C125.361 13.8556 125.237 14.3483 125.237 14.9307C125.237 15.4962 125.362 15.9811 125.612 16.3854C125.914 16.8742 126.336 17.1186 126.88 17.1186C127.413 17.1186 127.833 16.8703 128.134 16.3724C128.392 15.9603 128.522 15.4715 128.522 14.906Z" fill="white"/>
  <path d="M137.484 17.9766H136.088V14.4666C136.088 13.385 135.666 12.8442 134.82 12.8442C134.405 12.8442 134.07 12.9924 133.812 13.2901C133.553 13.5878 133.424 13.9388 133.424 14.3405V17.9753H132.025V13.5995C132.025 13.0613 132.009 12.4776 131.976 11.8458H133.202L133.268 12.8039H133.306C133.47 12.5062 133.713 12.2605 134.03 12.0642C134.41 11.8354 134.833 11.7197 135.298 11.7197C135.884 11.7197 136.372 11.9043 136.76 12.2748C137.244 12.7285 137.484 13.4058 137.484 14.3054V17.9766Z" fill="white"/>
  <path d="M146.888 12.869H145.349V15.846C145.349 16.6026 145.622 16.9809 146.164 16.9809C146.414 16.9809 146.622 16.9601 146.786 16.9172L146.822 17.9507C146.546 18.0521 146.184 18.1028 145.737 18.1028C145.185 18.1028 144.756 17.939 144.445 17.6114C144.133 17.2838 143.978 16.7326 143.978 15.9591V12.869H143.06V11.8485H143.978V10.7253L145.348 10.3223V11.8472H146.886V12.869H146.888Z" fill="white"/>
  <path d="M154.285 17.9762H152.886V14.4922C152.886 13.3937 152.465 12.8438 151.621 12.8438C150.973 12.8438 150.53 13.1623 150.288 13.7993C150.246 13.9332 150.222 14.097 150.222 14.2894V17.9749H148.826V9.03613H150.222V12.7294H150.249C150.689 12.0573 151.32 11.7219 152.137 11.7219C152.716 11.7219 153.194 11.9065 153.574 12.277C154.048 12.7385 154.285 13.4249 154.285 14.3323V17.9762Z" fill="white"/>
  <path d="M161.916 14.6226C161.916 14.867 161.897 15.0724 161.864 15.2401H157.673C157.692 15.8459 157.892 16.3074 158.28 16.6272C158.635 16.9132 159.092 17.0562 159.652 17.0562C160.272 17.0562 160.837 16.96 161.347 16.7663L161.565 17.7127C160.969 17.9649 160.268 18.091 159.456 18.091C158.483 18.091 157.716 17.8115 157.161 17.2525C156.604 16.6935 156.328 15.9434 156.328 15.0022C156.328 14.0779 156.585 13.3083 157.104 12.6947C157.645 12.0395 158.377 11.7119 159.301 11.7119C160.205 11.7119 160.892 12.0395 161.356 12.6947C161.731 13.2147 161.916 13.8582 161.916 14.6226ZM160.583 14.2703C160.593 13.866 160.501 13.5176 160.312 13.2238C160.069 12.8455 159.7 12.6557 159.2 12.6557C158.744 12.6557 158.372 12.8403 158.088 13.2108C157.856 13.5059 157.719 13.8582 157.673 14.2703H160.583Z" fill="white"/>
  <path d="M71.8335 41.4693H68.8055L67.1468 36.3876H61.3815L59.8015 41.4693H56.8535L62.5655 24.1689H66.0935L71.8335 41.4693ZM66.6468 34.2556L65.1468 29.7381C64.9882 29.2766 64.6908 28.1898 64.2522 26.479H64.1988C64.0242 27.2148 63.7428 28.3016 63.3562 29.7381L61.8828 34.2556H66.6468Z" fill="white"/>
  <path d="M86.5225 35.0784C86.5225 37.2 85.9345 38.877 84.7585 40.1081C83.7052 41.204 82.3972 41.7513 80.8358 41.7513C79.1505 41.7513 77.9398 41.1611 77.2025 39.9807H77.1492V46.5522H74.3065V33.1011C74.3065 31.7673 74.2705 30.3984 74.2012 28.9944H76.7012L76.8598 30.9717H76.9132C77.8612 29.4819 79.2998 28.7383 81.2305 28.7383C82.7398 28.7383 83.9998 29.3194 85.0078 30.4829C86.0185 31.6477 86.5225 33.1791 86.5225 35.0784ZM83.6265 35.1798C83.6265 33.9656 83.3465 32.9646 82.7838 32.1768C82.1692 31.3552 81.3438 30.9444 80.3092 30.9444C79.6078 30.9444 78.9705 31.1732 78.4012 31.6243C77.8305 32.0793 77.4572 32.6734 77.2825 33.4092C77.1945 33.7524 77.1505 34.0332 77.1505 34.2542V36.3342C77.1505 37.2416 77.4358 38.0073 78.0065 38.6326C78.5772 39.2579 79.3185 39.5699 80.2305 39.5699C81.3012 39.5699 82.1345 39.1669 82.7305 38.3635C83.3278 37.5588 83.6265 36.498 83.6265 35.1798Z" fill="white"/>
  <path d="M101.239 35.0784C101.239 37.2 100.651 38.877 99.4736 40.1081C98.4216 41.204 97.1136 41.7513 95.5523 41.7513C93.8669 41.7513 92.6563 41.1611 91.9203 39.9807H91.8669V46.5522H89.0243V33.1011C89.0243 31.7673 88.9883 30.3984 88.9189 28.9944H91.4189L91.5776 30.9717H91.6309C92.5776 29.4819 94.0163 28.7383 95.9483 28.7383C97.4563 28.7383 98.7163 29.3194 99.727 30.4829C100.734 31.6477 101.239 33.1791 101.239 35.0784ZM98.3429 35.1798C98.3429 33.9656 98.0616 32.9646 97.4989 32.1768C96.8843 31.3552 96.0616 30.9444 95.0256 30.9444C94.3229 30.9444 93.6869 31.1732 93.1163 31.6243C92.5456 32.0793 92.1736 32.6734 91.9989 33.4092C91.9123 33.7524 91.8669 34.0332 91.8669 34.2542V36.3342C91.8669 37.2416 92.1523 38.0073 92.7203 38.6326C93.2909 39.2566 94.0323 39.5699 94.947 39.5699C96.0176 39.5699 96.851 39.1669 97.447 38.3635C98.0443 37.5588 98.3429 36.498 98.3429 35.1798Z" fill="white"/>
  <path d="M117.693 36.6173C117.693 38.0889 117.169 39.2862 116.117 40.2105C114.961 41.2206 113.351 41.725 111.283 41.725C109.374 41.725 107.843 41.3662 106.685 40.6473L107.343 38.3372C108.591 39.073 109.961 39.4422 111.453 39.4422C112.523 39.4422 113.357 39.2056 113.955 38.735C114.551 38.2644 114.849 37.6326 114.849 36.8448C114.849 36.1428 114.603 35.5513 114.111 35.0716C113.622 34.5919 112.805 34.146 111.663 33.7339C108.557 32.6042 107.005 30.9493 107.005 28.7731C107.005 27.3509 107.549 26.1848 108.638 25.2774C109.723 24.3687 111.171 23.915 112.982 23.915C114.597 23.915 115.938 24.1893 117.009 24.7366L116.298 26.996C115.298 26.4656 114.167 26.2004 112.902 26.2004C111.902 26.2004 111.121 26.4409 110.561 26.9193C110.087 27.347 109.85 27.8683 109.85 28.4858C109.85 29.1696 110.121 29.7351 110.665 30.1797C111.138 30.5905 111.998 31.0351 113.246 31.5148C114.773 32.1141 115.894 32.8148 116.615 33.6182C117.334 34.419 117.693 35.4213 117.693 36.6173Z" fill="white"/>
  <path d="M127.091 31.074H123.957V37.1307C123.957 38.6712 124.509 39.4408 125.616 39.4408C126.124 39.4408 126.545 39.3979 126.879 39.3121L126.957 41.4168C126.397 41.6209 125.66 41.7236 124.747 41.7236C123.624 41.7236 122.747 41.3895 122.113 40.7226C121.483 40.0544 121.165 38.9338 121.165 37.3595V31.0714H119.299V28.9914H121.165V26.7073L123.957 25.8857V28.9914H127.091V31.074Z" fill="white"/>
  <path d="M141.228 35.1288C141.228 37.0463 140.666 38.6206 139.543 39.8517C138.366 41.1192 136.803 41.751 134.855 41.751C132.978 41.751 131.483 41.1439 130.368 39.9297C129.254 38.7155 128.696 37.1828 128.696 35.3355C128.696 33.4024 129.27 31.819 130.42 30.5879C131.568 29.3555 133.118 28.7393 135.066 28.7393C136.943 28.7393 138.454 29.3464 139.594 30.5619C140.684 31.741 141.228 33.2633 141.228 35.1288ZM138.279 35.2185C138.279 34.068 138.027 33.0813 137.516 32.2584C136.92 31.2626 136.068 30.766 134.964 30.766C133.822 30.766 132.954 31.2639 132.358 32.2584C131.847 33.0826 131.595 34.0849 131.595 35.2705C131.595 36.421 131.847 37.4077 132.358 38.2293C132.972 39.2251 133.831 39.7217 134.939 39.7217C136.024 39.7217 136.876 39.2147 137.491 38.2033C138.015 37.3648 138.279 36.3677 138.279 35.2185Z" fill="white"/>
  <path d="M150.468 31.4319C150.187 31.3812 149.887 31.3552 149.572 31.3552C148.572 31.3552 147.799 31.7231 147.255 32.4602C146.782 33.1102 146.544 33.9318 146.544 34.9237V41.4692H143.703L143.73 32.923C143.73 31.4852 143.694 30.1761 143.623 28.9957H146.099L146.203 31.3825H146.282C146.582 30.5622 147.055 29.9018 147.703 29.4065C148.336 28.9606 149.02 28.7383 149.758 28.7383C150.02 28.7383 150.258 28.7565 150.468 28.789V31.4319Z" fill="white"/>
  <path d="M163.181 34.6415C163.181 35.1381 163.148 35.5567 163.077 35.8986H154.549C154.583 37.131 154.995 38.0735 155.787 38.7235C156.505 39.3046 157.435 39.5958 158.576 39.5958C159.839 39.5958 160.991 39.3995 162.027 39.0056L162.472 40.9296C161.261 41.4444 159.832 41.7005 158.183 41.7005C156.199 41.7005 154.641 41.1311 153.508 39.9936C152.377 38.8561 151.811 37.3286 151.811 35.4124C151.811 33.5313 152.337 31.9648 153.392 30.7155C154.496 29.3817 155.988 28.7148 157.865 28.7148C159.709 28.7148 161.105 29.3817 162.053 30.7155C162.804 31.775 163.181 33.0854 163.181 34.6415ZM160.471 33.9226C160.489 33.101 160.304 32.3912 159.919 31.7919C159.427 31.021 158.671 30.6362 157.653 30.6362C156.724 30.6362 155.968 31.0119 155.391 31.7659C154.917 32.3652 154.636 33.0841 154.549 33.9213H160.471V33.9226Z" fill="white"/>
</svg>