<svg xmlns="http://www.w3.org/2000/svg" width="33" height="33" viewBox="0 0 33 33" fill="none">
  <rect x="0.943359" y="0.513672" width="32" height="32" rx="16" fill="white"/>
  <path d="M12.9118 6.91406H20.9758C24.0478 6.91406 26.5438 9.41006 26.5438 12.4821V20.5461C26.5438 22.0228 25.9571 23.439 24.9129 24.4832C23.8687 25.5274 22.4525 26.1141 20.9758 26.1141H12.9118C9.83975 26.1141 7.34375 23.6181 7.34375 20.5461V12.4821C7.34375 11.0053 7.93038 9.58909 8.97458 8.54489C10.0188 7.50069 11.435 6.91406 12.9118 6.91406ZM12.7197 8.83406C11.8032 8.83406 10.9241 9.19818 10.276 9.8463C9.62786 10.4944 9.26375 11.3735 9.26375 12.2901V20.7381C9.26375 22.6485 10.8094 24.1941 12.7197 24.1941H21.1678C22.0843 24.1941 22.9634 23.83 23.6115 23.1818C24.2596 22.5337 24.6238 21.6547 24.6238 20.7381V12.2901C24.6238 10.3797 23.0781 8.83406 21.1678 8.83406H12.7197ZM21.9838 10.2741C22.302 10.2741 22.6072 10.4005 22.8323 10.6255C23.0573 10.8506 23.1838 11.1558 23.1838 11.4741C23.1838 11.7923 23.0573 12.0975 22.8323 12.3226C22.6072 12.5476 22.302 12.6741 21.9838 12.6741C21.6655 12.6741 21.3603 12.5476 21.1352 12.3226C20.9102 12.0975 20.7838 11.7923 20.7838 11.4741C20.7838 11.1558 20.9102 10.8506 21.1352 10.6255C21.3603 10.4005 21.6655 10.2741 21.9838 10.2741ZM16.9438 11.7141C18.2168 11.7141 19.4377 12.2198 20.3379 13.12C21.238 14.0201 21.7438 15.241 21.7438 16.5141C21.7438 17.7871 21.238 19.008 20.3379 19.9082C19.4377 20.8084 18.2168 21.3141 16.9438 21.3141C15.6707 21.3141 14.4498 20.8084 13.5496 19.9082C12.6495 19.008 12.1438 17.7871 12.1438 16.5141C12.1438 15.241 12.6495 14.0201 13.5496 13.12C14.4498 12.2198 15.6707 11.7141 16.9438 11.7141ZM16.9438 13.6341C16.1799 13.6341 15.4474 13.9375 14.9073 14.4776C14.3672 15.0177 14.0638 15.7502 14.0638 16.5141C14.0638 17.2779 14.3672 18.0104 14.9073 18.5505C15.4474 19.0906 16.1799 19.3941 16.9438 19.3941C17.7076 19.3941 18.4401 19.0906 18.9802 18.5505C19.5203 18.0104 19.8238 17.2779 19.8238 16.5141C19.8238 15.7502 19.5203 15.0177 18.9802 14.4776C18.4401 13.9375 17.7076 13.6341 16.9438 13.6341Z" fill="black"/>
</svg>