<svg xmlns="http://www.w3.org/2000/svg" width="33" height="33" viewBox="0 0 33 33" fill="none">
  <rect x="0.835938" y="0.699219" width="32" height="32" rx="16" fill="white"/>
  <path d="M11.589 25.1992H7.64978V12.5139H11.589V25.1992ZM9.61726 10.7835C8.35763 10.7835 7.33594 9.74017 7.33594 8.48054C7.33594 7.8755 7.57629 7.29523 8.00412 6.8674C8.43195 6.43957 9.01222 6.19922 9.61726 6.19922C10.2223 6.19922 10.8026 6.43957 11.2304 6.8674C11.6582 7.29523 11.8986 7.8755 11.8986 8.48054C11.8986 9.74017 10.8765 10.7835 9.61726 10.7835ZM26.3321 25.1992H22.4014V19.0241C22.4014 17.5524 22.3717 15.6651 20.3533 15.6651C18.3053 15.6651 17.9914 17.264 17.9914 18.9181V25.1992H14.0565V12.5139H17.8345V14.2443H17.8897C18.4156 13.2476 19.7002 12.1958 21.6168 12.1958C25.6035 12.1958 26.3364 14.8211 26.3364 18.231V25.1992H26.3321Z" fill="black"/>
</svg>