<svg xmlns="http://www.w3.org/2000/svg" width="181" height="53" viewBox="0 0 181 53" fill="none">
  <path d="M173.64 52.5137H6.97331C3.30831 52.5137 0.306641 49.587 0.306641 46.0137V7.01368C0.306641 3.4403 3.30831 0.513675 6.97331 0.513675H173.64C177.305 0.513675 180.307 3.4403 180.307 7.01368V46.0137C180.307 49.587 177.305 52.5137 173.64 52.5137Z" fill="black"/>
  <path d="M173.64 1.5553C176.727 1.5553 179.238 4.00417 179.238 7.01368V46.0137C179.238 49.0232 176.727 51.472 173.64 51.472H6.97331C3.88664 51.472 1.37497 49.0232 1.37497 46.0137V7.01368C1.37497 4.00417 3.88664 1.5553 6.97331 1.5553H173.64ZM173.64 0.513675H6.97331C3.30831 0.513675 0.306641 3.4403 0.306641 7.01368V46.0137C0.306641 49.587 3.30831 52.5137 6.97331 52.5137H173.64C177.305 52.5137 180.307 49.587 180.307 46.0137V7.01368C180.307 3.4403 177.305 0.513675 173.64 0.513675Z" fill="#A6A6A6"/>
  <path d="M14.2199 10.3141C13.8282 10.7139 13.6016 11.3362 13.6016 12.1422V40.8917C13.6016 41.6977 13.8282 42.3201 14.2199 42.7199L14.3166 42.8076L30.8399 26.7039V26.3236L14.3166 10.2199L14.2199 10.3141Z" fill="url(#paint0_linear_903_323)"/>
  <path d="M36.3415 32.0752L30.8398 26.7046V26.3243L36.3482 20.9537L36.4715 21.0236L42.9948 24.6424C44.8565 25.6694 44.8565 27.3594 42.9948 28.3929L36.4715 32.0053L36.3415 32.0752Z" fill="url(#paint1_linear_903_323)"/>
  <path d="M36.4714 32.0049L30.8397 26.514L14.2197 42.7201C14.8381 43.3539 15.8464 43.4303 16.9931 42.7965L36.4714 32.0049Z" fill="url(#paint2_linear_903_323)"/>
  <path d="M36.4714 21.0228L16.9931 10.2312C15.8464 9.60393 14.8381 9.6803 14.2197 10.314L30.8397 26.5137L36.4714 21.0228Z" fill="url(#paint3_linear_903_323)"/>
  <path d="M63.53 13.8309C63.53 14.9164 63.1967 15.7857 62.54 16.4341C61.785 17.2027 60.8017 17.5895 59.5967 17.5895C58.445 17.5895 57.4617 17.1962 56.655 16.4211C55.8467 15.6346 55.4434 14.6694 55.4434 13.514C55.4434 12.3586 55.8467 11.3934 56.655 10.6134C57.4617 9.83173 58.445 9.43848 59.5967 9.43848C60.17 9.43848 60.7167 9.55385 61.2384 9.76835C61.7584 9.98448 62.1817 10.277 62.4884 10.6377L61.7917 11.3235C61.2567 10.7076 60.5284 10.4037 59.5967 10.4037C58.7567 10.4037 58.0284 10.6897 57.41 11.2666C56.7984 11.8451 56.4917 12.5942 56.4917 13.514C56.4917 14.4337 56.7984 15.1893 57.41 15.7678C58.0284 16.3382 58.7567 16.6307 59.5967 16.6307C60.4884 16.6307 61.2384 16.3382 61.83 15.7613C62.22 15.3795 62.4417 14.853 62.5 14.1802H59.5967V13.241H63.47C63.5167 13.4441 63.53 13.6407 63.53 13.8309Z" fill="white" stroke="white" stroke-width="0.16" stroke-miterlimit="10"/>
  <path d="M69.6752 10.5743H66.0368V13.0443H69.3168V13.9836H66.0368V16.4536H69.6752V17.4107H65.0068V9.61719H69.6752V10.5743Z" fill="white" stroke="white" stroke-width="0.16" stroke-miterlimit="10"/>
  <path d="M74.0117 17.4107H72.9817V10.5743H70.75V9.61719H76.245V10.5743H74.0117V17.4107Z" fill="white" stroke="white" stroke-width="0.16" stroke-miterlimit="10"/>
  <path d="M80.2217 17.4107V9.61719H81.25V17.4107H80.2217Z" fill="white" stroke="white" stroke-width="0.16" stroke-miterlimit="10"/>
  <path d="M85.8085 17.4107H84.7869V10.5743H82.5469V9.61719H88.0485V10.5743H85.8085V17.4107Z" fill="white" stroke="white" stroke-width="0.16" stroke-miterlimit="10"/>
  <path d="M98.4513 16.4081C97.6629 17.1962 96.6862 17.5895 95.5212 17.5895C94.3496 17.5895 93.3729 17.1962 92.5846 16.4081C91.7979 15.6216 91.4062 14.6564 91.4062 13.514C91.4062 12.3716 91.7979 11.4064 92.5846 10.6199C93.3729 9.83173 94.3496 9.43848 95.5212 9.43848C96.6796 9.43848 97.6563 9.83173 98.4446 10.6264C99.2379 11.4194 99.6296 12.3781 99.6296 13.514C99.6296 14.6564 99.2379 15.6216 98.4513 16.4081ZM93.3463 15.7549C93.9396 16.3382 94.6612 16.6307 95.5212 16.6307C96.3746 16.6307 97.1029 16.3382 97.6896 15.7549C98.2813 15.1715 98.5812 14.4224 98.5812 13.514C98.5812 12.6056 98.2813 11.8565 97.6896 11.2731C97.1029 10.6897 96.3746 10.3972 95.5212 10.3972C94.6612 10.3972 93.9396 10.6897 93.3463 11.2731C92.7546 11.8565 92.4546 12.6056 92.4546 13.514C92.4546 14.4224 92.7546 15.1715 93.3463 15.7549Z" fill="white" stroke="white" stroke-width="0.16" stroke-miterlimit="10"/>
  <path d="M101.075 17.4107V9.61719H102.325L106.212 15.6784H106.257L106.212 14.1802V9.61719H107.24V17.4107H106.167L102.097 11.0504H102.052L102.097 12.5552V17.4107H101.075Z" fill="white" stroke="white" stroke-width="0.16" stroke-miterlimit="10"/>
  <path d="M91.153 28.792C88.0214 28.792 85.463 31.1157 85.463 34.3218C85.463 37.502 88.0214 39.8501 91.153 39.8501C94.2914 39.8501 96.8497 37.502 96.8497 34.3218C96.8497 31.1157 94.2914 28.792 91.153 28.792ZM91.153 37.6726C89.4347 37.6726 87.9564 36.2897 87.9564 34.3218C87.9564 32.328 89.4347 30.9695 91.153 30.9695C92.8714 30.9695 94.3564 32.328 94.3564 34.3218C94.3564 36.2897 92.8714 37.6726 91.153 37.6726ZM78.738 28.792C75.5997 28.792 73.048 31.1157 73.048 34.3218C73.048 37.502 75.5997 39.8501 78.738 39.8501C81.8747 39.8501 84.428 37.502 84.428 34.3218C84.428 31.1157 81.8747 28.792 78.738 28.792ZM78.738 37.6726C77.018 37.6726 75.5347 36.2897 75.5347 34.3218C75.5347 32.328 77.018 30.9695 78.738 30.9695C80.4564 30.9695 81.9347 32.328 81.9347 34.3218C81.9347 36.2897 80.4564 37.6726 78.738 37.6726ZM63.9647 30.4868V32.8366H69.7197C69.5514 34.1496 69.1014 35.1148 68.4114 35.7876C67.5714 36.6001 66.263 37.502 63.9647 37.502C60.423 37.502 57.6497 34.7151 57.6497 31.262C57.6497 27.8088 60.423 25.022 63.9647 25.022C65.8797 25.022 67.273 25.7516 68.3014 26.6973L69.9997 25.0415C68.5614 23.7025 66.648 22.6738 63.9647 22.6738C59.108 22.6738 55.0264 26.5267 55.0264 31.262C55.0264 35.9972 59.108 39.8501 63.9647 39.8501C66.5897 39.8501 68.5614 39.0116 70.1114 37.4386C71.6997 35.89 72.1947 33.7125 72.1947 31.9542C72.1947 31.4082 72.148 30.9061 72.0647 30.4868H63.9647ZM124.375 32.3085C123.906 31.0718 122.461 28.792 119.518 28.792C116.601 28.792 114.173 31.0328 114.173 34.3218C114.173 37.4191 116.576 39.8501 119.798 39.8501C122.403 39.8501 123.906 38.3015 124.525 37.3996L122.591 36.1435C121.946 37.0632 121.068 37.6726 119.798 37.6726C118.536 37.6726 117.631 37.1087 117.051 35.9972L124.636 32.9373L124.375 32.3085ZM116.641 34.1496C116.576 32.0176 118.34 30.9256 119.603 30.9256C120.593 30.9256 121.433 31.4082 121.713 32.0988L116.641 34.1496ZM110.476 39.5137H112.97V23.2637H110.476V39.5137ZM106.393 30.0237H106.31C105.75 29.377 104.681 28.792 103.328 28.792C100.488 28.792 97.8914 31.223 97.8914 34.3397C97.8914 37.4386 100.488 39.8501 103.328 39.8501C104.681 39.8501 105.75 39.2602 106.31 38.594H106.393V39.387C106.393 41.5011 105.235 42.637 103.366 42.637C101.843 42.637 100.898 41.5645 100.508 40.6626L98.3397 41.545C98.9647 43.0107 100.62 44.8145 103.366 44.8145C106.29 44.8145 108.756 43.1375 108.756 39.0571V29.1283H106.393V30.0237ZM103.541 37.6726C101.823 37.6726 100.385 36.2702 100.385 34.3397C100.385 32.3913 101.823 30.9695 103.541 30.9695C105.235 30.9695 106.57 32.3913 106.57 34.3397C106.57 36.2702 105.235 37.6726 103.541 37.6726ZM136.048 23.2637H130.085V39.5137H132.571V33.3566H136.048C138.81 33.3566 141.518 31.4082 141.518 28.3093C141.518 25.2121 138.803 23.2637 136.048 23.2637ZM136.113 31.0962H132.571V25.5241H136.113C137.97 25.5241 139.03 27.0272 139.03 28.3093C139.03 29.5671 137.97 31.0962 136.113 31.0962ZM151.485 28.7611C149.688 28.7611 147.82 29.5346 147.051 31.249L149.258 32.1508C149.733 31.249 150.606 30.9565 151.53 30.9565C152.82 30.9565 154.128 31.7121 154.148 33.0462V33.2168C153.698 32.9633 152.735 32.588 151.55 32.588C149.173 32.588 146.751 33.8636 146.751 36.2442C146.751 38.4217 148.698 39.8241 150.886 39.8241C152.56 39.8241 153.483 39.088 154.063 38.2316H154.148V39.4877H156.55V33.2542C156.55 30.3731 154.343 28.7611 151.485 28.7611ZM151.185 37.6661C150.371 37.6661 149.238 37.2728 149.238 36.2897C149.238 35.032 150.651 34.5493 151.875 34.5493C152.97 34.5493 153.483 34.785 154.148 35.0953C153.953 36.6001 152.625 37.6661 151.185 37.6661ZM165.3 29.117L162.441 36.1613H162.356L159.401 29.117H156.72L161.16 38.9612L158.626 44.4391H161.225L168.066 29.117H165.3ZM142.885 39.5137H145.378V23.2637H142.885V39.5137Z" fill="white"/>
  <defs>
    <linearGradient id="paint0_linear_903_323" x1="29.3728" y1="41.1911" x2="7.56269" y2="18.8218" gradientUnits="userSpaceOnUse">
      <stop stop-color="#00A0FF"/>
      <stop offset="0.0066" stop-color="#00A1FF"/>
      <stop offset="0.2601" stop-color="#00BEFF"/>
      <stop offset="0.5122" stop-color="#00D2FF"/>
      <stop offset="0.7604" stop-color="#00DFFF"/>
      <stop offset="1" stop-color="#00E3FF"/>
    </linearGradient>
    <linearGradient id="paint1_linear_903_323" x1="45.419" y1="26.5126" x2="13.1565" y2="26.5126" gradientUnits="userSpaceOnUse">
      <stop stop-color="#FFE000"/>
      <stop offset="0.4087" stop-color="#FFBD00"/>
      <stop offset="0.7754" stop-color="#FFA500"/>
      <stop offset="1" stop-color="#FF9C00"/>
    </linearGradient>
    <linearGradient id="paint2_linear_903_323" x1="33.4091" y1="23.5291" x2="3.83275" y2="-6.80559" gradientUnits="userSpaceOnUse">
      <stop stop-color="#FF3A44"/>
      <stop offset="1" stop-color="#C31162"/>
    </linearGradient>
    <linearGradient id="paint3_linear_903_323" x1="10.0361" y1="52.2846" x2="23.2433" y2="38.7389" gradientUnits="userSpaceOnUse">
      <stop stop-color="#32A071"/>
      <stop offset="0.0685" stop-color="#2DA771"/>
      <stop offset="0.4762" stop-color="#15CF74"/>
      <stop offset="0.8009" stop-color="#06E775"/>
      <stop offset="1" stop-color="#00F076"/>
    </linearGradient>
  </defs>
</svg>