<svg xmlns="http://www.w3.org/2000/svg" width="33" height="33" viewBox="0 0 33 33" fill="none">
  <rect x="0.943359" y="0.513672" width="32" height="32" rx="16" fill="white"/>
  <path d="M25.3897 12.2193C25.3849 12.0862 25.3312 11.9594 25.239 11.8632C25.1467 11.7671 25.0223 11.7082 24.8895 11.6979C24.0033 11.6168 23.1577 11.2884 22.449 10.75C21.923 10.3512 21.483 9.85029 21.1553 9.27726C20.8276 8.70422 20.6191 8.0709 20.5422 7.41528C20.5314 7.28232 20.4723 7.1579 20.3761 7.06555C20.2798 6.9732 20.153 6.91931 20.0197 6.91406H17.8896C17.8201 6.91405 17.7513 6.92789 17.6873 6.95478C17.6232 6.98166 17.5652 7.02105 17.5165 7.07064C17.4679 7.12023 17.4296 7.17902 17.4039 7.24357C17.3783 7.30813 17.3658 7.37716 17.3671 7.44661V20.1691C17.3635 20.553 17.2817 20.9321 17.1266 21.2832C16.9715 21.6344 16.7465 21.9503 16.4652 22.2115C16.1839 22.4727 15.8523 22.6738 15.4906 22.8026C15.129 22.9313 14.7449 22.9849 14.3618 22.9602C13.9243 22.9357 13.4983 22.8105 13.1171 22.5943C12.7359 22.3781 12.4098 22.0767 12.1643 21.7137C11.9188 21.3507 11.7605 20.9359 11.7017 20.5016C11.6429 20.0673 11.6852 19.6253 11.8254 19.2101C12.0387 18.5958 12.4546 18.0723 13.0048 17.7256C13.555 17.3789 14.2067 17.2296 14.8529 17.3023C14.9244 17.3096 14.9965 17.3019 15.0648 17.2795C15.133 17.2572 15.1958 17.2207 15.249 17.1724C15.3022 17.1242 15.3446 17.0653 15.3735 16.9996C15.4024 16.9338 15.4172 16.8627 15.4168 16.7909V14.298C15.4168 14.298 14.5114 14.2343 14.2021 14.2343C13.4098 14.2306 12.6266 14.4038 11.9097 14.7412C11.1928 15.0786 10.5602 15.5717 10.058 16.1846C9.39059 16.9042 8.91456 17.7798 8.67356 18.7311C8.39572 19.8533 8.45243 21.0323 8.83671 22.1227C9.22099 23.213 9.91603 24.167 10.8361 24.8671C11.8887 25.6787 13.1812 26.1174 14.5104 26.114C14.8142 26.114 15.116 26.0928 15.4158 26.0504C16.6815 25.8627 17.8543 25.2761 18.7637 24.3759C19.3193 23.8308 19.7616 23.1811 20.0651 22.4644C20.3686 21.7476 20.5273 20.9778 20.5321 20.1994V13.1894C21.7623 14.139 23.2446 14.7059 24.7945 14.8194C24.8665 14.8237 24.9387 14.8131 25.0064 14.7882C25.0742 14.7632 25.136 14.7245 25.1881 14.6745C25.2401 14.6244 25.2812 14.5642 25.3088 14.4974C25.3363 14.4307 25.3498 14.359 25.3482 14.2869V12.2203L25.3897 12.2193Z" fill="black"/>
</svg>