<svg xmlns="http://www.w3.org/2000/svg" width="33" height="33" viewBox="0 0 33 33" fill="none">
  <rect x="0.835938" y="0.699219" width="32" height="32" rx="16" fill="white"/>
  <path d="M18.0155 15.2941L12.7944 7.97413C12.7338 7.88908 12.6538 7.81976 12.561 7.77193C12.4682 7.72411 12.3653 7.69918 12.2609 7.69922H9.50527C9.38516 7.69937 9.26741 7.73257 9.16491 7.79518C9.06241 7.85779 8.97912 7.9474 8.92414 8.05419C8.86917 8.16098 8.84464 8.28083 8.85324 8.40063C8.86184 8.52043 8.90324 8.63556 8.97291 8.7334L15.6569 18.1043M18.0155 15.2941L24.6995 24.665C24.7691 24.7629 24.8105 24.878 24.8191 24.9978C24.8277 25.1176 24.8032 25.2375 24.7482 25.3443C24.6932 25.451 24.6099 25.5406 24.5074 25.6033C24.4049 25.6659 24.2872 25.6991 24.1671 25.6992H21.4115C21.3071 25.6993 21.2042 25.6743 21.1114 25.6265C21.0186 25.5787 20.9385 25.5094 20.878 25.4243L15.6569 18.1043M18.0155 15.2941L24.3885 7.69922M15.6569 18.1043L9.28381 25.6992" stroke="black" stroke-width="1.63636" stroke-linecap="round" stroke-linejoin="round"/>
</svg>