<svg xmlns="http://www.w3.org/2000/svg" width="151" height="116" viewBox="0 0 151 116" fill="none">
  <g filter="url(#filter0_f_1289_202)">
    <path d="M7.16992 108.36V16.9747C7.16992 12.0065 11.1974 7.979 16.1656 7.979H36.8702C39.3334 7.979 41.6889 8.98906 43.3869 10.7735L55.4366 23.4361C57.1346 25.2205 59.4901 26.2305 61.9533 26.2305H112.391C117.359 26.2305 121.386 30.258 121.386 35.2262V39.7717M7.16992 108.36H115.333C118.993 108.36 122.288 106.143 123.666 102.753V102.753L143.17 54.7847H30.4246L7.16992 108.36ZM7.16992 108.36L24.8315 39.7717H121.386M121.386 39.7717H139.049L135.627 54.7848" stroke="white" stroke-width="2.00763" stroke-linecap="round" stroke-linejoin="round"/>
  </g>
  <path d="M7.16992 108.36V16.9747C7.16992 12.0065 11.1974 7.979 16.1656 7.979H36.8702C39.3334 7.979 41.6889 8.98906 43.3869 10.7735L55.4366 23.4361C57.1346 25.2205 59.4901 26.2305 61.9533 26.2305H112.391C117.359 26.2305 121.386 30.258 121.386 35.2262V39.7717M7.16992 108.36H115.333C118.993 108.36 122.288 106.143 123.666 102.753V102.753L143.17 54.7847H30.4246L7.16992 108.36ZM7.16992 108.36L24.8315 39.7717H121.386M121.386 39.7717H139.049L135.627 54.7848" stroke="white" stroke-width="2.00763" stroke-linecap="round" stroke-linejoin="round"/>
  <defs>
    <filter id="filter0_f_1289_202" x="0.143134" y="0.952216" width="150.054" height="114.435" filterUnits="userSpaceOnUse" color-interpolation-filters="sRGB">
      <feFlood flood-opacity="0" result="BackgroundImageFix"/>
      <feBlend mode="normal" in="SourceGraphic" in2="BackgroundImageFix" result="shape"/>
      <feGaussianBlur stdDeviation="3.01144" result="effect1_foregroundBlur_1289_202"/>
    </filter>
  </defs>
</svg>