<svg xmlns="http://www.w3.org/2000/svg" width="175" height="108" viewBox="0 0 175 108" fill="none">
  <g filter="url(#filter0_f_470_5574)">
    <path d="M155.642 40.7164C154.474 35.8471 149.334 32.5081 142.603 29.4643C142.603 29.4643 143.825 25.0152 139.242 21.5042C134.453 17.8353 129.335 21.5042 129.335 21.5042C129.335 21.5042 128.212 14.9329 120.884 14.1348C113.555 13.3366 111.076 19.1482 111.076 19.1482C111.076 19.1482 110.502 12.048 103.469 10.6519C96.4364 9.25576 93.1537 15.7827 93.1537 15.7827C93.1537 15.7827 91.6996 7.86197 84.7395 7.2843C76.0557 6.56358 74.8107 15.7827 74.8107 15.7827C74.8107 15.7827 70.4582 7.67422 62.2735 10.145C53.3544 12.8375 56.636 22.1774 56.636 22.1774C56.636 22.1774 51.6716 16.1898 43.4257 18.6299C37.3887 20.4164 36.134 28.1895 36.134 28.1895C26.0666 31.8219 20.8714 36.4182 19.6852 41.0313M40.4143 43.1678C40.4143 43.1678 40.4143 36.8848 46.2826 35.9187C51.8119 35.0084 55.0276 39.3706 55.0276 39.3706C55.0276 39.3706 56.636 33.3459 62.852 33.2722C70.3356 33.1835 71.0216 40.061 71.0216 40.061M100.564 45.0175C100.564 45.0175 98.9044 35.8032 106.522 33.2722C117.817 29.5192 119.749 41.9622 119.749 41.9622C119.749 41.9622 123.322 35.11 130.565 36.7843C138.366 38.5875 138.504 45.7593 138.504 45.7593M79.6514 32.871C79.6514 32.871 79.0457 27.2843 83.6287 25.9511C89.9572 24.11 91.8483 30.5697 91.8483 30.5697M155.642 40.4808C155.642 40.4808 156.361 62.2528 87.7375 62.2528C19.6862 62.2528 19.6862 40.7956 19.6862 40.7956L8.34764 76.2696C7.82056 77.9186 7.40644 79.7073 8.13101 81.2796C12.9123 91.655 46.7323 100.09 87.7426 100.09C128.743 100.09 162.556 91.6591 167.351 81.2872C168.079 79.7107 167.663 77.9161 167.133 76.2623L155.715 40.6636" stroke="white" stroke-width="1.98027" stroke-linecap="round"/>
  </g>
  <path d="M155.642 40.7164C154.474 35.8471 149.334 32.5081 142.603 29.4643C142.603 29.4643 143.825 25.0152 139.242 21.5042C134.453 17.8353 129.335 21.5042 129.335 21.5042C129.335 21.5042 128.212 14.9329 120.884 14.1348C113.555 13.3366 111.076 19.1482 111.076 19.1482C111.076 19.1482 110.502 12.048 103.469 10.6519C96.4364 9.25576 93.1537 15.7827 93.1537 15.7827C93.1537 15.7827 91.6996 7.86197 84.7395 7.2843C76.0557 6.56358 74.8107 15.7827 74.8107 15.7827C74.8107 15.7827 70.4582 7.67422 62.2735 10.145C53.3544 12.8375 56.636 22.1774 56.636 22.1774C56.636 22.1774 51.6716 16.1898 43.4257 18.6299C37.3887 20.4164 36.134 28.1895 36.134 28.1895C26.0666 31.8219 20.8714 36.4182 19.6852 41.0313M40.4143 43.1678C40.4143 43.1678 40.4143 36.8848 46.2826 35.9187C51.8119 35.0084 55.0276 39.3706 55.0276 39.3706C55.0276 39.3706 56.636 33.3459 62.852 33.2722C70.3356 33.1835 71.0216 40.061 71.0216 40.061M100.564 45.0175C100.564 45.0175 98.9044 35.8032 106.522 33.2722C117.817 29.5192 119.749 41.9622 119.749 41.9622C119.749 41.9622 123.322 35.11 130.565 36.7843C138.366 38.5875 138.504 45.7593 138.504 45.7593M79.6514 32.871C79.6514 32.871 79.0457 27.2843 83.6287 25.9511C89.9572 24.11 91.8483 30.5697 91.8483 30.5697M155.642 40.4808C155.642 40.4808 156.361 62.2528 87.7375 62.2528C19.6862 62.2528 19.6862 40.7956 19.6862 40.7956L8.34764 76.2696C7.82056 77.9186 7.40644 79.7073 8.13101 81.2796C12.9123 91.655 46.7323 100.09 87.7426 100.09C128.743 100.09 162.556 91.6591 167.351 81.2872C168.079 79.7107 167.663 77.9161 167.133 76.2623L155.715 40.6636" stroke="white" stroke-width="1.98027" stroke-linecap="round"/>
  <defs>
    <filter id="filter0_f_470_5574" x="0.811402" y="0.313111" width="173.861" height="106.707" filterUnits="userSpaceOnUse" color-interpolation-filters="sRGB">
      <feFlood flood-opacity="0" result="BackgroundImageFix"/>
      <feBlend mode="normal" in="SourceGraphic" in2="BackgroundImageFix" result="shape"/>
      <feGaussianBlur stdDeviation="2.9704" result="effect1_foregroundBlur_470_5574"/>
    </filter>
  </defs>
</svg>