<svg xmlns="http://www.w3.org/2000/svg" width="145" height="134" viewBox="0 0 145 134" fill="none">
  <g filter="url(#filter0_f_1289_1133)">
    <path d="M19.4721 65.2177H47.0135L53.9574 47.2651L71.5193 92.9765L91.2539 29.8691L100.145 63.2662H124.868M101.42 7.53223C95.6783 7.53139 90.0214 8.91597 84.9292 11.5684C79.837 14.2209 75.4601 18.0629 72.1699 22.7682C68.8798 18.0629 64.5028 14.2209 59.4106 11.5684C54.3185 8.91597 48.6615 7.53139 42.9199 7.53223C33.4384 7.53223 24.3453 11.2987 17.6409 18.0032C10.9364 24.7076 7.16992 33.8007 7.16992 43.2822C7.16992 80.4557 49.4199 111.129 72.1699 126.807C94.9199 111.129 137.17 80.4557 137.17 43.2822C137.17 38.5875 136.245 33.9387 134.449 29.6013C132.652 25.2639 130.019 21.3229 126.699 18.0032C123.379 14.6835 119.438 12.0501 115.101 10.2535C110.763 8.45693 106.115 7.53223 101.42 7.53223Z" stroke="white" stroke-width="1.98792" stroke-linecap="round" stroke-linejoin="round"/>
  </g>
  <path d="M19.4721 65.2177H47.0135L53.9574 47.2651L71.5193 92.9765L91.2539 29.8691L100.145 63.2662H124.868M101.42 7.53223C95.6783 7.53139 90.0214 8.91597 84.9292 11.5684C79.837 14.2209 75.4601 18.0629 72.1699 22.7682C68.8798 18.0629 64.5028 14.2209 59.4106 11.5684C54.3185 8.91597 48.6615 7.53139 42.9199 7.53223C33.4384 7.53223 24.3453 11.2987 17.6409 18.0032C10.9364 24.7076 7.16992 33.8007 7.16992 43.2822C7.16992 80.4557 49.4199 111.129 72.1699 126.807C94.9199 111.129 137.17 80.4557 137.17 43.2822C137.17 38.5875 136.245 33.9387 134.449 29.6013C132.652 25.2639 130.019 21.3229 126.699 18.0032C123.379 14.6835 119.438 12.0501 115.101 10.2535C110.763 8.45693 106.115 7.53223 101.42 7.53223Z" stroke="white" stroke-width="1.98792" stroke-linecap="round" stroke-linejoin="round"/>
  <defs>
    <filter id="filter0_f_1289_1133" x="0.212031" y="0.574336" width="143.916" height="133.191" filterUnits="userSpaceOnUse" color-interpolation-filters="sRGB">
      <feFlood flood-opacity="0" result="BackgroundImageFix"/>
      <feBlend mode="normal" in="SourceGraphic" in2="BackgroundImageFix" result="shape"/>
      <feGaussianBlur stdDeviation="2.98188" result="effect1_foregroundBlur_1289_1133"/>
    </filter>
  </defs>
</svg>