<svg xmlns="http://www.w3.org/2000/svg" width="133" height="122" viewBox="0 0 133 122" fill="none">
  <path d="M14.0427 58.7147H41.5841L48.5279 40.7622L66.0898 86.4736L85.8244 23.3662L94.7158 56.7632H119.438M95.9905 1.0293C90.2489 1.02846 84.5919 2.41304 79.4997 5.06549C74.4076 7.71794 70.0306 11.5599 66.7405 16.2653C63.4503 11.5599 59.0734 7.71794 53.9812 5.06549C48.889 2.41304 43.232 1.02846 37.4905 1.0293C28.009 1.0293 18.9158 4.79581 12.2114 11.5002C5.50699 18.2047 1.74048 27.2978 1.74048 36.7793C1.74048 73.9528 43.9905 104.626 66.7405 120.304C89.4905 104.626 131.74 73.9528 131.74 36.7793C131.74 32.0845 130.816 27.4358 129.019 23.0984C127.223 18.761 124.589 14.8199 121.27 11.5002C117.95 8.18054 114.009 5.54721 109.671 3.7506C105.334 1.954 100.685 1.0293 95.9905 1.0293Z" stroke="white" stroke-width="1.98792" stroke-linecap="round" stroke-linejoin="round"/>
</svg>