<svg xmlns="http://www.w3.org/2000/svg" width="142" height="144" viewBox="0 0 142 144" fill="none">
  <g filter="url(#filter0_f_1289_1402)">
    <path d="M87.167 82.7936L95.0551 91.1183M81.2021 88.7443L89.0901 97.0689M89.6764 63.0785C84.2757 83.2344 63.5579 95.1958 43.402 89.795C23.246 84.3943 11.2846 63.6765 16.6854 43.5206C22.0862 23.3647 42.8039 11.4032 62.9598 16.804C83.1158 22.2048 95.0772 42.9225 89.6764 63.0785ZM96.6554 64.9325C90.2225 88.9405 65.5452 103.188 41.5371 96.755C17.5291 90.3221 3.28162 65.6448 9.71456 41.6367C16.1475 17.6287 40.8248 3.38123 64.8329 9.81417C88.8409 16.2471 103.088 40.9244 96.6554 64.9325ZM91.3204 106.16L118.797 133.451C122.331 136.96 128.041 136.941 131.55 133.407C135.06 129.874 135.041 124.164 131.507 120.654L104.03 93.3639C100.496 89.8543 94.7865 89.8738 91.2769 93.4074C87.7673 96.9411 87.7867 102.651 91.3204 106.16Z" stroke="white" stroke-width="2"/>
  </g>
  <path d="M87.167 82.7936L95.0551 91.1183M81.2021 88.7443L89.0901 97.0689M89.6764 63.0785C84.2757 83.2344 63.5579 95.1958 43.402 89.795C23.246 84.3943 11.2846 63.6765 16.6854 43.5206C22.0862 23.3647 42.8039 11.4032 62.9598 16.804C83.1158 22.2048 95.0772 42.9225 89.6764 63.0785ZM96.6554 64.9325C90.2225 88.9405 65.5452 103.188 41.5371 96.755C17.5291 90.3221 3.28162 65.6448 9.71456 41.6367C16.1475 17.6287 40.8248 3.38123 64.8329 9.81417C88.8409 16.2471 103.088 40.9244 96.6554 64.9325ZM91.3204 106.16L118.797 133.451C122.331 136.96 128.041 136.941 131.55 133.407C135.06 129.874 135.041 124.164 131.507 120.654L104.03 93.3639C100.496 89.8543 94.7865 89.8738 91.2769 93.4074C87.7673 96.9411 87.7867 102.651 91.3204 106.16Z" stroke="white" stroke-width="2"/>
  <defs>
    <filter id="filter0_f_1289_1402" x="0.877392" y="0.976513" width="140.585" height="142.386" filterUnits="userSpaceOnUse" color-interpolation-filters="sRGB">
      <feFlood flood-opacity="0" result="BackgroundImageFix"/>
      <feBlend mode="normal" in="SourceGraphic" in2="BackgroundImageFix" result="shape"/>
      <feGaussianBlur stdDeviation="3.14626" result="effect1_foregroundBlur_1289_1402"/>
    </filter>
  </defs>
</svg>