<svg xmlns="http://www.w3.org/2000/svg" width="142" height="143" viewBox="0 0 142 143" fill="none">
  <g filter="url(#filter0_f_470_5623)">
    <path d="M86.7382 82.2906L94.6262 90.6153M80.7732 88.2412L88.6613 96.5659M89.2476 62.5754C83.8468 82.7313 63.129 94.6927 42.9731 89.292C22.8172 83.8912 10.8558 63.1734 16.2566 43.0175C21.6573 22.8616 42.3751 10.9002 62.531 16.301C82.6869 21.7017 94.6483 42.4195 89.2476 62.5754ZM96.2266 64.4294C89.7937 88.4375 65.1164 102.685 41.1083 96.252C17.1002 89.8191 2.85279 65.1417 9.28573 41.1337C15.7187 17.1256 40.396 2.87818 64.404 9.31112C88.4121 15.7441 102.66 40.4214 96.2266 64.4294ZM90.8915 105.657L118.369 132.948C121.902 136.457 127.612 136.438 131.122 132.904C134.631 129.37 134.612 123.661 131.078 120.151L103.601 92.8609C100.067 89.3513 94.3577 89.3707 90.8481 92.9044C87.3384 96.438 87.3579 102.148 90.8915 105.657Z" stroke="white" stroke-width="2"/>
  </g>
  <path d="M86.7382 82.2906L94.6262 90.6153M80.7732 88.2412L88.6613 96.5659M89.2476 62.5754C83.8468 82.7313 63.129 94.6927 42.9731 89.292C22.8172 83.8912 10.8558 63.1734 16.2566 43.0175C21.6573 22.8616 42.3751 10.9002 62.531 16.301C82.6869 21.7017 94.6483 42.4195 89.2476 62.5754ZM96.2266 64.4294C89.7937 88.4375 65.1164 102.685 41.1083 96.252C17.1002 89.8191 2.85279 65.1417 9.28573 41.1337C15.7187 17.1256 40.396 2.87818 64.404 9.31112C88.4121 15.7441 102.66 40.4214 96.2266 64.4294ZM90.8915 105.657L118.369 132.948C121.902 136.457 127.612 136.438 131.122 132.904C134.631 129.37 134.612 123.661 131.078 120.151L103.601 92.8609C100.067 89.3513 94.3577 89.3707 90.8481 92.9044C87.3384 96.438 87.3579 102.148 90.8915 105.657Z" stroke="white" stroke-width="2"/>
  <defs>
    <filter id="filter0_f_470_5623" x="0.448315" y="0.473706" width="140.585" height="142.386" filterUnits="userSpaceOnUse" color-interpolation-filters="sRGB">
      <feFlood flood-opacity="0" result="BackgroundImageFix"/>
      <feBlend mode="normal" in="SourceGraphic" in2="BackgroundImageFix" result="shape"/>
      <feGaussianBlur stdDeviation="3.14626" result="effect1_foregroundBlur_470_5623"/>
    </filter>
  </defs>
</svg>