<svg xmlns="http://www.w3.org/2000/svg" width="109" height="111" viewBox="0 0 109 111" fill="none">
  <g filter="url(#filter0_f_1667_1579)">
    <path d="M13.6043 84.087C13.6043 83.7004 13.2909 83.387 12.9043 83.387C12.5177 83.387 12.2043 83.7004 12.2043 84.087H13.6043ZM28.7858 105.113C28.7833 105.5 29.0947 105.815 29.4813 105.817C29.8679 105.82 30.1833 105.508 30.1857 105.122L28.7858 105.113ZM46.7383 83.7055C46.7383 83.3189 46.4249 83.0055 46.0383 83.0055C45.6517 83.0055 45.3383 83.3189 45.3383 83.7055H46.7383ZM63.2909 58.7933C63.2909 58.4067 62.9775 58.0933 62.5909 58.0933C62.2043 58.0933 61.8909 58.4067 61.8909 58.7933H63.2909ZM79.2899 64.9553C79.2846 64.5687 78.9669 64.2597 78.5803 64.265C78.1937 64.2703 77.8847 64.588 77.89 64.9746L79.2899 64.9553ZM96.396 33.8811C96.396 33.4945 96.0826 33.1811 95.696 33.1811C95.3094 33.1811 94.996 33.4945 94.996 33.8811H96.396ZM12.392 67.3993C12.1688 67.715 12.2439 68.1519 12.5596 68.375C12.8753 68.5981 13.3121 68.5231 13.5352 68.2074L12.392 67.3993ZM96.4323 6.12906C96.2988 5.76626 95.8964 5.5804 95.5336 5.71393L89.6214 7.89004C89.2586 8.02357 89.0727 8.42594 89.2062 8.78874C89.3398 9.15155 89.7421 9.33741 90.1049 9.20387L95.3603 7.26955L97.2946 12.5249C97.4281 12.8877 97.8305 13.0735 98.1933 12.94C98.5561 12.8065 98.7419 12.4041 98.6084 12.0413L96.4323 6.12906ZM80.7957 38.8003L81.4312 39.0938L80.7957 38.8003ZM80.2959 39.6499L80.8443 40.0848L80.2959 39.6499ZM72.8682 41.2882L72.4949 41.8804L72.8682 41.2882ZM74.3376 41.9114L74.4593 41.222L74.3376 41.9114ZM65.9431 36.9226L65.5698 37.5147L65.9431 36.9226ZM64.4736 36.2995L64.352 36.9889L64.4736 36.2995ZM58.318 39.1895L58.9569 39.4755L58.318 39.1895ZM59.3558 37.6911L58.9019 37.1582L59.3558 37.6911ZM50.2384 57.2411L49.5995 56.9551L50.2384 57.2411ZM49.2007 58.7399L49.6549 59.2726L49.2007 58.7399ZM40.9722 58.1682L40.3943 58.5632L40.9722 58.1682ZM42.6304 59.688L42.9155 59.0487L42.6304 59.688ZM34.8066 49.1469L35.3845 48.752L34.8066 49.1469ZM33.1481 47.6273L33.4329 46.9879L33.1481 47.6273ZM26.0871 49.2355L26.6587 49.6396L26.0871 49.2355ZM27.0994 48.1771L26.7038 47.5996L27.0994 48.1771ZM12.9043 105.118H13.6043V84.087H12.9043H12.2043V105.118H12.9043ZM29.4857 105.117L30.1857 105.122L30.4077 69.8456L29.7077 69.8412L29.0078 69.8368L28.7858 105.113L29.4857 105.117ZM46.0383 105.117H46.7383V83.7055H46.0383H45.3383V105.117H46.0383ZM62.5909 105.117H63.2909V58.7933H62.5909H61.8909V105.117H62.5909ZM79.1434 105.117L79.8434 105.108L79.2899 64.9553L78.59 64.9649L77.89 64.9746L78.4435 105.127L79.1434 105.117ZM95.696 105.117H96.396V33.8811H95.696H94.996V105.117H95.696ZM12.9636 67.8034L13.5352 68.2074L26.6587 49.6396L26.0871 49.2355L25.5154 48.8315L12.392 67.3993L12.9636 67.8034ZM34.8066 49.1469L34.2286 49.5419L40.3943 58.5632L40.9722 58.1682L41.5501 57.7732L35.3845 48.752L34.8066 49.1469ZM50.2384 57.2411L50.8773 57.5271L58.9569 39.4755L58.318 39.1895L57.6791 38.9036L49.5995 56.9551L50.2384 57.2411ZM65.9431 36.9226L65.5698 37.5147L72.4949 41.8804L72.8682 41.2882L73.2415 40.6961L66.3164 36.3304L65.9431 36.9226ZM80.7957 38.8003L81.4312 39.0938L96.4109 6.66439L95.7754 6.37085L95.1399 6.07731L80.1602 38.5067L80.7957 38.8003ZM74.3376 41.9114L74.2159 42.6007C76.7082 43.0408 79.2602 42.0821 80.8443 40.0848L80.2959 39.6499L79.7474 39.2149C78.484 40.8077 76.4473 41.5731 74.4593 41.222L74.3376 41.9114ZM59.3558 37.6911L59.8097 38.224C61.0614 37.1578 62.7294 36.7027 64.352 36.9889L64.4736 36.2995L64.5952 35.6102C62.561 35.2514 60.471 35.8216 58.9019 37.1582L59.3558 37.6911ZM42.6304 59.688L42.3454 60.3274C44.7702 61.4086 47.6238 61.0047 49.6549 59.2726L49.2007 58.7399L48.7465 58.2073C47.1272 59.5883 44.8491 59.9109 42.9155 59.0487L42.6304 59.688ZM27.0994 48.1771L27.4949 48.7547C29.0822 47.6676 31.1207 47.4905 32.8632 48.2667L33.1481 47.6273L33.4329 46.9879C31.2484 46.0148 28.6945 46.2363 26.7038 47.5996L27.0994 48.1771ZM80.7957 38.8003L80.1602 38.5067C80.0321 38.784 79.9026 39.0192 79.7474 39.2149L80.2959 39.6499L80.8443 40.0848C81.0989 39.7639 81.2828 39.4151 81.4312 39.0938L80.7957 38.8003ZM72.8682 41.2882L72.4949 41.8804C72.9821 42.1875 73.558 42.4846 74.2159 42.6007L74.3376 41.9114L74.4593 41.222C74.0597 41.1515 73.6627 40.9616 73.2415 40.6961L72.8682 41.2882ZM65.9431 36.9226L66.3164 36.3304C65.8292 36.0233 65.2532 35.7262 64.5952 35.6102L64.4736 36.2995L64.352 36.9889C64.7516 37.0594 65.1486 37.2492 65.5698 37.5147L65.9431 36.9226ZM58.318 39.1895L58.9569 39.4755C59.19 38.9547 59.4563 38.525 59.8097 38.224L59.3558 37.6911L58.9019 37.1582C58.319 37.6548 57.9484 38.3017 57.6791 38.9036L58.318 39.1895ZM50.2384 57.2411L49.5995 56.9551C49.3664 57.4759 49.0999 57.9059 48.7465 58.2073L49.2007 58.7399L49.6549 59.2726C50.2374 58.7758 50.6079 58.129 50.8773 57.5271L50.2384 57.2411ZM40.9722 58.1682L40.3943 58.5632C40.8561 59.2389 41.4756 59.9395 42.3454 60.3274L42.6304 59.688L42.9155 59.0487C42.3898 58.8143 41.9505 58.359 41.5501 57.7732L40.9722 58.1682ZM34.8066 49.1469L35.3845 48.752C34.9227 48.0762 34.303 47.3755 33.4329 46.9879L33.1481 47.6273L32.8632 48.2667C33.3889 48.5009 33.8283 48.9562 34.2286 49.5419L34.8066 49.1469ZM26.0871 49.2355L26.6587 49.6396C26.922 49.2671 27.1879 48.9649 27.4949 48.7547L27.0994 48.1771L26.7038 47.5996C26.199 47.9453 25.8201 48.4005 25.5154 48.8315L26.0871 49.2355Z" fill="white"/>
  </g>
  <path d="M13.6043 84.087C13.6043 83.7004 13.2909 83.387 12.9043 83.387C12.5177 83.387 12.2043 83.7004 12.2043 84.087H13.6043ZM28.7858 105.113C28.7833 105.5 29.0947 105.815 29.4813 105.817C29.8679 105.82 30.1833 105.508 30.1857 105.122L28.7858 105.113ZM46.7383 83.7055C46.7383 83.3189 46.4249 83.0055 46.0383 83.0055C45.6517 83.0055 45.3383 83.3189 45.3383 83.7055H46.7383ZM63.2909 58.7933C63.2909 58.4067 62.9775 58.0933 62.5909 58.0933C62.2043 58.0933 61.8909 58.4067 61.8909 58.7933H63.2909ZM79.2899 64.9553C79.2846 64.5687 78.9669 64.2597 78.5803 64.265C78.1937 64.2703 77.8847 64.588 77.89 64.9746L79.2899 64.9553ZM96.396 33.8811C96.396 33.4945 96.0826 33.1811 95.696 33.1811C95.3094 33.1811 94.996 33.4945 94.996 33.8811H96.396ZM12.392 67.3993C12.1688 67.715 12.2439 68.1519 12.5596 68.375C12.8753 68.5981 13.3121 68.5231 13.5352 68.2074L12.392 67.3993ZM96.4323 6.12906C96.2988 5.76626 95.8964 5.5804 95.5336 5.71393L89.6214 7.89004C89.2586 8.02357 89.0727 8.42594 89.2062 8.78874C89.3398 9.15155 89.7421 9.33741 90.1049 9.20387L95.3603 7.26955L97.2946 12.5249C97.4281 12.8877 97.8305 13.0735 98.1933 12.94C98.5561 12.8065 98.7419 12.4041 98.6084 12.0413L96.4323 6.12906ZM80.7957 38.8003L81.4312 39.0938L80.7957 38.8003ZM80.2959 39.6499L80.8443 40.0848L80.2959 39.6499ZM72.8682 41.2882L72.4949 41.8804L72.8682 41.2882ZM74.3376 41.9114L74.4593 41.222L74.3376 41.9114ZM65.9431 36.9226L65.5698 37.5147L65.9431 36.9226ZM64.4736 36.2995L64.352 36.9889L64.4736 36.2995ZM58.318 39.1895L58.9569 39.4755L58.318 39.1895ZM59.3558 37.6911L58.9019 37.1582L59.3558 37.6911ZM50.2384 57.2411L49.5995 56.9551L50.2384 57.2411ZM49.2007 58.7399L49.6549 59.2726L49.2007 58.7399ZM40.9722 58.1682L40.3943 58.5632L40.9722 58.1682ZM42.6304 59.688L42.9155 59.0487L42.6304 59.688ZM34.8066 49.1469L35.3845 48.752L34.8066 49.1469ZM33.1481 47.6273L33.4329 46.9879L33.1481 47.6273ZM26.0871 49.2355L26.6587 49.6396L26.0871 49.2355ZM27.0994 48.1771L26.7038 47.5996L27.0994 48.1771ZM12.9043 105.118H13.6043V84.087H12.9043H12.2043V105.118H12.9043ZM29.4857 105.117L30.1857 105.122L30.4077 69.8456L29.7077 69.8412L29.0078 69.8368L28.7858 105.113L29.4857 105.117ZM46.0383 105.117H46.7383V83.7055H46.0383H45.3383V105.117H46.0383ZM62.5909 105.117H63.2909V58.7933H62.5909H61.8909V105.117H62.5909ZM79.1434 105.117L79.8434 105.108L79.2899 64.9553L78.59 64.9649L77.89 64.9746L78.4435 105.127L79.1434 105.117ZM95.696 105.117H96.396V33.8811H95.696H94.996V105.117H95.696ZM12.9636 67.8034L13.5352 68.2074L26.6587 49.6396L26.0871 49.2355L25.5154 48.8315L12.392 67.3993L12.9636 67.8034ZM34.8066 49.1469L34.2286 49.5419L40.3943 58.5632L40.9722 58.1682L41.5501 57.7732L35.3845 48.752L34.8066 49.1469ZM50.2384 57.2411L50.8773 57.5271L58.9569 39.4755L58.318 39.1895L57.6791 38.9036L49.5995 56.9551L50.2384 57.2411ZM65.9431 36.9226L65.5698 37.5147L72.4949 41.8804L72.8682 41.2882L73.2415 40.6961L66.3164 36.3304L65.9431 36.9226ZM80.7957 38.8003L81.4312 39.0938L96.4109 6.66439L95.7754 6.37085L95.1399 6.07731L80.1602 38.5067L80.7957 38.8003ZM74.3376 41.9114L74.2159 42.6007C76.7082 43.0408 79.2602 42.0821 80.8443 40.0848L80.2959 39.6499L79.7474 39.2149C78.484 40.8077 76.4473 41.5731 74.4593 41.222L74.3376 41.9114ZM59.3558 37.6911L59.8097 38.224C61.0614 37.1578 62.7294 36.7027 64.352 36.9889L64.4736 36.2995L64.5952 35.6102C62.561 35.2514 60.471 35.8216 58.9019 37.1582L59.3558 37.6911ZM42.6304 59.688L42.3454 60.3274C44.7702 61.4086 47.6238 61.0047 49.6549 59.2726L49.2007 58.7399L48.7465 58.2073C47.1272 59.5883 44.8491 59.9109 42.9155 59.0487L42.6304 59.688ZM27.0994 48.1771L27.4949 48.7547C29.0822 47.6676 31.1207 47.4905 32.8632 48.2667L33.1481 47.6273L33.4329 46.9879C31.2484 46.0148 28.6945 46.2363 26.7038 47.5996L27.0994 48.1771ZM80.7957 38.8003L80.1602 38.5067C80.0321 38.784 79.9026 39.0192 79.7474 39.2149L80.2959 39.6499L80.8443 40.0848C81.0989 39.7639 81.2828 39.4151 81.4312 39.0938L80.7957 38.8003ZM72.8682 41.2882L72.4949 41.8804C72.9821 42.1875 73.558 42.4846 74.2159 42.6007L74.3376 41.9114L74.4593 41.222C74.0597 41.1515 73.6627 40.9616 73.2415 40.6961L72.8682 41.2882ZM65.9431 36.9226L66.3164 36.3304C65.8292 36.0233 65.2532 35.7262 64.5952 35.6102L64.4736 36.2995L64.352 36.9889C64.7516 37.0594 65.1486 37.2492 65.5698 37.5147L65.9431 36.9226ZM58.318 39.1895L58.9569 39.4755C59.19 38.9547 59.4563 38.525 59.8097 38.224L59.3558 37.6911L58.9019 37.1582C58.319 37.6548 57.9484 38.3017 57.6791 38.9036L58.318 39.1895ZM50.2384 57.2411L49.5995 56.9551C49.3664 57.4759 49.0999 57.9059 48.7465 58.2073L49.2007 58.7399L49.6549 59.2726C50.2374 58.7758 50.6079 58.129 50.8773 57.5271L50.2384 57.2411ZM40.9722 58.1682L40.3943 58.5632C40.8561 59.2389 41.4756 59.9395 42.3454 60.3274L42.6304 59.688L42.9155 59.0487C42.3898 58.8143 41.9505 58.359 41.5501 57.7732L40.9722 58.1682ZM34.8066 49.1469L35.3845 48.752C34.9227 48.0762 34.303 47.3755 33.4329 46.9879L33.1481 47.6273L32.8632 48.2667C33.3889 48.5009 33.8283 48.9562 34.2286 49.5419L34.8066 49.1469ZM26.0871 49.2355L26.6587 49.6396C26.922 49.2671 27.1879 48.9649 27.4949 48.7547L27.0994 48.1771L26.7038 47.5996C26.199 47.9453 25.8201 48.4005 25.5154 48.8315L26.0871 49.2355Z" fill="white"/>
  <defs>
    <filter id="filter0_f_1667_1579" x="7.2041" y="0.670654" width="96.4473" height="110.147" filterUnits="userSpaceOnUse" color-interpolation-filters="sRGB">
      <feFlood flood-opacity="0" result="BackgroundImageFix"/>
      <feBlend mode="normal" in="SourceGraphic" in2="BackgroundImageFix" result="shape"/>
      <feGaussianBlur stdDeviation="2.5" result="effect1_foregroundBlur_1667_1579"/>
    </filter>
  </defs>
</svg>