<svg xmlns="http://www.w3.org/2000/svg" width="119" height="121" viewBox="0 0 119 121" fill="none">
  <path d="M89.8825 28.0169V27.3169V28.0169ZM75.337 13.4715V12.7715V13.4715ZM52.8189 43.8111C52.8189 44.1977 53.1323 44.5111 53.5189 44.5111C53.9055 44.5111 54.2189 44.1977 54.2189 43.8111H52.8189ZM46.2462 17.1078V16.4078V17.1078ZM60.7916 6.19873V5.49873V6.19873ZM29.8825 95.2897L29.2251 95.5301L29.2307 95.5453L29.237 95.5603L29.8825 95.2897ZM17.9121 62.5624L18.5695 62.322L18.5688 62.3201L17.9121 62.5624ZM20.6098 52.6533L20.9556 53.262L20.9557 53.2619L20.6098 52.6533ZM30.6803 55.3079L31.3174 55.018L31.3091 54.9997L31.2997 54.9819L30.6803 55.3079ZM38.2734 55.3079C38.2734 55.6945 38.5868 56.0079 38.9734 56.0079C39.36 56.0079 39.6734 55.6945 39.6734 55.3079H38.2734ZM31.7935 59.4452C31.9536 59.7971 32.3687 59.9526 32.7206 59.7925C33.0725 59.6324 33.2279 59.2173 33.0678 58.8654L31.7935 59.4452ZM97.1552 75.2896H97.8552V35.2896H97.1552H96.4552V75.2896H97.1552ZM97.1552 35.2896H97.8552C97.8552 33.1751 97.0152 31.1472 95.52 29.6521L95.0251 30.147L94.5301 30.642C95.7627 31.8746 96.4552 33.5464 96.4552 35.2896H97.1552ZM95.0251 30.147L95.52 29.6521C94.0249 28.1569 91.997 27.3169 89.8825 27.3169V28.0169V28.7169C91.6257 28.7169 93.2975 29.4094 94.5301 30.642L95.0251 30.147ZM89.8825 28.0169V27.3169C87.768 27.3169 85.7401 28.1569 84.2449 29.6521L84.7399 30.147L85.2349 30.642C86.4675 29.4094 88.1393 28.7169 89.8825 28.7169V28.0169ZM84.7399 30.147L84.2449 29.6521C82.7497 31.1472 81.9098 33.1751 81.9098 35.2896H82.6098H83.3098C83.3098 33.5464 84.0023 31.8746 85.2349 30.642L84.7399 30.147ZM82.6098 35.2896H81.9098V50.8497H82.6098H83.3098V35.2896H82.6098ZM82.6098 50.8497H83.3098V20.7442H82.6098H81.9098V50.8497H82.6098ZM82.6098 20.7442H83.3098C83.3098 18.6297 82.4698 16.6018 80.9746 15.1066L80.4796 15.6016L79.9847 16.0966C81.2173 17.3292 81.9098 19.001 81.9098 20.7442H82.6098ZM80.4796 15.6016L80.9746 15.1066C79.4794 13.6114 77.4515 12.7715 75.337 12.7715V13.4715V14.1715C77.0802 14.1715 78.752 14.8639 79.9847 16.0966L80.4796 15.6016ZM75.337 13.4715V12.7715C73.2225 12.7715 71.1947 13.6114 69.6995 15.1066L70.1945 15.6016L70.6894 16.0966C71.9221 14.8639 73.5938 14.1715 75.337 14.1715V13.4715ZM70.1945 15.6016L69.6995 15.1066C68.2043 16.6018 67.3643 18.6297 67.3643 20.7442H68.0643H68.7643C68.7643 19.001 69.4568 17.3292 70.6894 16.0966L70.1945 15.6016ZM68.0643 20.7442H67.3643V43.8111H68.0643H68.7643V20.7442H68.0643ZM53.5189 43.8111H54.2189V24.3805H53.5189H52.8189V43.8111H53.5189ZM53.5189 24.3805H54.2189C54.2189 22.266 53.3789 20.2381 51.8837 18.743L51.3887 19.2379L50.8938 19.7329C52.1264 20.9655 52.8189 22.6373 52.8189 24.3805H53.5189ZM51.3887 19.2379L51.8837 18.743C50.3885 17.2478 48.3607 16.4078 46.2462 16.4078V17.1078V17.8078C47.9894 17.8078 49.6611 18.5003 50.8938 19.7329L51.3887 19.2379ZM46.2462 17.1078V16.4078C44.1317 16.4078 42.1038 17.2478 40.6086 18.743L41.1036 19.2379L41.5985 19.7329C42.8312 18.5003 44.503 17.8078 46.2462 17.8078V17.1078ZM41.1036 19.2379L40.6086 18.743C39.1134 20.2381 38.2734 22.266 38.2734 24.3805H38.9734H39.6734C39.6734 22.6373 40.3659 20.9655 41.5985 19.7329L41.1036 19.2379ZM68.0643 43.8111H68.7643V13.4715H68.0643H67.3643V43.8111H68.0643ZM68.0643 13.4715H68.7643C68.7643 11.357 67.9243 9.32906 66.4292 7.83389L65.9342 8.32886L65.4392 8.82384C66.6718 10.0565 67.3643 11.7283 67.3643 13.4715H68.0643ZM65.9342 8.32886L66.4292 7.83389C64.934 6.33871 62.9061 5.49873 60.7916 5.49873V6.19873V6.89873C62.5348 6.89873 64.2066 7.59121 65.4392 8.82384L65.9342 8.32886ZM60.7916 6.19873V5.49873C58.6771 5.49873 56.6492 6.33871 55.154 7.83389L55.649 8.32886L56.144 8.82384C57.3766 7.59121 59.0484 6.89873 60.7916 6.89873V6.19873ZM55.649 8.32886L55.154 7.83389C53.6589 9.32906 52.8189 11.357 52.8189 13.4715H53.5189H54.2189C54.2189 11.7283 54.9114 10.0565 56.144 8.82384L55.649 8.32886ZM53.5189 13.4715H52.8189V43.8111H53.5189H54.2189V13.4715H53.5189ZM97.1552 75.2896H96.4552C96.4552 88.5066 92.8539 98.3192 86.8675 104.821C80.8862 111.318 72.4499 114.59 62.6098 114.59V115.29V115.99C72.7696 115.99 81.6061 112.603 87.8975 105.769C94.1838 98.9418 97.8552 88.7544 97.8552 75.2896H97.1552ZM62.6098 115.29V114.59C52.7167 114.59 45.8398 112.365 40.8807 108.844C35.9186 105.321 32.8041 100.448 30.5281 95.019L29.8825 95.2897L29.237 95.5603C31.5723 101.131 34.8215 106.259 40.0702 109.985C45.3218 113.714 52.5029 115.99 62.6098 115.99V115.29ZM29.8825 95.2897L30.54 95.0492L18.5695 62.322L17.9121 62.5624L17.2547 62.8029L29.2251 95.5301L29.8825 95.2897ZM17.9121 62.5624L18.5688 62.3201C17.8458 60.3605 17.6705 58.5303 18.0511 56.9881C18.4271 55.4645 19.3565 54.1703 20.9556 53.262L20.6098 52.6533L20.2641 52.0447C18.3382 53.1386 17.1619 54.7478 16.6919 56.6527C16.2264 58.5388 16.4648 60.6621 17.2554 62.8047L17.9121 62.5624ZM20.6098 52.6533L20.9557 53.2619C24.1856 51.4263 28.3599 52.4022 30.0608 55.6339L30.6803 55.3079L31.2997 54.9819C29.1825 50.9591 24.0885 49.8712 20.264 52.0447L20.6098 52.6533ZM38.9734 24.3805H38.2734V55.3079H38.9734H39.6734V24.3805H38.9734ZM30.6803 55.3079L30.0431 55.5978L31.7935 59.4452L32.4307 59.1553L33.0678 58.8654L31.3174 55.018L30.6803 55.3079Z" fill="black"/>
  <path d="M89.748 69.1712C89.0977 67.6168 88.0173 66.4961 86.6229 65.9316L86.6042 65.9245C85.9695 65.6746 85.2938 65.5467 84.6121 65.5474H84.5372C81.3453 65.5957 78.0866 68.3239 76.4297 72.3365C75.2146 75.2709 75.0752 78.4268 76.0571 80.779C76.7063 82.3346 77.789 83.4553 79.1892 84.0198L79.2045 84.0257C79.8392 84.2756 80.5149 84.4035 81.1965 84.4028C84.4188 84.4028 87.7115 81.6746 89.3988 77.609C90.5987 74.6781 90.7311 71.5246 89.748 69.1712ZM76.9945 86.478C75.1537 85.3656 73.4136 84.3132 72.277 82.423C69.1413 77.1906 67.2478 74.0323 62.283 74.0323C57.3182 74.0323 55.42 77.1906 52.2773 82.423C51.1383 84.3156 49.3948 85.3691 47.5481 86.4863C45.4307 87.7661 43.243 89.0883 42.2986 91.6904C41.9313 92.6284 41.7463 93.6285 41.7537 94.6365C41.7537 98.8731 45.0346 102.32 49.0655 102.32C51.1454 102.32 53.3588 101.595 55.7012 100.828C57.9533 100.09 60.2816 99.328 62.2947 99.328C64.3078 99.328 66.6302 100.09 68.8742 100.828C71.2118 101.591 73.4148 102.315 75.5005 102.315C79.5255 102.315 82.8006 98.8684 82.8006 94.6318C82.8039 93.623 82.615 92.6229 82.244 91.6857C81.2996 89.0813 79.1107 87.7578 76.9945 86.478ZM49.8623 69.89C51.2567 71.6495 53.0261 72.6182 54.8446 72.6182C55.0929 72.6181 55.3408 72.5996 55.5864 72.5628C59.3794 72.0018 61.7428 67.3469 60.9671 61.9566C60.6425 59.6905 59.7754 57.5798 58.5334 56.0148C57.1413 54.2589 55.3696 53.2914 53.5522 53.2914C53.3039 53.2915 53.056 53.31 52.8105 53.3468C49.0175 53.9078 46.654 58.5627 47.4297 63.953C47.7531 66.2156 48.6202 68.3239 49.8623 69.89ZM68.9808 72.5628C69.2264 72.5996 69.4743 72.6181 69.7225 72.6182C71.5423 72.6182 73.3105 71.6495 74.7049 69.89C75.9458 68.3239 76.8082 66.2156 77.1363 63.9506C77.912 58.5627 75.5485 53.9078 71.7555 53.3444C71.51 53.3076 71.2621 53.2891 71.0138 53.2891C69.1964 53.2914 67.4247 54.2589 66.0326 56.0148C64.7906 57.5798 63.9235 59.6905 63.6001 61.959C62.8244 67.3469 65.1878 72.0018 68.9808 72.5628ZM45.3615 84.0257L45.378 84.0198C46.7759 83.4553 47.8574 82.3358 48.5054 80.7814C49.4873 78.4245 49.3491 75.2721 48.1363 72.3377C46.4571 68.2767 43.1657 65.5474 39.9468 65.5474C39.2652 65.5464 38.5894 65.6743 37.9548 65.9245L37.9384 65.9304C36.544 66.4902 35.4625 67.6144 34.8145 69.1688C33.8326 71.5257 33.9708 74.6781 35.1836 77.6125C36.8627 81.6735 40.1542 84.4028 43.3731 84.4028C44.0535 84.4033 44.728 84.2754 45.3615 84.0257Z" stroke="black" stroke-width="1.2937"/>
  <g filter="url(#filter0_f_1667_1639)">
    <path d="M89.8825 28.0169V27.3169V28.0169ZM75.337 13.4715V12.7715V13.4715ZM52.8189 43.8111C52.8189 44.1977 53.1323 44.5111 53.5189 44.5111C53.9055 44.5111 54.2189 44.1977 54.2189 43.8111H52.8189ZM46.2462 17.1078V16.4078V17.1078ZM60.7916 6.19873V5.49873V6.19873ZM29.8825 95.2897L29.2251 95.5301L29.2307 95.5453L29.237 95.5603L29.8825 95.2897ZM17.9121 62.5624L18.5695 62.322L18.5688 62.3201L17.9121 62.5624ZM20.6098 52.6533L20.9556 53.262L20.9557 53.2619L20.6098 52.6533ZM30.6803 55.3079L31.3174 55.018L31.3091 54.9997L31.2997 54.9819L30.6803 55.3079ZM38.2734 55.3079C38.2734 55.6945 38.5868 56.0079 38.9734 56.0079C39.36 56.0079 39.6734 55.6945 39.6734 55.3079H38.2734ZM31.7935 59.4452C31.9536 59.7971 32.3687 59.9526 32.7206 59.7925C33.0725 59.6324 33.2279 59.2173 33.0678 58.8654L31.7935 59.4452ZM97.1552 75.2896H97.8552V35.2896H97.1552H96.4552V75.2896H97.1552ZM97.1552 35.2896H97.8552C97.8552 33.1751 97.0152 31.1472 95.52 29.6521L95.0251 30.147L94.5301 30.642C95.7627 31.8746 96.4552 33.5464 96.4552 35.2896H97.1552ZM95.0251 30.147L95.52 29.6521C94.0249 28.1569 91.997 27.3169 89.8825 27.3169V28.0169V28.7169C91.6257 28.7169 93.2975 29.4094 94.5301 30.642L95.0251 30.147ZM89.8825 28.0169V27.3169C87.768 27.3169 85.7401 28.1569 84.2449 29.6521L84.7399 30.147L85.2349 30.642C86.4675 29.4094 88.1393 28.7169 89.8825 28.7169V28.0169ZM84.7399 30.147L84.2449 29.6521C82.7497 31.1472 81.9098 33.1751 81.9098 35.2896H82.6098H83.3098C83.3098 33.5464 84.0023 31.8746 85.2349 30.642L84.7399 30.147ZM82.6098 35.2896H81.9098V50.8497H82.6098H83.3098V35.2896H82.6098ZM82.6098 50.8497H83.3098V20.7442H82.6098H81.9098V50.8497H82.6098ZM82.6098 20.7442H83.3098C83.3098 18.6297 82.4698 16.6018 80.9746 15.1066L80.4796 15.6016L79.9847 16.0966C81.2173 17.3292 81.9098 19.001 81.9098 20.7442H82.6098ZM80.4796 15.6016L80.9746 15.1066C79.4794 13.6114 77.4515 12.7715 75.337 12.7715V13.4715V14.1715C77.0802 14.1715 78.752 14.8639 79.9847 16.0966L80.4796 15.6016ZM75.337 13.4715V12.7715C73.2225 12.7715 71.1947 13.6114 69.6995 15.1066L70.1945 15.6016L70.6894 16.0966C71.9221 14.8639 73.5938 14.1715 75.337 14.1715V13.4715ZM70.1945 15.6016L69.6995 15.1066C68.2043 16.6018 67.3643 18.6297 67.3643 20.7442H68.0643H68.7643C68.7643 19.001 69.4568 17.3292 70.6894 16.0966L70.1945 15.6016ZM68.0643 20.7442H67.3643V43.8111H68.0643H68.7643V20.7442H68.0643ZM53.5189 43.8111H54.2189V24.3805H53.5189H52.8189V43.8111H53.5189ZM53.5189 24.3805H54.2189C54.2189 22.266 53.3789 20.2381 51.8837 18.743L51.3887 19.2379L50.8938 19.7329C52.1264 20.9655 52.8189 22.6373 52.8189 24.3805H53.5189ZM51.3887 19.2379L51.8837 18.743C50.3885 17.2478 48.3607 16.4078 46.2462 16.4078V17.1078V17.8078C47.9894 17.8078 49.6611 18.5003 50.8938 19.7329L51.3887 19.2379ZM46.2462 17.1078V16.4078C44.1317 16.4078 42.1038 17.2478 40.6086 18.743L41.1036 19.2379L41.5985 19.7329C42.8312 18.5003 44.503 17.8078 46.2462 17.8078V17.1078ZM41.1036 19.2379L40.6086 18.743C39.1134 20.2381 38.2734 22.266 38.2734 24.3805H38.9734H39.6734C39.6734 22.6373 40.3659 20.9655 41.5985 19.7329L41.1036 19.2379ZM68.0643 43.8111H68.7643V13.4715H68.0643H67.3643V43.8111H68.0643ZM68.0643 13.4715H68.7643C68.7643 11.357 67.9243 9.32906 66.4292 7.83389L65.9342 8.32886L65.4392 8.82384C66.6718 10.0565 67.3643 11.7283 67.3643 13.4715H68.0643ZM65.9342 8.32886L66.4292 7.83389C64.934 6.33871 62.9061 5.49873 60.7916 5.49873V6.19873V6.89873C62.5348 6.89873 64.2066 7.59121 65.4392 8.82384L65.9342 8.32886ZM60.7916 6.19873V5.49873C58.6771 5.49873 56.6492 6.33871 55.154 7.83389L55.649 8.32886L56.144 8.82384C57.3766 7.59121 59.0484 6.89873 60.7916 6.89873V6.19873ZM55.649 8.32886L55.154 7.83389C53.6589 9.32906 52.8189 11.357 52.8189 13.4715H53.5189H54.2189C54.2189 11.7283 54.9114 10.0565 56.144 8.82384L55.649 8.32886ZM53.5189 13.4715H52.8189V43.8111H53.5189H54.2189V13.4715H53.5189ZM97.1552 75.2896H96.4552C96.4552 88.5066 92.8539 98.3192 86.8675 104.821C80.8862 111.318 72.4499 114.59 62.6098 114.59V115.29V115.99C72.7696 115.99 81.6061 112.603 87.8975 105.769C94.1838 98.9418 97.8552 88.7544 97.8552 75.2896H97.1552ZM62.6098 115.29V114.59C52.7167 114.59 45.8398 112.365 40.8807 108.844C35.9186 105.321 32.8041 100.448 30.5281 95.019L29.8825 95.2897L29.237 95.5603C31.5723 101.131 34.8215 106.259 40.0702 109.985C45.3218 113.714 52.5029 115.99 62.6098 115.99V115.29ZM29.8825 95.2897L30.54 95.0492L18.5695 62.322L17.9121 62.5624L17.2547 62.8029L29.2251 95.5301L29.8825 95.2897ZM17.9121 62.5624L18.5688 62.3201C17.8458 60.3605 17.6705 58.5303 18.0511 56.9881C18.4271 55.4645 19.3565 54.1703 20.9556 53.262L20.6098 52.6533L20.2641 52.0447C18.3382 53.1386 17.1619 54.7478 16.6919 56.6527C16.2264 58.5388 16.4648 60.6621 17.2554 62.8047L17.9121 62.5624ZM20.6098 52.6533L20.9557 53.2619C24.1856 51.4263 28.3599 52.4022 30.0608 55.6339L30.6803 55.3079L31.2997 54.9819C29.1825 50.9591 24.0885 49.8712 20.264 52.0447L20.6098 52.6533ZM38.9734 24.3805H38.2734V55.3079H38.9734H39.6734V24.3805H38.9734ZM30.6803 55.3079L30.0431 55.5978L31.7935 59.4452L32.4307 59.1553L33.0678 58.8654L31.3174 55.018L30.6803 55.3079Z" fill="black"/>
    <path d="M89.748 69.1712C89.0977 67.6168 88.0173 66.4961 86.6229 65.9316L86.6042 65.9245C85.9695 65.6746 85.2938 65.5467 84.6121 65.5474H84.5372C81.3453 65.5957 78.0866 68.3239 76.4297 72.3365C75.2146 75.2709 75.0752 78.4268 76.0571 80.779C76.7063 82.3346 77.789 83.4553 79.1892 84.0198L79.2045 84.0257C79.8392 84.2756 80.5149 84.4035 81.1965 84.4028C84.4188 84.4028 87.7115 81.6746 89.3988 77.609C90.5987 74.6781 90.7311 71.5246 89.748 69.1712ZM76.9945 86.478C75.1537 85.3656 73.4136 84.3132 72.277 82.423C69.1413 77.1906 67.2478 74.0323 62.283 74.0323C57.3182 74.0323 55.42 77.1906 52.2773 82.423C51.1383 84.3156 49.3948 85.3691 47.5481 86.4863C45.4307 87.7661 43.243 89.0883 42.2986 91.6904C41.9313 92.6284 41.7463 93.6285 41.7537 94.6365C41.7537 98.8731 45.0346 102.32 49.0655 102.32C51.1454 102.32 53.3588 101.595 55.7012 100.828C57.9533 100.09 60.2816 99.328 62.2947 99.328C64.3078 99.328 66.6302 100.09 68.8742 100.828C71.2118 101.591 73.4148 102.315 75.5005 102.315C79.5255 102.315 82.8006 98.8684 82.8006 94.6318C82.8039 93.623 82.615 92.6229 82.244 91.6857C81.2996 89.0813 79.1107 87.7578 76.9945 86.478ZM49.8623 69.89C51.2567 71.6495 53.0261 72.6182 54.8446 72.6182C55.0929 72.6181 55.3408 72.5996 55.5864 72.5628C59.3794 72.0018 61.7428 67.3469 60.9671 61.9566C60.6425 59.6905 59.7754 57.5798 58.5334 56.0148C57.1413 54.2589 55.3696 53.2914 53.5522 53.2914C53.3039 53.2915 53.056 53.31 52.8105 53.3468C49.0175 53.9078 46.654 58.5627 47.4297 63.953C47.7531 66.2156 48.6202 68.3239 49.8623 69.89ZM68.9808 72.5628C69.2264 72.5996 69.4743 72.6181 69.7225 72.6182C71.5423 72.6182 73.3105 71.6495 74.7049 69.89C75.9458 68.3239 76.8082 66.2156 77.1363 63.9506C77.912 58.5627 75.5485 53.9078 71.7555 53.3444C71.51 53.3076 71.2621 53.2891 71.0138 53.2891C69.1964 53.2914 67.4247 54.2589 66.0326 56.0148C64.7906 57.5798 63.9235 59.6905 63.6001 61.959C62.8244 67.3469 65.1878 72.0018 68.9808 72.5628ZM45.3615 84.0257L45.378 84.0198C46.7759 83.4553 47.8574 82.3358 48.5054 80.7814C49.4873 78.4245 49.3491 75.2721 48.1363 72.3377C46.4571 68.2767 43.1657 65.5474 39.9468 65.5474C39.2652 65.5464 38.5894 65.6743 37.9548 65.9245L37.9384 65.9304C36.544 66.4902 35.4625 67.6144 34.8145 69.1688C33.8326 71.5257 33.9708 74.6781 35.1836 77.6125C36.8627 81.6735 40.1542 84.4028 43.3731 84.4028C44.0535 84.4033 44.728 84.2754 45.3615 84.0257Z" stroke="black" stroke-width="1.2937"/>
  </g>
  <defs>
    <filter id="filter0_f_1667_1639" x="12.4551" y="1.49878" width="89.4004" height="118.491" filterUnits="userSpaceOnUse" color-interpolation-filters="sRGB">
      <feFlood flood-opacity="0" result="BackgroundImageFix"/>
      <feBlend mode="normal" in="SourceGraphic" in2="BackgroundImageFix" result="shape"/>
      <feGaussianBlur stdDeviation="2" result="effect1_foregroundBlur_1667_1639"/>
    </filter>
  </defs>
</svg>