<svg xmlns="http://www.w3.org/2000/svg" width="129" height="129" viewBox="0 0 129 129" fill="none">
  <g filter="url(#filter0_f_1667_1572)">
    <path d="M107.218 39.9952C111.43 47.2758 113.84 55.7285 113.84 64.7441C113.84 92.0822 91.6779 114.244 64.3398 114.244C37.0017 114.244 14.8398 92.0822 14.8398 64.7441C14.8398 37.406 37.0017 15.2441 64.3398 15.2441C73.4946 15.2441 82.069 17.7294 89.425 22.062M93.2569 49.9136C95.5415 54.3596 96.8309 59.401 96.8309 64.7435C96.8309 82.6882 82.2839 97.2352 64.3392 97.2352C46.3945 97.2352 31.8474 82.6882 31.8474 64.7435C31.8474 46.7988 46.3945 32.2517 64.3392 32.2517C69.9559 32.2517 75.2397 33.6769 79.8488 36.1853M77.5968 59.5482C78.228 61.1577 78.5746 62.9101 78.5746 64.7435C78.5746 72.6055 72.2012 78.9789 64.3392 78.9789C56.4772 78.9789 50.1038 72.6055 50.1038 64.7435C50.1038 56.8815 56.4772 50.5081 64.3392 50.5081C66.1985 50.5081 67.9746 50.8645 69.6028 51.5128M63.7839 64.9614L86.3856 42.8597M86.3856 42.8597V33.6078C86.3856 33.225 86.5452 32.8595 86.826 32.5993L94.6585 25.3405C95.5386 24.5249 96.9681 25.1491 96.9681 26.349V31.7169C96.9681 32.4187 97.4967 33.0079 98.1943 33.0838L103.054 33.6129C104.23 33.7409 104.706 35.1951 103.834 35.9938L95.4636 43.6595C95.1596 43.9379 94.7467 44.0652 94.3387 44.0064L86.3856 42.8597ZM86.3856 42.8597L91.6769 37.905" stroke="black" stroke-width="1.4" stroke-linecap="round"/>
  </g>
  <path d="M107.218 39.9952C111.43 47.2758 113.84 55.7285 113.84 64.7441C113.84 92.0822 91.6779 114.244 64.3398 114.244C37.0017 114.244 14.8398 92.0822 14.8398 64.7441C14.8398 37.406 37.0017 15.2441 64.3398 15.2441C73.4946 15.2441 82.069 17.7294 89.425 22.062M93.2569 49.9136C95.5415 54.3596 96.8309 59.401 96.8309 64.7435C96.8309 82.6882 82.2839 97.2352 64.3392 97.2352C46.3945 97.2352 31.8474 82.6882 31.8474 64.7435C31.8474 46.7988 46.3945 32.2517 64.3392 32.2517C69.9559 32.2517 75.2397 33.6769 79.8488 36.1853M77.5968 59.5482C78.228 61.1577 78.5746 62.9101 78.5746 64.7435C78.5746 72.6055 72.2012 78.9789 64.3392 78.9789C56.4772 78.9789 50.1038 72.6055 50.1038 64.7435C50.1038 56.8815 56.4772 50.5081 64.3392 50.5081C66.1985 50.5081 67.9746 50.8645 69.6028 51.5128M63.7839 64.9614L86.3856 42.8597M86.3856 42.8597V33.6078C86.3856 33.225 86.5452 32.8595 86.826 32.5993L94.6585 25.3405C95.5386 24.5249 96.9681 25.1491 96.9681 26.349V31.7169C96.9681 32.4187 97.4967 33.0079 98.1943 33.0838L103.054 33.6129C104.23 33.7409 104.706 35.1951 103.834 35.9938L95.4636 43.6595C95.1596 43.9379 94.7467 44.0652 94.3387 44.0064L86.3856 42.8597ZM86.3856 42.8597L91.6769 37.905" stroke="black" stroke-width="1.4" stroke-linecap="round"/>
  <defs>
    <filter id="filter0_f_1667_1572" x="8.63965" y="9.04419" width="111.4" height="111.4" filterUnits="userSpaceOnUse" color-interpolation-filters="sRGB">
      <feFlood flood-opacity="0" result="BackgroundImageFix"/>
      <feBlend mode="normal" in="SourceGraphic" in2="BackgroundImageFix" result="shape"/>
      <feGaussianBlur stdDeviation="2.75" result="effect1_foregroundBlur_1667_1572"/>
    </filter>
  </defs>
</svg>