<svg xmlns="http://www.w3.org/2000/svg" width="96" height="125" viewBox="0 0 96 125" fill="none">
  <g filter="url(#filter0_f_1667_1450)">
    <path d="M61.2583 9.7873C65.7592 6.40315 79.4237 6.40315 83.9246 9.78731C104.485 25.246 67.7611 81.6549 50.6733 80.4706M50.6733 80.4706C50.6733 90.7548 42.5636 93.3287 40.3604 98.5185C38.131 103.77 41.28 107.98 45.2913 108.275C51.7398 108.75 53.5464 99.1212 50.6733 93.3287C47.0987 86.1218 37.7618 84.0978 31.4427 89.0762C24.2654 94.7308 27.1305 108.161 35.7843 111.093C45.2913 114.315 46.8042 107.168 57.6093 111.093M50.6733 80.4706C31.386 80.4706 -3.73665 26.4351 13.1142 10.9353C18.9702 5.54871 30.228 4.45805 36.1362 9.78731" stroke="white" stroke-width="1.30435"/>
    <circle cx="62.773" cy="112.915" r="5.55813" stroke="white" stroke-width="1.30435"/>
    <circle cx="62.7741" cy="112.982" r="3.12073" stroke="white" stroke-width="1.30435"/>
    <rect x="56.665" y="10.5154" width="5.96628" height="2.98314" rx="1.49157" transform="rotate(-25.8123 56.665 10.5154)" fill="white"/>
    <rect width="5.96628" height="2.98314" rx="1.49157" transform="matrix(-0.900225 -0.435425 -0.435425 0.900225 40.9619 10.5154)" fill="white"/>
    <path d="M63.5029 35.9353C63.8432 35.935 64.181 35.9989 64.498 36.1238L64.5068 36.1277L64.5107 36.1287C65.1048 36.3711 65.5997 36.8249 65.9443 37.4841L66.083 37.781C66.6096 39.0422 66.56 40.811 65.8662 42.5076C64.8773 44.8905 63.0196 46.3151 61.3857 46.3152H61.3848C61.0445 46.3155 60.7067 46.2525 60.3896 46.1277L60.3867 46.1257L60.377 46.1218C59.6949 45.8441 59.145 45.2914 58.8027 44.4714V44.4705C58.2769 43.2104 58.3304 41.4396 59.0342 39.74V39.739C59.9738 37.4637 61.7296 36.0508 63.3125 35.9421L63.4658 35.9353H63.5029ZM35.8232 35.9353H35.8242C37.3537 35.9354 39.0809 37.1884 40.1016 39.3054L40.2959 39.741C40.9982 41.4404 41.0516 43.209 40.5254 44.4724C40.1839 45.2916 39.635 45.8441 38.9541 46.1218L38.9492 46.1238L38.9404 46.1277C38.6241 46.2524 38.2868 46.3155 37.9473 46.3152C36.3157 46.3152 34.4585 44.8901 33.4746 42.5105H33.4756C32.7732 40.8109 32.7197 39.0416 33.2461 37.7781C33.5884 36.9574 34.1376 36.4029 34.8145 36.1287L34.8193 36.1277L34.8291 36.1238C35.1459 35.9989 35.4832 35.9348 35.8232 35.9353ZM44.2549 28.3406C45.1362 28.3406 46.0606 28.8102 46.8311 29.782C47.4762 30.595 47.9546 31.6965 48.166 32.907L48.2041 33.1511C48.4282 34.7084 48.1936 36.1261 47.6631 37.1716C47.1333 38.2157 46.3355 38.8507 45.4199 38.9861H45.4189C45.2987 39.0041 45.1772 39.0124 45.0557 39.0125C44.2293 39.0124 43.3669 38.6005 42.626 37.7458L42.4795 37.5691C41.7909 36.7008 41.2927 35.5062 41.1064 34.2029L41.0703 33.9119C40.9135 32.4692 41.1511 31.1625 41.6484 30.1824C42.1782 29.1384 42.9751 28.5034 43.8906 28.3679H43.8916C44.0117 28.3499 44.1335 28.3406 44.2549 28.3406ZM55.0752 28.3396C55.1967 28.3396 55.3183 28.3489 55.4385 28.3669H55.4395C56.3552 28.503 57.1528 29.1374 57.6826 30.1814C58.2132 31.2269 58.4477 32.6444 58.2236 34.2009C58.0343 35.5074 57.5389 36.7015 56.8516 37.5691C56.0792 38.5437 55.1575 39.0125 54.2754 39.0125C54.1539 39.0124 54.0323 39.0041 53.9121 38.9861H53.9111C52.9955 38.8507 52.1987 38.2155 51.6689 37.1716C51.1384 36.1264 50.9029 34.7095 51.127 33.1531V33.1521C51.3133 31.8449 51.8117 30.6492 52.5 29.782C53.27 28.8107 54.1936 28.3412 55.0752 28.3396ZM37.5957 53.3044C37.5918 52.7627 37.6914 52.2253 37.8887 51.7214L37.8945 51.7058C38.3898 50.3418 39.5301 49.6283 40.8721 48.8171C41.9957 48.1374 43.2217 47.4091 44.0234 46.0769H44.0244C45.0135 44.4301 45.7482 43.2156 46.5957 42.3933C47.3978 41.6152 48.2989 41.1932 49.665 41.1931C51.0313 41.1931 51.9317 41.6154 52.7324 42.3933C53.5786 43.2154 54.312 44.4292 55.2988 46.0759L55.2998 46.0769C56 47.2414 57.0246 47.9435 58.0205 48.5544L58.4443 48.8123C59.7855 49.6234 60.9266 50.3374 61.4219 51.7029L61.4248 51.7117L61.4287 51.7205C61.6281 52.2241 61.7293 52.7621 61.7275 53.3044V53.3064C61.7275 55.6034 59.9584 57.4158 57.8555 57.4158C56.6877 57.4157 55.428 57.0078 53.9512 56.5261C52.592 56.0793 51.0456 55.5643 49.6729 55.5642C48.2996 55.5642 46.7483 56.0792 45.3838 56.5261C43.905 57.0105 42.6388 57.4187 41.4746 57.4187C39.3671 57.4186 37.5957 55.6052 37.5957 53.3093V53.3044Z" stroke="white" stroke-width="1.30435"/>
  </g>
  <path d="M61.2583 9.7873C65.7592 6.40315 79.4237 6.40315 83.9246 9.78731C104.485 25.246 67.7611 81.6549 50.6733 80.4706M50.6733 80.4706C50.6733 90.7548 42.5636 93.3287 40.3604 98.5185C38.131 103.77 41.28 107.98 45.2913 108.275C51.7398 108.75 53.5464 99.1212 50.6733 93.3287C47.0987 86.1218 37.7618 84.0978 31.4427 89.0762C24.2654 94.7308 27.1305 108.161 35.7843 111.093C45.2913 114.315 46.8042 107.168 57.6093 111.093M50.6733 80.4706C31.386 80.4706 -3.73665 26.4351 13.1142 10.9353C18.9702 5.54871 30.228 4.45805 36.1362 9.78731" stroke="white" stroke-width="1.4"/>
  <circle cx="62.773" cy="112.915" r="5.55813" stroke="white" stroke-width="1.4"/>
  <circle cx="62.7741" cy="112.982" r="3.12073" stroke="white" stroke-width="1.4"/>
  <rect x="56.665" y="10.5154" width="5.96628" height="2.98314" rx="1.49157" transform="rotate(-25.8123 56.665 10.5154)" fill="white"/>
  <rect width="5.96628" height="2.98314" rx="1.49157" transform="matrix(-0.900225 -0.435425 -0.435425 0.900225 40.9619 10.5154)" fill="white"/>
  <path d="M35.8232 35.9832H35.8242C37.429 35.9832 39.2722 37.3892 40.252 39.7585C40.9507 41.4493 41.0016 43.2048 40.4814 44.4539C40.1447 45.2617 39.6049 45.8032 38.9385 46.0759L38.9326 46.0789L38.9229 46.0828C38.6123 46.2052 38.2816 46.2675 37.9482 46.2673H37.9473C36.3425 46.2673 34.4993 44.8622 33.5195 42.4929C32.8207 40.802 32.7697 39.0457 33.29 37.7966C33.6283 36.9854 34.1698 36.4412 34.834 36.1726L34.8467 36.1687C35.1579 36.046 35.4892 35.9827 35.8232 35.9832ZM63.5029 35.9832C63.8372 35.9828 64.169 36.0461 64.4805 36.1687L64.4893 36.1726C65.0731 36.4101 65.5618 36.855 65.9023 37.5066L66.0391 37.7996C66.5596 39.0462 66.5122 40.8014 65.8223 42.489C64.8375 44.8619 62.993 46.2672 61.3857 46.2673H61.3848C61.0505 46.2677 60.7187 46.2054 60.4072 46.0828L60.4033 46.0808C59.7306 45.8096 59.186 45.266 58.8467 44.4529C58.3267 43.2074 58.3779 41.4496 59.0781 39.7585L59.0791 39.7576C60.0148 37.4917 61.7579 36.0968 63.3164 35.99L63.4668 35.9832H63.5029ZM44.2549 28.3884C45.0643 28.3884 45.9159 28.7923 46.6484 29.6365L46.793 29.8113C47.3901 30.5637 47.8445 31.5672 48.0732 32.6765L48.1572 33.158C48.3802 34.7071 48.1456 36.1146 47.6201 37.1501C47.0955 38.184 46.3096 38.8056 45.4131 38.9382H45.4121C45.2942 38.9559 45.1748 38.9655 45.0557 38.9656C44.2462 38.9655 43.396 38.5611 42.6621 37.7146L42.5166 37.5398L42.3916 37.3748C41.8561 36.6428 41.4492 35.7049 41.2373 34.6765L41.1543 34.196L41.1172 33.907C40.9612 32.4723 41.1979 31.1746 41.6904 30.2039C42.215 29.1701 43.0011 28.5485 43.8975 28.4158H43.8994C44.0171 28.3981 44.1359 28.3885 44.2549 28.3884ZM55.0752 28.3875C55.1943 28.3875 55.3138 28.3961 55.4316 28.4138H55.4326C56.3293 28.5471 57.115 29.1699 57.6396 30.2039C58.1322 31.1747 58.369 32.4719 58.2129 33.906L58.1768 34.1941C58.0002 35.4124 57.5559 36.5309 56.9395 37.3748L56.8145 37.5398C56.0488 38.5059 55.1395 38.9656 54.2754 38.9656C54.1564 38.9655 54.0376 38.9559 53.9199 38.9382H53.918C53.0215 38.8056 52.2356 38.1838 51.7109 37.1501C51.1856 36.1149 50.952 34.7081 51.1748 33.1599V33.1589C51.3486 31.9402 51.7939 30.8199 52.4111 29.9763L52.5371 29.8113C53.3003 28.8486 54.2115 28.389 55.0752 28.3875ZM37.6436 53.3044C37.6397 52.7687 37.7385 52.2373 37.9336 51.739L37.9365 51.7312L37.9395 51.7224C38.367 50.5447 39.2809 49.8568 40.4033 49.1589L40.8965 48.8582C42.0185 48.1794 43.2557 47.4459 44.0645 46.1023L44.0654 46.1013C45.0556 44.4527 45.7869 43.2444 46.6289 42.4275C47.4222 41.6579 48.3115 41.241 49.665 41.241C51.0187 41.241 51.9073 41.6581 52.6992 42.4275C53.5399 43.2442 54.2699 44.4518 55.2578 46.1003L55.2588 46.1013C56.0661 47.4439 57.3009 48.177 58.4199 48.8533V48.8523C59.7634 49.6648 60.8883 50.372 61.377 51.7195L61.3799 51.7292L61.3838 51.738C61.5809 52.2361 61.6814 52.7682 61.6797 53.3044V53.3064C61.6797 55.5793 59.9298 57.3679 57.8555 57.3679C56.6971 57.3678 55.4463 56.9634 53.9678 56.4812H53.9688C52.6113 56.0349 51.0556 55.5164 49.6729 55.5164C48.2904 55.5164 46.7314 56.035 45.3691 56.4812C43.8884 56.9662 42.6297 57.3708 41.4746 57.3708C39.3957 57.3708 37.6436 55.5811 37.6436 53.3093V53.3044Z" stroke="white" stroke-width="1.4"/>
  <defs>
    <filter id="filter0_f_1667_1450" x="3.01758" y="0.647217" width="92.6455" height="123.478" filterUnits="userSpaceOnUse" color-interpolation-filters="sRGB">
      <feFlood flood-opacity="0" result="BackgroundImageFix"/>
      <feBlend mode="normal" in="SourceGraphic" in2="BackgroundImageFix" result="shape"/>
      <feGaussianBlur stdDeviation="2.5" result="effect1_foregroundBlur_1667_1450"/>
    </filter>
  </defs>
</svg>