<svg width="55" height="55" viewBox="0 0 55 55" fill="none" xmlns="http://www.w3.org/2000/svg">
<path d="M14.5727 41.8969C14.0803 40.366 13.6151 38.848 13.3121 37.2859C13.2421 36.925 13.1813 36.5624 13.1078 36.1534C10.6037 39.0806 8.91931 42.464 7.02278 45.7846C4.90887 43.4152 3.25898 40.8094 2.11389 37.9038C-0.475556 31.3331 -0.584046 24.7002 1.96519 18.1139C7.27042 4.4071 22.2502 -2.47216 35.952 2.26491C48.969 6.76522 54.5624 19.0438 54.1456 28.1312C53.942 28.1312 53.7368 28.1312 53.5315 28.1312C52.8111 28.131 52.0903 28.1175 51.3704 28.1374C51.0996 28.145 51.0605 28.0291 51.0531 27.8043C51.0283 27.0523 51.0043 26.2995 50.9487 25.5494C50.8332 23.9927 50.5154 22.472 50.0707 20.9781C49.1398 17.8507 47.6199 15.0337 45.533 12.5311C43.9604 10.6451 42.1371 9.03578 40.066 7.70378C37.8522 6.28008 35.4719 5.25508 32.9237 4.61497C31.5419 4.26786 30.1386 4.05975 28.7147 3.97006C24.6872 3.71636 20.8407 4.42283 17.1765 6.11139C14.9664 7.12988 12.9641 8.46325 11.158 10.096C8.71784 12.3019 6.81185 14.9004 5.43852 17.8848C4.37576 20.1942 3.70648 22.6171 3.42905 25.148C3.01118 28.96 3.47523 32.659 4.82524 36.2472C5.28948 37.481 5.86043 38.6648 6.52104 39.8053C6.56173 39.8756 6.61106 39.9409 6.68554 40.052C6.80081 39.869 6.90312 39.7162 6.99589 39.5578C8.26994 37.3827 9.71294 35.3272 11.3549 33.4137C11.8395 32.849 12.3385 32.2966 12.8365 31.7436C13.0791 31.4742 13.0628 31.3875 12.723 31.2638C12.0314 31.0122 11.3391 30.7621 10.649 30.5063C9.83538 30.2048 9.20142 29.2947 9.20071 28.4314C9.19953 26.9988 9.20543 25.5661 9.19503 24.1336C9.19347 23.9191 9.26995 23.8362 9.46251 23.7663C11.6473 22.9725 13.8291 22.1702 16.0095 21.3642C16.1205 21.3232 16.2254 21.2411 16.3092 21.1548C17.2953 20.1396 18.2783 19.1213 19.2589 18.1007C19.7 17.6416 20.1329 17.1746 20.5715 16.7131C20.8176 16.4542 21.2945 16.5825 21.3882 16.9382C21.6853 18.0658 21.9757 19.1951 22.2699 20.3234C22.34 20.5921 22.4151 20.8596 22.4879 21.1276C22.5136 21.1352 22.5393 21.1428 22.565 21.1505C25.9681 15.9271 29.3712 10.7038 32.7743 5.48051C32.7944 5.48615 32.8146 5.4918 32.8347 5.49744C32.8721 5.88753 32.9143 6.27723 32.9462 6.66776C33.1023 8.58024 33.2555 10.493 33.4104 12.4055C33.4572 12.9824 33.5118 13.5587 33.5514 14.1361C33.5638 14.3176 33.6458 14.4114 33.8055 14.4889C35.5852 15.3524 37.3605 16.2251 39.1408 17.0873C39.3081 17.1683 39.3737 17.2638 39.3636 17.4471C39.3494 17.703 39.3697 17.9608 39.3577 18.2169C39.3494 18.392 39.4013 18.4822 39.5812 18.5354C40.9052 18.9277 42.2261 19.3309 43.5479 19.7308C44.1573 19.9151 44.7642 20.1082 45.3772 20.2796C45.598 20.3413 45.611 20.4296 45.5114 20.6117C45.0348 21.4828 44.5661 22.3582 44.0941 23.2319C43.327 24.6517 42.5563 26.0695 41.7961 27.493C41.6975 27.6776 41.5865 27.7512 41.3729 27.7508C37.8121 27.7442 34.2513 27.746 30.6905 27.7459C30.6094 27.7459 30.5283 27.7459 30.4008 27.7459C30.4483 27.6267 30.4728 27.5426 30.5133 27.4671C30.9599 26.636 31.4134 25.8086 31.8543 24.9745C31.9697 24.7562 32.1019 24.6564 32.3709 24.6578C34.7723 24.6703 37.1738 24.6629 39.5753 24.6667C39.732 24.667 39.8372 24.6336 39.9153 24.4858C40.2828 23.791 40.6592 23.1009 41.0312 22.4085C41.046 22.3811 41.0479 22.3467 41.0638 22.2839C40.6989 22.1673 40.3407 22.0494 39.9805 21.9383C38.8191 21.5801 37.6577 21.2222 36.4944 20.8705C36.3318 20.8213 36.2715 20.7392 36.2765 20.5689C36.2876 20.1966 36.2633 19.8228 36.2849 19.4514C36.2992 19.2068 36.2097 19.0832 35.9925 18.979C34.4928 18.2598 32.9993 17.5279 31.5038 16.7999C31.2361 16.6697 30.9613 16.5516 30.7052 16.4016C30.6196 16.3514 30.5343 16.2208 30.5307 16.1239C30.5127 15.636 30.5221 15.1471 30.5208 14.6585C30.5207 14.5948 30.5141 14.5311 30.4482 14.4186C30.4227 14.4675 30.4007 14.5186 30.3713 14.5651C28.1469 18.0821 25.9231 21.5995 23.6933 25.113C23.5906 25.2748 23.5673 25.4152 23.6152 25.5975C24.0229 27.1496 24.4247 28.7032 24.8227 30.2578C24.8679 30.4343 24.9567 30.5376 25.1289 30.6076C26.7395 31.2627 28.3197 31.9817 29.8248 32.8585C32.0284 34.1424 33.9012 35.7895 35.386 37.8713C37.1923 40.4037 38.3255 43.2253 39.0085 46.243C39.347 47.7385 39.5585 49.2524 39.6555 50.7817C39.6713 51.0309 39.7784 51.0246 39.9572 50.9692C41.3559 50.5362 41.8504 49.6206 41.7818 48.0854C41.7304 46.9355 41.2897 45.8794 40.9679 44.7961C40.386 42.8376 39.7864 40.8844 39.1968 38.9282C38.9128 37.9859 38.5888 37.0526 38.3631 36.0964C37.8365 33.865 38.7367 31.3983 40.7384 30.148C42.1186 29.2859 43.5852 29.2857 45.0722 29.8838C45.2216 29.9439 45.2483 30.0269 45.1718 30.1718C44.7586 30.9548 44.3504 31.7406 43.944 32.5272C43.8824 32.6466 43.81 32.671 43.684 32.6231C42.9418 32.3408 42.3026 32.6595 41.905 33.1378C41.2872 33.881 41.1187 34.7296 41.3957 35.6508C42.2393 38.4555 43.1035 41.254 43.9394 44.061C44.2386 45.0659 44.5469 46.0762 44.7308 47.1055C44.9575 48.3739 44.8839 49.6485 44.3706 50.8612C43.7751 52.2682 42.7251 53.1969 41.308 53.7241C40.552 54.0053 39.7741 54.1802 38.9596 54.1794C38.3145 54.1787 37.6692 54.1999 37.0245 54.2255C36.811 54.2341 36.7374 54.1729 36.7362 53.9499C36.7318 53.0809 36.7229 52.2114 36.6875 51.3433C36.5431 47.7955 35.7332 44.4158 34.0311 41.2841C32.7241 38.8793 30.8984 36.9544 28.5281 35.5571C26.9186 34.6083 25.2032 33.8863 23.4926 33.1519C23.409 33.116 23.3292 33.063 23.2421 33.0447C22.5831 32.9058 22.3386 32.4643 22.179 31.8359C21.4281 28.8783 20.6275 25.9334 19.8439 22.9841C19.7724 22.7149 19.6957 22.447 19.609 22.1338C19.5084 22.2238 19.4352 22.2842 19.3678 22.3504C18.8664 22.8431 18.3692 23.3401 17.8628 23.8277C17.7715 23.9155 17.6518 23.9872 17.5322 24.0304C15.8282 24.6451 14.1227 25.2552 12.4156 25.861C12.2437 25.922 12.1698 26.0101 12.1712 26.2009C12.1745 26.6639 12.1592 27.1274 12.1407 27.5903C12.1334 27.773 12.1905 27.8701 12.374 27.9369C13.5787 28.3756 14.7764 28.8334 15.9819 29.2699C16.2002 29.349 16.1695 29.4855 16.1459 29.6409C15.9341 31.0361 15.8725 32.4403 15.909 33.8487C15.9529 35.5378 16.2515 37.1905 16.7323 38.8041C17.2022 40.3811 17.73 41.941 18.2429 43.5049C18.3309 43.7732 18.3465 44.0273 18.307 44.3066C18.0964 45.7965 17.9029 47.2888 17.7031 48.7802C17.4694 50.5258 17.2371 52.2715 16.9947 54.0158C16.9842 54.0913 16.8794 54.2123 16.8172 54.2131C15.799 54.2261 14.7806 54.2231 13.7622 54.2229C13.7469 54.2229 13.7316 54.2125 13.69 54.1974C13.69 54.1287 13.6777 54.0482 13.6918 53.9726C14.04 52.1122 14.4051 50.2548 14.7352 48.3911C14.8834 47.5537 14.963 46.7041 15.0729 45.86C15.1337 45.3929 15.2072 44.9269 15.2459 44.458C15.2644 44.2337 15.2535 43.9925 15.1898 43.7787C15.0032 43.1526 14.7833 42.5365 14.5727 41.8969Z" fill="#45E1A7"/>
<path d="M23.5622 50.995C23.5451 51.1291 23.5309 51.2419 23.5115 51.3965C23.6341 51.3965 23.7302 51.3965 23.8263 51.3965C25.3661 51.3963 26.9059 51.3964 28.4458 51.3957C28.7694 51.3956 28.7697 51.3944 28.7699 51.7266C28.7702 52.4634 28.7611 53.2004 28.7755 53.9369C28.7801 54.1731 28.6985 54.2278 28.4758 54.2272C25.7108 54.2206 22.9457 54.2228 20.1806 54.222C20.0923 54.2219 20.004 54.2134 19.8855 54.2073C19.9433 53.8072 19.992 53.4331 20.052 53.0607C20.3126 51.4456 20.5767 49.8311 20.8389 48.2162C20.9383 47.6046 21.0355 46.9926 21.1352 46.381C21.1564 46.2508 21.165 46.1267 21.361 46.1246C22.296 46.1148 23.2308 46.0915 24.1658 46.0742C24.2051 46.0735 24.2446 46.0849 24.3296 46.0974C24.0735 47.7313 23.8194 49.3525 23.5622 50.995Z" fill="#45E1A7"/>
</svg>
