<svg xmlns="http://www.w3.org/2000/svg" width="51" height="48" viewBox="0 0 51 48" fill="none">
  <path d="M1.22461 0.092041C0.672325 0.092041 0.224609 0.539756 0.224609 1.09204C0.224609 1.64433 0.672325 2.09204 1.22461 2.09204V0.092041ZM42.7226 47.2024C43.1131 47.5929 43.7463 47.5929 44.1368 47.2024L50.5008 40.8384C50.8913 40.4479 50.8913 39.8147 50.5008 39.4242C50.1102 39.0337 49.4771 39.0337 49.0865 39.4242L43.4297 45.0811L37.7728 39.4242C37.3823 39.0337 36.7491 39.0337 36.3586 39.4242C35.9681 39.8147 35.9681 40.4479 36.3586 40.8384L42.7226 47.2024ZM1.22461 1.09204V2.09204H3.42969V1.09204V0.092041H1.22461V1.09204ZM43.4297 41.092H42.4297V46.4953H43.4297H44.4297V41.092H43.4297ZM3.42969 1.09204V2.09204C24.9688 2.09204 42.4297 19.5529 42.4297 41.092H43.4297H44.4297C44.4297 18.4484 26.0734 0.092041 3.42969 0.092041V1.09204Z" fill="black"/>
</svg>