<svg xmlns="http://www.w3.org/2000/svg" width="289" height="289" viewBox="0 0 289 289" fill="none">
  <path d="M77.5031 221.688C74.8798 213.44 72.401 205.261 70.7866 196.845C70.4137 194.9 70.0897 192.947 69.6979 190.743C56.3559 206.514 47.3814 224.743 37.2765 242.634C26.0134 229.869 17.2227 215.829 11.1215 200.174C-2.67531 164.772 -3.25336 129.035 10.3292 93.549C38.5959 19.699 118.41 -17.3654 191.414 8.15719C260.77 32.4042 290.572 98.5594 288.351 147.521C287.266 147.521 286.173 147.521 285.079 147.521C281.241 147.52 277.4 147.447 273.565 147.554C272.122 147.595 271.914 146.971 271.874 145.76C271.742 141.708 271.614 137.652 271.318 133.61C270.703 125.223 269.009 117.03 266.64 108.981C261.68 92.1312 253.581 76.9536 242.462 63.4697C234.083 53.3086 224.369 44.6376 213.334 37.461C201.539 29.7903 188.856 24.2678 175.279 20.819C167.917 18.9488 160.44 17.8275 152.853 17.3443C131.394 15.9774 110.9 19.7837 91.3766 28.8815C79.6008 34.3689 68.9324 41.5529 59.3095 50.3497C46.3079 62.2351 36.1526 76.2354 28.8354 92.3145C23.1729 104.758 19.607 117.812 18.1288 131.448C15.9023 151.986 18.3748 171.916 25.5678 191.248C28.0413 197.896 31.0834 204.274 34.6032 210.419C34.82 210.798 35.0828 211.149 35.4797 211.748C36.0938 210.762 36.6389 209.939 37.1332 209.085C43.9215 197.367 51.6099 186.292 60.3585 175.982C62.9402 172.94 65.5989 169.963 68.2524 166.984C69.5453 165.532 69.4585 165.065 67.6479 164.399C63.9627 163.043 60.2744 161.696 56.5973 160.318C52.2623 158.693 48.8845 153.79 48.8807 149.138C48.8745 141.419 48.9059 133.701 48.8504 125.982C48.8421 124.827 49.2497 124.38 50.2756 124.003C61.9166 119.726 73.5412 115.404 85.1583 111.061C85.7499 110.84 86.3091 110.398 86.7556 109.933C92.0096 104.463 97.247 98.9766 102.472 93.4779C104.822 91.0043 107.128 88.4884 109.465 86.0018C110.776 84.6068 113.318 85.2982 113.817 87.2145C115.4 93.2897 116.947 99.3744 118.515 105.454C118.888 106.902 119.288 108.342 119.676 109.786C119.813 109.828 119.95 109.869 120.087 109.91C138.219 81.7672 156.351 53.6248 174.483 25.4824C174.59 25.5128 174.697 25.5432 174.805 25.5736C175.004 27.6753 175.229 29.7749 175.399 31.8791C176.231 42.1832 177.047 52.4887 177.872 62.7933C178.121 65.9014 178.412 69.0064 178.623 72.1171C178.69 73.0955 179.126 73.6005 179.977 74.0179C189.46 78.6704 198.918 83.3726 208.404 88.018C209.295 88.4542 209.645 88.969 209.591 89.9566C209.516 91.3354 209.624 92.7241 209.56 94.1041C209.516 95.0475 209.792 95.5332 210.75 95.8203C217.805 97.934 224.843 100.106 231.886 102.26C235.133 103.254 238.366 104.294 241.632 105.217C242.809 105.55 242.878 106.026 242.347 107.007C239.808 111.7 237.311 116.417 234.796 121.124C230.709 128.773 226.602 136.413 222.552 144.082C222.027 145.077 221.435 145.473 220.297 145.471C201.325 145.436 182.352 145.445 163.38 145.445C162.948 145.445 162.516 145.445 161.837 145.445C162.09 144.803 162.22 144.349 162.436 143.942C164.815 139.465 167.232 135.007 169.581 130.513C170.196 129.337 170.9 128.799 172.334 128.806C185.129 128.874 197.924 128.834 210.719 128.855C211.554 128.856 212.114 128.676 212.531 127.88C214.489 124.136 216.495 120.418 218.477 116.688C218.555 116.54 218.565 116.355 218.65 116.016C216.706 115.388 214.798 114.753 212.878 114.154C206.69 112.225 200.502 110.296 194.304 108.401C193.438 108.136 193.116 107.694 193.143 106.776C193.202 104.77 193.073 102.756 193.188 100.755C193.264 99.4374 192.787 98.7716 191.63 98.2103C183.639 94.3351 175.682 90.3916 167.714 86.4697C166.288 85.7677 164.823 85.1318 163.459 84.3232C163.002 84.0529 162.548 83.3492 162.529 82.8273C162.433 80.1985 162.483 77.5642 162.476 74.9319C162.475 74.5888 162.44 74.2457 162.089 73.6393C161.954 73.903 161.836 74.1783 161.68 74.4286C149.828 93.3778 137.979 112.329 126.098 131.259C125.551 132.131 125.427 132.887 125.682 133.87C127.855 142.232 129.995 150.603 132.116 158.978C132.357 159.93 132.83 160.486 133.747 160.863C142.329 164.393 150.749 168.267 158.768 172.991C170.509 179.908 180.487 188.782 188.398 199.999C198.022 213.643 204.06 228.845 207.699 245.104C209.503 253.162 210.63 261.319 211.146 269.558C211.231 270.901 211.801 270.867 212.754 270.568C220.206 268.236 222.841 263.302 222.476 255.031C222.202 248.835 219.854 243.145 218.139 237.309C215.039 226.757 211.844 216.233 208.703 205.693C207.189 200.616 205.463 195.588 204.261 190.436C201.455 178.414 206.251 165.123 216.916 158.387C224.27 153.742 232.085 153.741 240.007 156.963C240.803 157.287 240.945 157.735 240.538 158.515C238.336 162.734 236.162 166.968 233.996 171.206C233.668 171.849 233.282 171.98 232.611 171.722C228.656 170.201 225.251 171.919 223.132 174.495C219.84 178.5 218.943 183.072 220.419 188.035C224.913 203.146 229.518 218.224 233.972 233.348C235.566 238.762 237.208 244.206 238.188 249.751C239.396 256.585 239.004 263.453 236.269 269.986C233.096 277.567 227.502 282.571 219.951 285.411C215.923 286.926 211.779 287.869 207.439 287.864C204.002 287.861 200.563 287.975 197.129 288.113C195.991 288.159 195.599 287.83 195.592 286.628C195.569 281.946 195.521 277.261 195.333 272.584C194.564 253.469 190.248 235.259 181.179 218.386C174.215 205.43 164.488 195.059 151.859 187.53C143.283 182.419 134.144 178.528 125.029 174.572C124.584 174.378 124.159 174.093 123.694 173.994C120.183 173.246 118.88 170.867 118.03 167.481C114.029 151.546 109.764 135.679 105.589 119.789C105.208 118.339 104.799 116.895 104.337 115.208C103.801 115.693 103.411 116.018 103.052 116.375C100.381 119.029 97.7311 121.707 95.033 124.334C94.5466 124.807 93.9086 125.194 93.2714 125.426C84.1928 128.738 75.1053 132.025 66.0098 135.289C65.0938 135.618 64.7004 136.093 64.7077 137.12C64.7255 139.615 64.6438 142.112 64.5452 144.606C64.5063 145.591 64.8104 146.114 65.7883 146.474C72.2071 148.838 78.5887 151.304 85.0116 153.656C86.1747 154.082 86.0109 154.817 85.8852 155.655C84.7567 163.172 84.4284 170.738 84.6232 178.326C84.8568 187.426 86.4481 196.331 89.0099 205.025C91.5136 213.521 94.3256 221.926 97.0584 230.352C97.5273 231.798 97.6101 233.166 97.3998 234.671C96.2777 242.698 95.2468 250.739 94.1825 258.775C92.9368 268.179 91.6994 277.585 90.4078 286.983C90.3519 287.39 89.7934 288.042 89.4623 288.046C84.0371 288.116 78.6107 288.1 73.1847 288.099C73.1032 288.099 73.0218 288.043 72.8001 287.962C72.8001 287.591 72.7343 287.158 72.8097 286.75C74.665 276.727 76.6104 266.719 78.3688 256.678C79.1588 252.166 79.583 247.589 80.1683 243.041C80.4921 240.524 80.8837 238.013 81.0901 235.487C81.1888 234.279 81.1305 232.979 80.791 231.827C79.7967 228.454 78.6254 225.134 77.5031 221.688Z" fill="#6137CD"/>
  <path d="M125.4 270.707C125.309 271.43 125.233 272.038 125.13 272.87C125.783 272.87 126.295 272.871 126.807 272.87C135.011 272.87 143.216 272.87 151.42 272.867C153.144 272.866 153.146 272.859 153.147 274.649C153.149 278.619 153.1 282.59 153.177 286.558C153.201 287.831 152.767 288.125 151.58 288.122C136.848 288.086 122.115 288.098 107.383 288.094C106.912 288.094 106.442 288.048 105.81 288.015C106.118 285.859 106.378 283.843 106.697 281.837C108.086 273.135 109.493 264.436 110.89 255.736C111.419 252.44 111.938 249.143 112.469 245.848C112.582 245.146 112.627 244.478 113.672 244.467C118.653 244.413 123.634 244.288 128.616 244.195C128.825 244.191 129.036 244.253 129.489 244.32C128.124 253.123 126.77 261.858 125.4 270.707Z" fill="#6137CD"/>
</svg>