<svg width="138" height="32" viewBox="0 0 138 32" fill="none" xmlns="http://www.w3.org/2000/svg">
<path d="M8.65714 24.6186C8.3624 23.7021 8.08389 22.7934 7.90251 21.8582C7.86061 21.6422 7.8242 21.4251 7.78019 21.1803C6.28114 22.9326 5.27281 24.958 4.13747 26.9459C2.872 25.5275 1.88431 23.9675 1.19881 22.2281C-0.351332 18.2947 -0.416279 14.3239 1.1098 10.3811C4.28571 2.17569 13.2532 -1.94251 21.4557 0.893292C29.2481 3.58736 32.5966 10.9378 32.347 16.3779C32.2252 16.3779 32.1023 16.3779 31.9794 16.3778C31.5482 16.3777 31.1167 16.3697 30.6857 16.3816C30.5236 16.3861 30.5002 16.3168 30.4958 16.1822C30.4809 15.732 30.4666 15.2814 30.4333 14.8323C30.3641 13.9004 30.1739 12.9901 29.9077 12.0958C29.3504 10.2236 28.4405 8.53721 27.1912 7.03903C26.2498 5.91003 25.1583 4.9466 23.9184 4.14922C22.5932 3.29693 21.1682 2.68333 19.6428 2.30013C18.8156 2.09234 17.9755 1.96776 17.1231 1.91406C14.7121 1.76219 12.4094 2.18511 10.2159 3.19595C8.89283 3.80566 7.69418 4.60386 6.61299 5.58127C5.1522 6.90185 4.0112 8.45741 3.18907 10.244C2.55286 11.6265 2.1522 13.0769 1.98612 14.592C1.73597 16.8741 2.01376 19.0884 2.82194 21.2364C3.09985 21.9751 3.44164 22.6837 3.8371 23.3665C3.86147 23.4085 3.89099 23.4476 3.93558 23.5141C4.00459 23.4046 4.06583 23.3131 4.12137 23.2183C4.88407 21.9162 5.7479 20.6857 6.73085 19.5402C7.02092 19.2021 7.31964 18.8714 7.61777 18.5404C7.76303 18.3791 7.75328 18.3272 7.54986 18.2532C7.13581 18.1025 6.7214 17.9528 6.30827 17.7997C5.8212 17.6192 5.44169 17.0744 5.44126 16.5576C5.44056 15.7 5.44409 14.8423 5.43786 13.9848C5.43693 13.8563 5.48272 13.8067 5.59799 13.7648C6.90591 13.2896 8.212 12.8094 9.51725 12.3269C9.58371 12.3023 9.64654 12.2532 9.69671 12.2015C10.287 11.5938 10.8755 10.9842 11.4625 10.3732C11.7266 10.0984 11.9857 9.81883 12.2483 9.54255C12.3956 9.38755 12.6811 9.46438 12.7372 9.67729C12.915 10.3523 13.0889 11.0284 13.265 11.7038C13.307 11.8647 13.3519 12.0248 13.3955 12.1852C13.4109 12.1898 13.4263 12.1944 13.4416 12.1989C15.4789 9.07205 17.5161 5.94516 19.5533 2.81828C19.5654 2.82166 19.5774 2.82504 19.5895 2.82842C19.6119 3.06194 19.6371 3.29522 19.6562 3.52901C19.7497 4.6739 19.8414 5.81893 19.9342 6.96387C19.9621 7.30921 19.9948 7.65421 20.0185 7.99983C20.026 8.10854 20.075 8.16465 20.1706 8.21103C21.2361 8.72797 22.2988 9.25042 23.3646 9.76656C23.4647 9.81504 23.504 9.87223 23.498 9.98197C23.4895 10.1352 23.5016 10.2895 23.4944 10.4428C23.4895 10.5476 23.5205 10.6016 23.6282 10.6335C24.4208 10.8683 25.2116 11.1097 26.0029 11.349C26.3677 11.4594 26.731 11.575 27.0979 11.6776C27.2301 11.7145 27.2379 11.7674 27.1783 11.8764C26.8929 12.3979 26.6124 12.922 26.3298 13.4449C25.8706 14.2949 25.4092 15.1437 24.9541 15.9958C24.8951 16.1063 24.8287 16.1504 24.7008 16.1501C22.5692 16.1462 20.4375 16.1473 18.3059 16.1472C18.2573 16.1472 18.2088 16.1472 18.1325 16.1472C18.1609 16.0759 18.1755 16.0255 18.1998 15.9803C18.4672 15.4828 18.7386 14.9874 19.0026 14.4881C19.0717 14.3574 19.1508 14.2977 19.3119 14.2985C20.7494 14.306 22.1871 14.3016 23.6247 14.3039C23.7185 14.3041 23.7814 14.2841 23.8282 14.1956C24.0482 13.7796 24.2736 13.3666 24.4963 12.9521C24.5051 12.9356 24.5062 12.915 24.5158 12.8774C24.2973 12.8076 24.0829 12.7371 23.8672 12.6705C23.172 12.4561 22.4767 12.2418 21.7803 12.0313C21.683 12.0019 21.6469 11.9528 21.6499 11.8508C21.6566 11.6279 21.642 11.4041 21.655 11.1818C21.6635 11.0354 21.6099 10.9614 21.4799 10.899C20.5821 10.4685 19.688 10.0303 18.7928 9.59453C18.6325 9.51654 18.468 9.44588 18.3147 9.35604C18.2634 9.32601 18.2124 9.24782 18.2102 9.18984C18.1995 8.89774 18.2051 8.60505 18.2043 8.31258C18.2042 8.27445 18.2003 8.23634 18.1609 8.16896C18.1456 8.19826 18.1324 8.22885 18.1148 8.25666C16.7832 10.3621 15.452 12.4677 14.1171 14.5711C14.0556 14.6679 14.0417 14.7519 14.0703 14.8611C14.3144 15.7902 14.5549 16.7203 14.7932 17.6509C14.8203 17.7566 14.8734 17.8185 14.9765 17.8604C15.9407 18.2525 16.8867 18.6829 17.7877 19.2078C19.1068 19.9764 20.2279 20.9624 21.1168 22.2087C22.1981 23.7247 22.8765 25.4138 23.2854 27.2203C23.488 28.1156 23.6146 29.0219 23.6727 29.9374C23.6822 30.0865 23.7463 30.0827 23.8533 30.0496C24.6906 29.7904 24.9866 29.2423 24.9456 28.3233C24.9148 27.6349 24.651 27.0027 24.4583 26.3542C24.11 25.1817 23.7511 24.0124 23.3981 22.8414C23.2281 22.2773 23.0342 21.7186 22.899 21.1462C22.5838 19.8104 23.1227 18.3337 24.321 17.5852C25.1472 17.0691 26.0252 17.069 26.9153 17.427C27.0048 17.463 27.0207 17.5127 26.975 17.5995C26.7276 18.0682 26.4833 18.5386 26.24 19.0095C26.2031 19.081 26.1597 19.0956 26.0843 19.0669C25.64 18.8979 25.2574 19.0887 25.0194 19.375C24.6495 19.8199 24.5486 20.328 24.7145 20.8794C25.2195 22.5584 25.7368 24.2337 26.2372 25.9141C26.4164 26.5157 26.6009 27.1205 26.711 27.7366C26.8467 28.496 26.8026 29.259 26.4954 29.9849C26.1388 30.8272 25.5103 31.3832 24.6619 31.6988C24.2094 31.8671 23.7437 31.9718 23.2561 31.9713C22.87 31.9709 22.4836 31.9836 22.0977 31.999C21.9699 32.0041 21.9258 31.9675 21.9251 31.834C21.9225 31.3138 21.9171 30.7932 21.896 30.2735C21.8095 28.1497 21.3247 26.1265 20.3057 24.2517C19.5233 22.8121 18.4304 21.6598 17.0114 20.8233C16.0479 20.2553 15.021 19.8231 13.997 19.3835C13.9469 19.362 13.8992 19.3303 13.847 19.3193C13.4525 19.2361 13.3061 18.9718 13.2106 18.5957C12.7611 16.8251 12.2818 15.0622 11.8127 13.2966C11.7699 13.1355 11.724 12.9751 11.6721 12.7876C11.6119 12.8415 11.5681 12.8776 11.5277 12.9173C11.2275 13.2122 10.9299 13.5098 10.6267 13.8016C10.5721 13.8542 10.5004 13.8971 10.4288 13.923C9.40876 14.2909 8.38774 14.6562 7.3658 15.0189C7.26289 15.0554 7.21869 15.1081 7.21951 15.2223C7.22151 15.4995 7.21233 15.777 7.20126 16.0541C7.19689 16.1635 7.23105 16.2216 7.34092 16.2616C8.0621 16.5242 8.77912 16.7983 9.50075 17.0596C9.63144 17.1069 9.61303 17.1886 9.59891 17.2816C9.47212 18.1168 9.43524 18.9575 9.45712 19.8006C9.48337 20.8117 9.66216 21.8011 9.95 22.7671C10.2313 23.7111 10.5472 24.645 10.8543 25.5812C10.907 25.7418 10.9163 25.8939 10.8926 26.0611C10.7666 26.953 10.6507 27.8464 10.5312 28.7392C10.3912 29.7841 10.2522 30.8292 10.107 31.8734C10.1008 31.9186 10.038 31.9911 10.0008 31.9916C9.39127 31.9993 8.78159 31.9975 8.17194 31.9974C8.16279 31.9974 8.15364 31.9912 8.12873 31.9822C8.12873 31.941 8.12134 31.8928 8.12981 31.8476C8.33827 30.7338 8.55684 29.6219 8.7544 28.5063C8.84317 28.005 8.89083 27.4964 8.95659 26.991C8.99297 26.7114 9.03697 26.4324 9.06016 26.1517C9.07125 26.0175 9.0647 25.8731 9.02655 25.7451C8.91484 25.3703 8.78324 25.0014 8.65714 24.6186Z" fill="#45E1A7"/>
<path d="M14.0386 30.065C14.0284 30.1454 14.0199 30.2129 14.0083 30.3054C14.0817 30.3054 14.1392 30.3054 14.1967 30.3054C15.1185 30.3053 16.0403 30.3053 16.9621 30.305C17.1558 30.3049 17.156 30.3041 17.1561 30.503C17.1563 30.9441 17.1509 31.3853 17.1595 31.8262C17.1622 31.9676 17.1134 32.0003 16.9801 32C15.3248 31.996 13.6695 31.9973 12.0143 31.9968C11.9614 31.9968 11.9086 31.9917 11.8376 31.988C11.8722 31.7485 11.9013 31.5246 11.9373 31.3017C12.0933 30.3348 12.2514 29.3683 12.4084 28.4016C12.4678 28.0354 12.5261 27.6691 12.5857 27.3029C12.5984 27.225 12.6035 27.1507 12.7209 27.1495C13.2806 27.1435 13.8402 27.1296 14.3999 27.1193C14.4235 27.1188 14.4471 27.1257 14.498 27.1332C14.3447 28.1113 14.1926 29.0818 14.0386 30.065Z" fill="#45E1A7"/>
<path d="M44.3848 19.2232C44.2957 20.5599 43.8687 21.3788 43.1038 22.0917C42.339 22.7972 41.0713 23.1499 39.7124 23.1499C38.0862 23.1499 36.8312 22.6524 35.9476 21.6573C35.0639 20.6548 34.6221 19.2328 34.6221 17.3912C34.6221 15.4234 35.0825 13.89 36.0033 12.791C36.9315 11.692 38.2198 11.1424 39.8684 11.1424C41.153 11.1424 42.3836 11.4915 43.1484 12.1895C43.9133 12.8801 44.2957 13.8083 44.2957 14.9741V15.0187H42.3118C42.3118 14.3355 42.0234 13.7674 41.5779 13.3145C41.1323 12.8541 40.3733 12.6239 39.7124 12.6239C38.8139 12.6239 38.1047 13.0063 37.5849 13.7712C37.0726 14.5286 36.8164 15.5682 36.8164 16.89C36.8164 18.4271 37.054 19.5892 37.5293 20.3764C38.0119 21.1561 38.7248 21.5459 39.6679 21.5459C40.403 21.5459 41.1991 21.3194 41.6447 20.8665C42.0902 20.4061 42.3924 19.9955 42.4072 19.2232H44.3848Z" fill="white"/>
<path d="M50.602 12.6796C49.6258 12.6796 49.068 13.0917 48.4294 13.916C47.7982 14.7328 47.4826 15.8467 47.4826 17.2575C47.4826 18.6239 47.7871 19.6821 48.396 20.4321C49.0049 21.1746 49.6078 21.5459 50.5574 21.5459C51.676 21.5459 52.3232 21.1524 52.9469 20.3652C53.5781 19.5707 53.8937 18.4754 53.8937 17.0793C53.8937 15.6833 53.5893 14.6028 52.9804 13.838C52.3715 13.0657 51.702 12.6796 50.602 12.6796ZM45.3106 17.3689C45.3106 15.4531 45.8192 13.942 46.8366 12.8355C47.8613 11.7217 48.8421 11.1647 50.602 11.1647C52.3842 11.1647 53.5633 11.6845 54.5509 12.7241C55.5385 13.7563 56.0323 15.2006 56.0323 17.0571C56.0323 18.9803 55.52 20.4766 54.4952 21.5459C53.4779 22.6152 52.8342 23.1499 50.4015 23.1499C48.701 23.1499 47.7685 22.6338 46.7809 21.6016C45.8007 20.5694 45.3106 19.1585 45.3106 17.3689Z" fill="white"/>
<path d="M59.8319 22.8714H57.7156V13.7934C57.7156 13.5855 57.7304 11.8442 57.7156 11.4209C57.7453 11.9407 57.7007 10.9902 57.7156 11.4209H59.7651L59.8319 13.359C60.1289 12.7278 60.4297 12.2024 61.0967 11.7773C61.5375 11.4964 61.9175 11.2872 62.6898 11.2872C63.4621 11.2872 64.0339 11.4506 64.6502 11.7773C65.274 12.1041 65.647 12.6759 66.1445 13.359C66.5814 12.6355 67.1913 12.0392 68.0001 11.6095C68.4563 11.3671 68.8905 11.2872 69.6702 11.2872C70.4722 11.2872 70.9966 11.4543 71.6575 11.7885C72.3184 12.1226 72.7937 12.5682 73.0833 13.1251C73.2169 13.385 73.3097 13.7192 73.3617 14.1276C73.4211 14.536 73.4508 15.1152 73.4508 15.8652V22.8714H71.4013V15.5756C71.4013 14.6845 71.1897 14.0162 70.7664 13.5707C70.3506 13.1251 69.6534 12.7882 68.8853 12.9245C68.3039 13.0276 68.008 13.2812 67.6019 13.7043C67.0001 14.3314 66.7888 14.9296 66.7888 15.7761V22.8714H64.6502V15.9543C64.6502 14.8999 64.446 14.1239 64.0376 13.6264C63.6292 13.1288 62.9282 12.8043 62.1329 12.8801C61.4584 12.9443 61.0711 13.2059 60.6005 13.6932C59.9525 14.364 59.8319 14.9816 59.8319 15.9543V22.8714Z" fill="white"/>
<path d="M77.9017 16.9123C77.9017 18.3677 78.1987 19.5224 78.7928 20.3764C79.3943 21.2303 79.7088 21.5312 80.548 21.6573C81.5849 21.8131 82.5582 21.26 83.1597 20.4655C83.7612 19.6709 84.0619 18.6016 84.0619 17.2575C84.0619 15.8021 83.7649 14.6511 83.1708 13.8046C82.5842 12.958 81.7948 12.4364 80.7509 12.5571C79.9171 12.6534 79.4128 12.9321 78.8039 13.7266C78.2024 14.5137 77.9017 15.5756 77.9017 16.9123ZM75.8076 27.6159L75.7742 11.4209H77.9017V13.1363C78.3324 12.4679 78.6726 12.0483 79.4094 11.6387C79.9561 11.3348 80.3612 11.2162 80.9824 11.1424C82.5065 10.9614 83.7967 11.6697 84.6804 12.7241C85.5715 13.7712 86.017 15.2303 86.017 17.1016C86.017 19.0249 85.5863 20.4989 84.725 21.5236C83.871 22.541 82.5777 23.2388 81.0269 23.0496C80.4156 22.9751 80.1666 22.8863 79.5279 22.5595C78.8893 22.2254 78.3473 21.7427 77.9017 21.1115V27.6159H75.8076Z" fill="white"/>
<path d="M96.2384 22.8714H94.2335C94.2335 22.8714 94.2335 21.9948 94.2335 21.067C94.2335 21.0818 94.2335 21.0373 94.2335 21.067C93.9439 21.7427 93.4835 22.2588 92.8523 22.6152C92.2285 22.9717 91.4637 23.1499 90.5577 23.1499C89.3993 23.1499 88.4711 22.8343 87.7731 22.2031C87.075 21.5719 86.726 20.7365 86.726 19.6969C86.726 18.4865 87.2087 17.5286 88.174 16.8231C89.1394 16.1103 90.4575 15.7538 92.1283 15.7538H94.1221V14.3615C94.1221 13.7452 93.929 13.2811 93.5429 12.9692C93.1641 12.6499 92.6035 12.4902 91.8609 12.4902C91.1555 12.4902 90.5948 12.6647 90.179 13.0137C89.7706 13.3627 89.5375 13.8257 89.4566 14.4506H87.5057V14.2724C87.5057 13.2625 87.8659 12.4902 88.5862 11.9556C89.3139 11.4135 90.3572 11.1424 91.7161 11.1424C93.2978 11.1424 94.4451 11.4246 95.158 11.989C95.8783 12.5459 96.2384 13.4519 96.2384 14.7068V22.8714ZM94.1221 17.1907H92.3399C91.2483 17.1907 90.4018 17.3949 89.8003 17.8033C89.1988 18.2043 88.8981 18.7687 88.8981 19.4964C88.8981 20.0533 89.1023 20.5175 89.5107 20.8887C89.9191 21.2526 90.4352 21.4345 91.059 21.4345C92.0466 21.4345 92.804 21.1709 93.3312 20.6437C93.8585 20.109 94.1221 19.3368 94.1221 18.3269V17.1907Z" fill="white"/>
<path d="M100.683 13.2922C100.943 12.6759 101.392 12.1895 102.031 11.833C102.677 11.4692 103.027 11.2872 103.873 11.2872C104.631 11.2872 105.321 11.4246 105.945 11.6994C106.576 11.9741 107.07 12.3528 107.426 12.8355C107.627 13.1028 107.768 13.4259 107.85 13.8046C107.939 14.1833 107.983 14.833 107.983 15.7538V22.8714H105.878V15.6424C105.878 14.6771 105.67 13.9679 105.254 13.515C104.846 13.062 104.204 12.8355 103.327 12.8355C102.436 12.8355 102.082 13.0421 101.53 13.5595C100.944 14.1079 100.683 14.666 100.683 15.4308V22.8714H98.567V11.4209H100.683V13.2922Z" fill="white"/>
<path d="M130.346 13.2922C130.606 12.6759 131.034 12.2399 131.694 11.833C132.328 11.4424 132.675 11.2872 133.521 11.2872C134.279 11.2872 134.969 11.4246 135.593 11.6994C136.224 11.9741 136.718 12.3528 137.075 12.8355C137.275 13.1028 137.416 13.4259 137.498 13.8046C137.587 14.1833 137.631 14.833 137.631 15.7538V22.8714H135.526V15.6424C135.526 14.6771 135.318 13.9679 134.903 13.515C134.494 13.062 133.852 12.8355 132.976 12.8355C132.084 12.8355 131.741 13.0458 131.193 13.5595C130.607 14.1079 130.346 14.666 130.346 15.4308V22.8714H128.23L128.208 11.4209H130.346V13.2922Z" fill="white"/>
<path d="M117.958 16.4425L115.553 9.15283L113.177 16.4425H117.958ZM111.112 22.8714H108.911L114.103 6.96041H117.088L122.28 22.8714H120.087L118.64 18.1491H112.801L111.112 22.8714Z" fill="#45E1A7"/>
<path d="M125.846 22.8714H123.651V6.44193H125.846V22.8714Z" fill="#45E1A7"/>
</svg>
