<svg width="114" height="113" viewBox="0 0 114 113" fill="none" xmlns="http://www.w3.org/2000/svg">
<path d="M84.546 1.79082C81.4135 0.32366 78.225 0.109058 75.326 1.17343L75.2877 1.18853C73.9779 1.68371 72.7739 2.42093 71.7383 3.36194L71.6242 3.46535C66.8365 7.94037 65.6427 16.583 68.6563 24.9703C70.8547 31.1086 74.9946 36.1005 79.7316 38.3237C82.8639 39.7943 86.056 40.0056 88.9639 38.9332L88.9952 38.9211C90.3051 38.426 91.5091 37.6887 92.5447 36.7477C97.4454 32.3042 98.6909 23.6147 95.6505 15.1047C93.4338 8.99279 89.2864 4.0142 84.546 1.79082ZM89.0161 45.6982C84.6824 46.5449 80.5849 47.3439 76.2497 46.0365C64.2656 42.403 57.0307 40.2111 49.4801 47.0574C41.9296 53.9037 43.3979 61.3245 45.8338 73.6157C46.7115 78.0646 45.5126 82.0712 44.2447 86.3168C42.7894 91.183 41.2856 96.2106 43.4375 101.47C44.1724 103.403 45.2703 105.179 46.6715 106.702C52.5136 113.145 62.2567 113.863 68.3869 108.305C71.55 105.437 73.9169 101.282 76.4213 96.8852C78.8291 92.6576 81.3186 88.2874 84.3801 85.5114C87.4417 82.7353 92.0251 80.6923 96.455 78.7199C101.062 76.6559 105.411 74.7203 108.583 71.8442C114.705 66.2938 114.932 56.5352 109.09 50.0922C107.704 48.5534 106.037 47.293 104.181 46.3791C99.1531 43.7207 93.9993 44.7264 89.0161 45.6982ZM24.8784 57.8856C29.4252 58.6385 33.4519 57.6718 36.2177 55.164C36.5951 54.8216 36.9466 54.4516 37.2693 54.057C42.2642 47.9734 39.4396 37.635 30.8268 30.507C27.2082 27.5082 22.979 25.494 18.9319 24.8267C14.3935 24.0759 10.3648 25.0476 7.60089 27.5538C7.22341 27.8962 6.8719 28.2663 6.54923 28.6609C1.55429 34.7444 4.37894 45.0829 12.9917 52.2108C16.6037 55.2059 20.8297 57.2165 24.8784 57.8856ZM57.6398 35.5863C58.064 35.3037 58.4666 34.99 58.8443 34.6478C61.6118 32.1384 62.9651 28.2268 62.6595 23.6282C62.3869 19.5352 60.7913 15.1396 58.1668 11.2425C51.9167 1.97877 41.9033 -1.84137 35.3581 2.53241C34.9339 2.81503 34.5313 3.12874 34.1536 3.471C31.3929 5.98075 30.0327 9.89532 30.337 14.4853C30.6061 18.5782 32.1979 22.9838 34.8343 26.8798C41.0844 36.1436 51.0978 39.9637 57.6398 35.5863ZM37.5263 85.5898L37.5431 85.5582C38.8907 82.772 38.9917 79.578 37.8337 76.3205C36.0769 71.382 31.5195 66.7784 25.6287 63.9882C17.475 60.1277 8.7056 60.5157 3.81032 64.9545C2.77231 65.8929 1.92104 67.0193 1.30087 68.2749L1.28405 68.3065C-0.0646722 71.0806 -0.15918 74.2818 0.998819 77.5393C2.75561 82.4779 7.31296 87.0814 13.2038 89.8717C21.3575 93.7322 30.1269 93.3441 35.0222 88.9054C36.0578 87.9679 36.9072 86.8432 37.5263 85.5898Z" fill="black" fill-opacity="0.06"/>
</svg>
