<svg width="55" height="55" viewBox="0 0 55 55" fill="none" xmlns="http://www.w3.org/2000/svg">
<path d="M14.517 41.8969C14.0247 40.366 13.5594 38.848 13.2564 37.2859C13.1865 36.925 13.1256 36.5624 13.0521 36.1534C10.548 39.0806 8.86365 42.464 6.96711 45.7846C4.85321 43.4152 3.20332 40.8094 2.05823 37.9038C-0.53122 31.3331 -0.639711 24.7002 1.90953 18.1139C7.21475 4.4071 22.1946 -2.47216 35.8964 2.26491C48.9134 6.76522 54.5067 19.0438 54.0899 28.1312C53.8863 28.1312 53.6811 28.1312 53.4759 28.1312C52.7554 28.131 52.0346 28.1175 51.3147 28.1374C51.044 28.145 51.0049 28.0291 50.9975 27.8043C50.9726 27.0523 50.9487 26.2995 50.893 25.5494C50.7776 23.9927 50.4597 22.472 50.0151 20.9781C49.0842 17.8507 47.5642 15.0337 45.4773 12.5311C43.9047 10.6451 42.0815 9.03578 40.0103 7.70378C37.7966 6.28008 35.4162 5.25508 32.8681 4.61497C31.4862 4.26786 30.083 4.05975 28.659 3.97006C24.6315 3.71636 20.7851 4.42283 17.1209 6.11139C14.9107 7.12988 12.9084 8.46325 11.1024 10.096C8.66217 12.3019 6.75618 14.9004 5.38285 17.8848C4.32009 20.1942 3.65082 22.6171 3.37339 25.148C2.95552 28.96 3.41957 32.659 4.76958 36.2472C5.23382 37.481 5.80476 38.6648 6.46537 39.8053C6.50607 39.8756 6.55539 39.9409 6.62988 40.052C6.74514 39.869 6.84745 39.7162 6.94022 39.5578C8.21428 37.3827 9.65727 35.3272 11.2993 33.4137C11.7838 32.849 12.2828 32.2966 12.7808 31.7436C13.0235 31.4742 13.0072 31.3875 12.6674 31.2638C11.9757 31.0122 11.2835 30.7621 10.5933 30.5063C9.77971 30.2048 9.14576 29.2947 9.14505 28.4314C9.14387 26.9988 9.14977 25.5661 9.13936 24.1336C9.1378 23.9191 9.21429 23.8362 9.40685 23.7663C11.5917 22.9725 13.7734 22.1702 15.9538 21.3642C16.0648 21.3232 16.1698 21.2411 16.2536 21.1548C17.2397 20.1396 18.2226 19.1213 19.2032 18.1007C19.6443 17.6416 20.0772 17.1746 20.5158 16.7131C20.7619 16.4542 21.2389 16.5825 21.3326 16.9382C21.6296 18.0658 21.92 19.1951 22.2143 20.3234C22.2843 20.5921 22.3594 20.8596 22.4322 21.1276C22.4579 21.1352 22.4836 21.1428 22.5093 21.1505C25.9124 15.9271 29.3155 10.7038 32.7186 5.48051C32.7387 5.48615 32.7589 5.4918 32.779 5.49744C32.8165 5.88753 32.8586 6.27723 32.8905 6.66776C33.0467 8.58024 33.1998 10.493 33.3548 12.4055C33.4015 12.9824 33.4561 13.5587 33.4957 14.1361C33.5081 14.3176 33.5901 14.4114 33.7498 14.4889C35.5295 15.3524 37.3048 16.2251 39.0852 17.0873C39.2524 17.1683 39.3181 17.2638 39.3079 17.4471C39.2938 17.703 39.3141 17.9608 39.302 18.2169C39.2938 18.392 39.3457 18.4822 39.5255 18.5354C40.8496 18.9277 42.1704 19.3309 43.4923 19.7308C44.1016 19.9151 44.7085 20.1082 45.3215 20.2796C45.5423 20.3413 45.5553 20.4296 45.4557 20.6117C44.9791 21.4828 44.5104 22.3582 44.0384 23.2319C43.2713 24.6517 42.5006 26.0695 41.7404 27.493C41.6418 27.6776 41.5308 27.7512 41.3172 27.7508C37.7564 27.7442 34.1956 27.746 30.6348 27.7459C30.5537 27.7459 30.4726 27.7459 30.3451 27.7459C30.3926 27.6267 30.4171 27.5426 30.4577 27.4671C30.9042 26.636 31.3577 25.8086 31.7986 24.9745C31.914 24.7562 32.0462 24.6564 32.3152 24.6578C34.7167 24.6703 37.1182 24.6629 39.5196 24.6667C39.6764 24.667 39.7815 24.6336 39.8597 24.4858C40.2271 23.791 40.6036 23.1009 40.9755 22.4085C40.9903 22.3811 40.9922 22.3467 41.0082 22.2839C40.6432 22.1673 40.2851 22.0494 39.9248 21.9383C38.7635 21.5801 37.602 21.2222 36.4387 20.8705C36.2761 20.8213 36.2158 20.7392 36.2209 20.5689C36.2319 20.1966 36.2077 19.8228 36.2293 19.4514C36.2435 19.2068 36.154 19.0832 35.9368 18.979C34.4372 18.2598 32.9436 17.5279 31.4481 16.7999C31.1805 16.6697 30.9056 16.5516 30.6495 16.4016C30.5639 16.3514 30.4786 16.2208 30.475 16.1239C30.457 15.636 30.4665 15.1471 30.4652 14.6585C30.465 14.5948 30.4584 14.5311 30.3925 14.4186C30.3671 14.4675 30.345 14.5186 30.3156 14.5651C28.0913 18.0821 25.8675 21.5995 23.6376 25.113C23.5349 25.2748 23.5116 25.4152 23.5595 25.5975C23.9673 27.1496 24.369 28.7032 24.7671 30.2578C24.8123 30.4343 24.9011 30.5376 25.0732 30.6076C26.6839 31.2627 28.2641 31.9817 29.7691 32.8585C31.9727 34.1424 33.8455 35.7895 35.3304 37.8713C37.1366 40.4037 38.2698 43.2253 38.9529 46.243C39.2914 47.7385 39.5028 49.2524 39.5998 50.7817C39.6156 51.0309 39.7227 51.0246 39.9015 50.9692C41.3002 50.5362 41.7947 49.6206 41.7261 48.0854C41.6747 46.9355 41.2341 45.8794 40.9122 44.7961C40.3303 42.8376 39.7307 40.8844 39.1411 38.9282C38.8571 37.9859 38.5332 37.0526 38.3075 36.0964C37.7808 33.865 38.6811 31.3983 40.6827 30.148C42.0629 29.2859 43.5296 29.2857 45.0165 29.8838C45.166 29.9439 45.1926 30.0269 45.1161 30.1718C44.7029 30.9548 44.2948 31.7406 43.8884 32.5272C43.8267 32.6466 43.7543 32.671 43.6283 32.6231C42.8862 32.3408 42.2469 32.6595 41.8494 33.1378C41.2315 33.881 41.063 34.7296 41.3401 35.6508C42.1837 38.4555 43.0478 41.254 43.8837 44.061C44.183 45.0659 44.4912 46.0762 44.6752 47.1055C44.9019 48.3739 44.8282 49.6485 44.3149 50.8612C43.7194 52.2682 42.6695 53.1969 41.2523 53.7241C40.4964 54.0053 39.7184 54.1802 38.9039 54.1794C38.2589 54.1787 37.6135 54.1999 36.9689 54.2255C36.7553 54.2341 36.6817 54.1729 36.6806 53.9499C36.6761 53.0809 36.6672 52.2114 36.6319 51.3433C36.4875 47.7955 35.6776 44.4158 33.9755 41.2841C32.6684 38.8793 30.8428 36.9544 28.4725 35.5571C26.863 34.6083 25.1476 33.8863 23.4369 33.1519C23.3533 33.116 23.2736 33.063 23.1864 33.0447C22.5274 32.9058 22.2829 32.4643 22.1234 31.8359C21.3724 28.8783 20.5718 25.9334 19.7882 22.9841C19.7167 22.7149 19.64 22.447 19.5534 22.1338C19.4528 22.2238 19.3796 22.2842 19.3122 22.3504C18.8108 22.8431 18.3135 23.3401 17.8071 23.8277C17.7158 23.9155 17.5961 23.9872 17.4765 24.0304C15.7726 24.6451 14.067 25.2552 12.3599 25.861C12.188 25.922 12.1142 26.0101 12.1155 26.2009C12.1189 26.6639 12.1035 27.1274 12.085 27.5903C12.0777 27.773 12.1348 27.8701 12.3183 27.9369C13.523 28.3756 14.7208 28.8334 15.9262 29.2699C16.1445 29.349 16.1138 29.4855 16.0902 29.6409C15.8784 31.0361 15.8168 32.4403 15.8534 33.8487C15.8972 35.5378 16.1959 37.1905 16.6767 38.8041C17.1466 40.3811 17.6744 41.941 18.1873 43.5049C18.2753 43.7732 18.2908 44.0273 18.2513 44.3066C18.0407 45.7965 17.8472 47.2888 17.6475 48.7802C17.4137 50.5258 17.1814 52.2715 16.939 54.0158C16.9285 54.0913 16.8237 54.2123 16.7616 54.2131C15.7433 54.2261 14.7249 54.2231 13.7065 54.2229C13.6912 54.2229 13.6759 54.2125 13.6343 54.1974C13.6343 54.1287 13.622 54.0482 13.6361 53.9726C13.9844 52.1122 14.3495 50.2548 14.6795 48.3911C14.8278 47.5537 14.9074 46.7041 15.0172 45.86C15.078 45.3929 15.1515 44.9269 15.1902 44.458C15.2088 44.2337 15.1978 43.9925 15.1341 43.7787C14.9475 43.1526 14.7277 42.5365 14.517 41.8969Z" fill="#6137CD"/>
<path d="M23.5066 50.995C23.4894 51.1291 23.4753 51.2419 23.4559 51.3965C23.5785 51.3965 23.6746 51.3965 23.7706 51.3965C25.3104 51.3963 26.8503 51.3964 28.3901 51.3957C28.7137 51.3956 28.7141 51.3944 28.7142 51.7266C28.7145 52.4634 28.7054 53.2004 28.7198 53.9369C28.7244 54.1731 28.6429 54.2278 28.4201 54.2272C25.6551 54.2206 22.89 54.2228 20.1249 54.222C20.0367 54.2219 19.9484 54.2134 19.8298 54.2073C19.8876 53.8072 19.9363 53.4331 19.9964 53.0607C20.2569 51.4456 20.521 49.8311 20.7833 48.2162C20.8826 47.6046 20.9799 46.9926 21.0795 46.381C21.1008 46.2508 21.1093 46.1267 21.3053 46.1246C22.2403 46.1148 23.1752 46.0915 24.1101 46.0742C24.1494 46.0735 24.1889 46.0849 24.2739 46.0974C24.0178 47.7313 23.7637 49.3525 23.5066 50.995Z" fill="#6137CD"/>
</svg>
