<svg xmlns="http://www.w3.org/2000/svg" width="685" height="185" viewBox="0 0 685 185" fill="none">
  <path d="M105.889 2.30176C106.441 2.30176 106.889 1.85404 106.889 1.30176C106.889 0.749474 106.441 0.301758 105.889 0.301758V2.30176ZM25.1262 157.159L25.878 156.5L25.1262 157.159ZM140.121 98.6003L140.269 99.5894L140.121 98.6003ZM246.573 183.023L246.505 182.026L246.573 183.023ZM406.146 43.6385L406.347 44.6181L406.146 43.6385ZM682.121 56.345C682.002 55.8057 681.468 55.4648 680.929 55.5836L672.14 57.5201C671.6 57.6389 671.259 58.1725 671.378 58.7119C671.497 59.2512 672.031 59.5921 672.57 59.4733L680.383 57.7519L682.104 65.5646C682.223 66.1039 682.756 66.4448 683.296 66.326C683.835 66.2071 684.176 65.6736 684.057 65.1342L682.121 56.345ZM105.889 1.30176V0.301758C65.1413 0.301722 29.885 22.6645 12.2463 53.5343C-5.41632 84.446 -5.39983 123.878 24.3745 157.818L25.1262 157.159L25.878 156.5C-3.2989 123.24 -3.28286 84.7435 13.9828 54.5265C31.2724 24.2676 65.873 2.30172 105.889 2.30176V1.30176ZM25.1262 157.159L24.3745 157.818C40.9771 176.744 60.8538 181.891 80.2133 179.078C99.5137 176.274 118.258 165.574 132.796 152.891C147.308 140.231 157.808 125.437 160.424 114.286C161.734 108.703 161.117 103.765 157.66 100.592C154.25 97.4621 148.39 96.3578 139.974 97.6112L140.121 98.6003L140.269 99.5894C148.501 98.3633 153.579 99.5607 156.308 102.066C158.99 104.528 159.714 108.558 158.477 113.829C156.001 124.385 145.862 138.838 131.482 151.384C117.128 163.906 98.7278 174.368 79.9258 177.099C61.1828 179.822 41.9992 174.877 25.878 156.5L25.1262 157.159ZM140.121 98.6003L139.974 97.6112C131.852 98.8209 125.865 101.179 121.862 104.457C117.827 107.76 115.854 111.962 115.737 116.685C115.62 121.368 117.327 126.482 120.474 131.692C123.627 136.91 128.26 142.283 134.095 147.506C157.412 168.374 200.329 187.193 246.641 184.021L246.573 183.023L246.505 182.026C200.762 185.159 158.368 166.545 135.429 146.015C129.701 140.888 125.211 135.664 122.186 130.658C119.157 125.644 117.632 120.908 117.736 116.735C117.839 112.603 119.537 108.945 123.129 106.004C126.752 103.038 132.348 100.769 140.269 99.5894L140.121 98.6003ZM246.573 183.023L246.641 184.021C272.704 182.236 289.068 173.949 300.594 162.086C312.073 150.272 318.676 134.98 325.36 119.424C332.068 103.812 338.869 87.9007 350.714 74.4818C362.527 61.0991 379.405 50.1477 406.347 44.6181L406.146 43.6385L405.945 42.6589C378.613 48.2687 361.337 59.4246 349.215 73.1583C337.124 86.8557 330.21 103.07 323.522 118.634C316.811 134.254 310.338 149.188 299.16 160.692C288.031 172.146 272.158 180.269 246.505 182.026L246.573 183.023ZM406.146 43.6385L406.347 44.6181C426.834 40.4134 442.866 42.2788 456.714 47.4092C470.592 52.5507 482.327 60.9877 494.219 70.0381C517.975 88.1185 542.23 108.568 584.795 108.568V107.568V106.568C542.993 106.568 519.245 86.5717 495.43 68.4466C483.536 59.3945 471.593 50.7889 457.409 45.5338C443.195 40.2676 426.781 38.3825 405.945 42.6589L406.146 43.6385ZM584.795 107.568V108.568C616.958 108.568 641.258 95.6992 657.5 82.8483C665.62 76.4235 671.733 69.9985 675.819 65.1766C677.862 62.7651 679.399 60.7532 680.428 59.3406C680.942 58.6342 681.329 58.0776 681.589 57.6957C681.719 57.5047 681.817 57.3574 681.884 57.2568C681.917 57.2065 681.942 57.168 681.959 57.1415C681.968 57.1282 681.974 57.118 681.979 57.1108C681.981 57.1072 681.983 57.1044 681.984 57.1024C681.985 57.1014 681.986 57.1004 681.986 57.0999C681.986 57.0991 681.987 57.0986 681.144 56.5602C680.301 56.0218 680.301 56.0216 680.301 56.0216C680.301 56.0219 680.301 56.0221 680.301 56.0227C680.3 56.0237 680.299 56.0255 680.297 56.0281C680.294 56.0333 680.289 56.0416 680.281 56.0529C680.267 56.0754 680.244 56.11 680.214 56.1562C680.153 56.2487 680.06 56.3878 679.936 56.5704C679.687 56.9356 679.312 57.4749 678.811 58.1633C677.808 59.5402 676.301 61.5132 674.293 63.8837C670.275 68.6258 664.256 74.9528 656.259 81.2799C640.267 93.933 616.392 106.568 584.795 106.568V107.568Z" fill="#45E1A7"/>
</svg>