<svg xmlns="http://www.w3.org/2000/svg" width="89" height="83" viewBox="0 0 89 83" fill="none">
  <g filter="url(#filter0_f_1069_3540)">
    <path d="M17.6138 59.3299L18.0907 59.4802L18.1992 59.1357L17.9063 58.9244L17.6138 59.3299ZM8.25282 71.4884L7.95874 71.084L6.58809 72.0808L8.28031 71.9876L8.25282 71.4884ZM21.7592 68.945L21.5662 68.4837L21.7592 68.945ZM29.0085 64.7566L29.1416 64.2747L28.9164 64.2124L28.7242 64.3453L29.0085 64.7566ZM14.6552 65.6122L15.0586 65.9076L14.6552 65.6122ZM32.8189 66.1055C33.0913 66.1505 33.3486 65.9661 33.3936 65.6937C33.4386 65.4212 33.2542 65.1639 32.9818 65.1189L32.8189 66.1055ZM73.9431 68.2229L73.6506 67.8173L73.3577 68.0286L73.4662 68.3731L73.9431 68.2229ZM81.0662 77.4746L81.0387 77.9739L82.7309 78.067L81.3602 77.0702L81.0662 77.4746ZM70.7887 75.5392L70.9818 75.078H70.9818L70.7887 75.5392ZM65.2725 72.3522L65.5568 71.9409L65.3646 71.808L65.1394 71.8702L65.2725 72.3522ZM76.1944 73.0033L76.5978 72.7078L76.1944 73.0033ZM4.97949 35.8007H5.47949C5.47949 19.3834 20.5237 5.97461 39.2128 5.97461V5.47461V4.97461C20.0888 4.97461 4.47949 18.7207 4.47949 35.8007H4.97949ZM17.6138 59.3299L17.9063 58.9244C10.3089 53.4448 5.47949 45.1128 5.47949 35.8007H4.97949H4.47949C4.47949 45.4761 9.49928 54.0938 17.3213 59.7355L17.6138 59.3299ZM8.25282 71.4884C8.28031 71.9876 8.28039 71.9876 8.28051 71.9876C8.28059 71.9876 8.28074 71.9876 8.2809 71.9876C8.28123 71.9876 8.28169 71.9875 8.28228 71.9875C8.28346 71.9874 8.28515 71.9874 8.28735 71.9872C8.29176 71.987 8.29822 71.9866 8.30667 71.9861C8.32358 71.9851 8.34849 71.9836 8.38102 71.9816C8.44608 71.9776 8.54165 71.9715 8.66476 71.9629C8.91097 71.9458 9.26741 71.9191 9.7103 71.8805C10.5958 71.8034 11.8283 71.679 13.2171 71.4892C15.9821 71.1114 19.4132 70.469 21.9523 69.4062L21.7592 68.945L21.5662 68.4837C19.1542 69.4933 15.8321 70.1226 13.0817 70.4984C11.7127 70.6855 10.4969 70.8083 9.6236 70.8843C9.18707 70.9223 8.83645 70.9485 8.59544 70.9653C8.47495 70.9737 8.38188 70.9797 8.3192 70.9835C8.28786 70.9855 8.26412 70.9869 8.24835 70.9878C8.24047 70.9883 8.23458 70.9886 8.23072 70.9888C8.2288 70.9889 8.22738 70.989 8.22648 70.9891C8.22603 70.9891 8.22571 70.9891 8.22552 70.9891C8.22542 70.9891 8.22537 70.9891 8.22533 70.9891C8.22531 70.9891 8.22533 70.9891 8.25282 71.4884ZM21.7592 68.945L21.9523 69.4062C23.4987 68.7589 25.3388 67.6942 26.7782 66.8024C27.5011 66.3545 28.1288 65.9465 28.576 65.6504C28.7996 65.5023 28.9783 65.382 29.1013 65.2986C29.1628 65.257 29.2104 65.2245 29.2427 65.2023C29.2589 65.1912 29.2713 65.1827 29.2797 65.1769C29.2839 65.1741 29.2871 65.1718 29.2893 65.1703C29.2904 65.1696 29.2912 65.169 29.2918 65.1686C29.2921 65.1684 29.2923 65.1682 29.2925 65.1681C29.2926 65.1681 29.2926 65.168 29.2927 65.168C29.2927 65.1679 29.2928 65.1679 29.0085 64.7566C28.7242 64.3453 28.7242 64.3453 28.7242 64.3453C28.7242 64.3453 28.7241 64.3453 28.7241 64.3454C28.724 64.3454 28.7238 64.3455 28.7236 64.3457C28.7232 64.346 28.7225 64.3465 28.7215 64.3471C28.7196 64.3484 28.7167 64.3504 28.7128 64.3531C28.705 64.3585 28.6932 64.3666 28.6777 64.3772C28.6466 64.3986 28.6003 64.4302 28.5401 64.4709C28.4198 64.5525 28.2442 64.6707 28.0238 64.8166C27.583 65.1086 26.9639 65.5109 26.2515 65.9524C24.8202 66.8391 23.0358 67.8686 21.5662 68.4837L21.7592 68.945ZM17.6138 59.3299C17.1369 59.1797 17.1369 59.1796 17.1369 59.1796C17.1369 59.1796 17.1369 59.1796 17.1369 59.1796C17.1369 59.1797 17.1368 59.1798 17.1368 59.18C17.1367 59.1803 17.1365 59.1809 17.1363 59.1817C17.1357 59.1833 17.1349 59.1858 17.1338 59.1893C17.1316 59.1962 17.1282 59.2068 17.1237 59.2209C17.1146 59.2491 17.1008 59.2912 17.0826 59.346C17.0462 59.4556 16.9921 59.6155 16.9216 59.8152C16.7807 60.2147 16.575 60.7718 16.3164 61.401C15.7959 62.6679 15.0745 64.1933 14.2518 65.3168L14.6552 65.6122L15.0586 65.9076C15.9544 64.6844 16.7123 63.0686 17.2414 61.7811C17.5077 61.133 17.7194 60.5596 17.8647 60.1479C17.9374 59.9419 17.9935 59.7761 18.0316 59.6612C18.0507 59.6038 18.0653 59.5591 18.0752 59.5285C18.0801 59.5132 18.0839 59.5014 18.0865 59.4933C18.0878 59.4892 18.0888 59.4861 18.0895 59.4839C18.0898 59.4828 18.0901 59.482 18.0903 59.4813C18.0904 59.481 18.0905 59.4808 18.0905 59.4806C18.0906 59.4805 18.0906 59.4804 18.0906 59.4803C18.0906 59.4803 18.0907 59.4802 17.6138 59.3299ZM14.6552 65.6122L14.2518 65.3168C13.3344 66.5696 11.7744 68.0059 10.4158 69.1461C9.74166 69.7119 9.12626 70.1972 8.67949 70.541C8.4562 70.7128 8.2753 70.8491 8.15054 70.9422C8.08816 70.9887 8.03984 71.0245 8.0073 71.0484C7.99103 71.0604 7.9787 71.0694 7.97054 71.0754C7.96645 71.0784 7.96341 71.0806 7.96144 71.082C7.96045 71.0828 7.95973 71.0833 7.95928 71.0836C7.95905 71.0838 7.9589 71.0839 7.95881 71.084C7.95876 71.084 7.95875 71.084 7.95872 71.084C7.95872 71.084 7.95874 71.084 8.25282 71.4884C8.5469 71.8928 8.54695 71.8927 8.54702 71.8927C8.54706 71.8926 8.54715 71.8926 8.54724 71.8925C8.54743 71.8924 8.54768 71.8922 8.548 71.892C8.54864 71.8915 8.54955 71.8908 8.55073 71.89C8.55308 71.8882 8.55651 71.8857 8.56099 71.8825C8.56993 71.8759 8.58306 71.8663 8.60015 71.8537C8.63432 71.8286 8.68436 71.7916 8.74852 71.7437C8.87683 71.648 9.06172 71.5087 9.28934 71.3335C9.74438 70.9834 10.3712 70.4891 11.0587 69.9121C12.4235 68.7667 14.0647 67.265 15.0586 65.9076L14.6552 65.6122ZM32.9003 65.6122L32.9818 65.1189C31.6735 64.9029 30.3919 64.62 29.1416 64.2747L29.0085 64.7566L28.8753 65.2386C30.1596 65.5933 31.4757 65.8837 32.8189 66.1055L32.9003 65.6122ZM39.2128 5.47461V5.97461C54.7471 5.97461 67.7812 15.2501 71.7221 27.8114L72.1992 27.6617L72.6763 27.512C68.588 14.4812 55.1263 4.97461 39.2128 4.97461V5.47461ZM31.4585 50.3187H30.9585C30.9585 63.3946 42.9037 73.8948 57.5077 73.8948V73.3948V72.8948C43.3386 72.8948 31.9585 62.7319 31.9585 50.3187H31.4585ZM83.5569 50.3187H84.0569C84.0569 37.2427 72.1118 26.7426 57.5077 26.7426V27.2426V27.7426C71.6768 27.7426 83.0569 37.9055 83.0569 50.3187H83.5569ZM57.5077 27.2426V26.7426C42.9037 26.7426 30.9585 37.2427 30.9585 50.3187H31.4585H31.9585C31.9585 37.9055 43.3386 27.7426 57.5077 27.7426V27.2426ZM73.9431 68.2229L74.2356 68.6284C80.2145 64.3161 84.0569 57.7244 84.0569 50.3187H83.5569H83.0569C83.0569 57.3612 79.4049 63.6671 73.6506 67.8173L73.9431 68.2229ZM81.0662 77.4746C81.0937 76.9754 81.0937 76.9754 81.0937 76.9754C81.0936 76.9754 81.0936 76.9754 81.0936 76.9754C81.0934 76.9753 81.0932 76.9753 81.0929 76.9753C81.0922 76.9753 81.0912 76.9752 81.0897 76.9751C81.0869 76.975 81.0825 76.9747 81.0765 76.9744C81.0647 76.9737 81.0467 76.9726 81.023 76.9712C80.9756 76.9682 80.9051 76.9637 80.8137 76.9573C80.631 76.9446 80.3649 76.9247 80.0335 76.8958C79.3704 76.8381 78.4472 76.7449 77.4079 76.6029C75.3168 76.3171 72.8019 75.8399 70.9818 75.078L70.7887 75.5392L70.5957 76.0005C72.5429 76.8155 75.1668 77.3059 77.2725 77.5937C78.3316 77.7384 79.2715 77.8333 79.9467 77.8921C80.2845 77.9215 80.5564 77.9419 80.7444 77.9549C80.8384 77.9615 80.9114 77.9662 80.9612 77.9692C80.9861 77.9708 81.0052 77.9719 81.0182 77.9727C81.0247 77.9731 81.0297 77.9733 81.0331 77.9735C81.0348 77.9736 81.0361 77.9737 81.0371 77.9738C81.0375 77.9738 81.0379 77.9738 81.0382 77.9738C81.0383 77.9738 81.0384 77.9738 81.0385 77.9738C81.0386 77.9738 81.0387 77.9739 81.0662 77.4746ZM57.5077 73.3948V73.8948C60.2571 73.8948 62.9099 73.5236 65.4057 72.8341L65.2725 72.3522L65.1394 71.8702C62.7302 72.5358 60.167 72.8948 57.5077 72.8948V73.3948ZM70.7887 75.5392L70.9818 75.078C69.8727 74.6138 68.5215 73.8346 67.4333 73.1605C66.8925 72.8253 66.4224 72.5198 66.0878 72.2982C65.9205 72.1874 65.7872 72.0977 65.696 72.0359C65.6504 72.005 65.6153 71.981 65.5918 71.9649C65.58 71.9568 65.5711 71.9507 65.5653 71.9467C65.5623 71.9447 65.5601 71.9432 65.5587 71.9422C65.558 71.9417 65.5575 71.9414 65.5572 71.9411C65.557 71.941 65.5569 71.9409 65.5568 71.9409C65.5568 71.9409 65.5568 71.9409 65.5568 71.9409C65.5568 71.9409 65.5568 71.9409 65.2725 72.3522C64.9882 72.7635 64.9883 72.7635 64.9883 72.7636C64.9883 72.7636 64.9884 72.7636 64.9885 72.7637C64.9886 72.7638 64.9888 72.7639 64.989 72.7641C64.9895 72.7644 64.9901 72.7648 64.991 72.7654C64.9927 72.7666 64.9952 72.7683 64.9984 72.7705C65.0049 72.775 65.0143 72.7815 65.0267 72.79C65.0515 72.8069 65.0879 72.8317 65.1348 72.8636C65.2287 72.9272 65.365 73.019 65.5356 73.132C65.8766 73.3578 66.3553 73.6689 66.9067 74.0105C68.0029 74.6897 69.4098 75.5041 70.5957 76.0005L70.7887 75.5392ZM73.9431 68.2229C73.4662 68.3731 73.4662 68.3732 73.4663 68.3733C73.4663 68.3733 73.4663 68.3734 73.4663 68.3735C73.4664 68.3736 73.4664 68.3738 73.4665 68.3741C73.4667 68.3746 73.4669 68.3753 73.4672 68.3761C73.4677 68.3779 73.4685 68.3803 73.4695 68.3835C73.4715 68.3898 73.4744 68.3989 73.4783 68.4107C73.4859 68.4343 73.4971 68.4686 73.5117 68.5126C73.5409 68.6006 73.5839 68.7275 73.6395 68.885C73.7505 69.1998 73.9123 69.6381 74.1159 70.1334C74.5195 71.1157 75.1006 72.3559 75.791 73.2987L76.1944 73.0033L76.5978 72.7078C75.9805 71.8649 75.436 70.7149 75.0408 69.7534C74.845 69.2769 74.6892 68.8548 74.5825 68.5523C74.5292 68.4012 74.4882 68.2801 74.4607 68.1974C74.447 68.1561 74.4366 68.1243 74.4298 68.1031C74.4264 68.0926 74.4238 68.0846 74.4222 68.0795C74.4214 68.0769 74.4208 68.0751 74.4204 68.0739C74.4202 68.0733 74.4201 68.0729 74.42 68.0727C74.42 68.0726 74.42 68.0725 74.42 68.0725C74.42 68.0725 74.42 68.0725 74.42 68.0725C74.42 68.0725 74.42 68.0726 73.9431 68.2229ZM76.1944 73.0033L75.791 73.2987C76.5565 74.344 77.815 75.4945 78.8542 76.3667C79.379 76.8071 79.8573 77.1843 80.2045 77.4515C80.3783 77.5852 80.5194 77.6915 80.6175 77.7647C80.6665 77.8013 80.7048 77.8296 80.731 77.8489C80.7441 77.8585 80.7542 77.8659 80.7611 77.871C80.7645 77.8735 80.7672 77.8754 80.769 77.8768C80.77 77.8774 80.7707 77.878 80.7712 77.8783C80.7714 77.8785 80.7716 77.8787 80.7718 77.8788C80.7719 77.8788 80.7719 77.8789 80.772 77.8789C80.772 77.8789 80.7721 77.879 81.0662 77.4746C81.3602 77.0702 81.3603 77.0703 81.3603 77.0703C81.3603 77.0702 81.3603 77.0702 81.3602 77.0702C81.3602 77.0702 81.3601 77.0701 81.3599 77.07C81.3596 77.0697 81.3591 77.0694 81.3583 77.0688C81.3569 77.0678 81.3546 77.0661 81.3515 77.0639C81.3454 77.0594 81.3361 77.0526 81.3239 77.0436C81.2993 77.0255 81.2627 76.9984 81.2155 76.9632C81.121 76.8927 80.9838 76.7893 80.8144 76.659C80.4754 76.3981 80.0085 76.0299 79.4971 75.6007C78.4641 74.7338 77.2867 73.6486 76.5978 72.7078L76.1944 73.0033Z" fill="black"/>
  </g>
  <path d="M17.6138 59.3299L18.0907 59.4802L18.1992 59.1357L17.9063 58.9244L17.6138 59.3299ZM8.25282 71.4884L7.95874 71.084L6.58809 72.0808L8.28031 71.9876L8.25282 71.4884ZM21.7592 68.945L21.5662 68.4837L21.7592 68.945ZM29.0085 64.7566L29.1416 64.2747L28.9164 64.2124L28.7242 64.3453L29.0085 64.7566ZM14.6552 65.6122L15.0586 65.9076L14.6552 65.6122ZM32.8189 66.1055C33.0913 66.1505 33.3486 65.9661 33.3936 65.6937C33.4386 65.4212 33.2542 65.1639 32.9818 65.1189L32.8189 66.1055ZM73.9431 68.2229L73.6506 67.8173L73.3577 68.0286L73.4662 68.3731L73.9431 68.2229ZM81.0662 77.4746L81.0387 77.9739L82.7309 78.067L81.3602 77.0702L81.0662 77.4746ZM70.7887 75.5392L70.9818 75.078H70.9818L70.7887 75.5392ZM65.2725 72.3522L65.5568 71.9409L65.3646 71.808L65.1394 71.8702L65.2725 72.3522ZM76.1944 73.0033L76.5978 72.7078L76.1944 73.0033ZM4.97949 35.8007H5.47949C5.47949 19.3834 20.5237 5.97461 39.2128 5.97461V5.47461V4.97461C20.0888 4.97461 4.47949 18.7207 4.47949 35.8007H4.97949ZM17.6138 59.3299L17.9063 58.9244C10.3089 53.4448 5.47949 45.1128 5.47949 35.8007H4.97949H4.47949C4.47949 45.4761 9.49928 54.0938 17.3213 59.7355L17.6138 59.3299ZM8.25282 71.4884C8.28031 71.9876 8.28039 71.9876 8.28051 71.9876C8.28059 71.9876 8.28074 71.9876 8.2809 71.9876C8.28123 71.9876 8.28169 71.9875 8.28228 71.9875C8.28346 71.9874 8.28515 71.9874 8.28735 71.9872C8.29176 71.987 8.29822 71.9866 8.30667 71.9861C8.32358 71.9851 8.34849 71.9836 8.38102 71.9816C8.44608 71.9776 8.54165 71.9715 8.66476 71.9629C8.91097 71.9458 9.26741 71.9191 9.7103 71.8805C10.5958 71.8034 11.8283 71.679 13.2171 71.4892C15.9821 71.1114 19.4132 70.469 21.9523 69.4062L21.7592 68.945L21.5662 68.4837C19.1542 69.4933 15.8321 70.1226 13.0817 70.4984C11.7127 70.6855 10.4969 70.8083 9.6236 70.8843C9.18707 70.9223 8.83645 70.9485 8.59544 70.9653C8.47495 70.9737 8.38188 70.9797 8.3192 70.9835C8.28786 70.9855 8.26412 70.9869 8.24835 70.9878C8.24047 70.9883 8.23458 70.9886 8.23072 70.9888C8.2288 70.9889 8.22738 70.989 8.22648 70.9891C8.22603 70.9891 8.22571 70.9891 8.22552 70.9891C8.22542 70.9891 8.22537 70.9891 8.22533 70.9891C8.22531 70.9891 8.22533 70.9891 8.25282 71.4884ZM21.7592 68.945L21.9523 69.4062C23.4987 68.7589 25.3388 67.6942 26.7782 66.8024C27.5011 66.3545 28.1288 65.9465 28.576 65.6504C28.7996 65.5023 28.9783 65.382 29.1013 65.2986C29.1628 65.257 29.2104 65.2245 29.2427 65.2023C29.2589 65.1912 29.2713 65.1827 29.2797 65.1769C29.2839 65.1741 29.2871 65.1718 29.2893 65.1703C29.2904 65.1696 29.2912 65.169 29.2918 65.1686C29.2921 65.1684 29.2923 65.1682 29.2925 65.1681C29.2926 65.1681 29.2926 65.168 29.2927 65.168C29.2927 65.1679 29.2928 65.1679 29.0085 64.7566C28.7242 64.3453 28.7242 64.3453 28.7242 64.3453C28.7242 64.3453 28.7241 64.3453 28.7241 64.3454C28.724 64.3454 28.7238 64.3455 28.7236 64.3457C28.7232 64.346 28.7225 64.3465 28.7215 64.3471C28.7196 64.3484 28.7167 64.3504 28.7128 64.3531C28.705 64.3585 28.6932 64.3666 28.6777 64.3772C28.6466 64.3986 28.6003 64.4302 28.5401 64.4709C28.4198 64.5525 28.2442 64.6707 28.0238 64.8166C27.583 65.1086 26.9639 65.5109 26.2515 65.9524C24.8202 66.8391 23.0358 67.8686 21.5662 68.4837L21.7592 68.945ZM17.6138 59.3299C17.1369 59.1797 17.1369 59.1796 17.1369 59.1796C17.1369 59.1796 17.1369 59.1796 17.1369 59.1796C17.1369 59.1797 17.1368 59.1798 17.1368 59.18C17.1367 59.1803 17.1365 59.1809 17.1363 59.1817C17.1357 59.1833 17.1349 59.1858 17.1338 59.1893C17.1316 59.1962 17.1282 59.2068 17.1237 59.2209C17.1146 59.2491 17.1008 59.2912 17.0826 59.346C17.0462 59.4556 16.9921 59.6155 16.9216 59.8152C16.7807 60.2147 16.575 60.7718 16.3164 61.401C15.7959 62.6679 15.0745 64.1933 14.2518 65.3168L14.6552 65.6122L15.0586 65.9076C15.9544 64.6844 16.7123 63.0686 17.2414 61.7811C17.5077 61.133 17.7194 60.5596 17.8647 60.1479C17.9374 59.9419 17.9935 59.7761 18.0316 59.6612C18.0507 59.6038 18.0653 59.5591 18.0752 59.5285C18.0801 59.5132 18.0839 59.5014 18.0865 59.4933C18.0878 59.4892 18.0888 59.4861 18.0895 59.4839C18.0898 59.4828 18.0901 59.482 18.0903 59.4813C18.0904 59.481 18.0905 59.4808 18.0905 59.4806C18.0906 59.4805 18.0906 59.4804 18.0906 59.4803C18.0906 59.4803 18.0907 59.4802 17.6138 59.3299ZM14.6552 65.6122L14.2518 65.3168C13.3344 66.5696 11.7744 68.0059 10.4158 69.1461C9.74166 69.7119 9.12626 70.1972 8.67949 70.541C8.4562 70.7128 8.2753 70.8491 8.15054 70.9422C8.08816 70.9887 8.03984 71.0245 8.0073 71.0484C7.99103 71.0604 7.9787 71.0694 7.97054 71.0754C7.96645 71.0784 7.96341 71.0806 7.96144 71.082C7.96045 71.0828 7.95973 71.0833 7.95928 71.0836C7.95905 71.0838 7.9589 71.0839 7.95881 71.084C7.95876 71.084 7.95875 71.084 7.95872 71.084C7.95872 71.084 7.95874 71.084 8.25282 71.4884C8.5469 71.8928 8.54695 71.8927 8.54702 71.8927C8.54706 71.8926 8.54715 71.8926 8.54724 71.8925C8.54743 71.8924 8.54768 71.8922 8.548 71.892C8.54864 71.8915 8.54955 71.8908 8.55073 71.89C8.55308 71.8882 8.55651 71.8857 8.56099 71.8825C8.56993 71.8759 8.58306 71.8663 8.60015 71.8537C8.63432 71.8286 8.68436 71.7916 8.74852 71.7437C8.87683 71.648 9.06172 71.5087 9.28934 71.3335C9.74438 70.9834 10.3712 70.4891 11.0587 69.9121C12.4235 68.7667 14.0647 67.265 15.0586 65.9076L14.6552 65.6122ZM32.9003 65.6122L32.9818 65.1189C31.6735 64.9029 30.3919 64.62 29.1416 64.2747L29.0085 64.7566L28.8753 65.2386C30.1596 65.5933 31.4757 65.8837 32.8189 66.1055L32.9003 65.6122ZM39.2128 5.47461V5.97461C54.7471 5.97461 67.7812 15.2501 71.7221 27.8114L72.1992 27.6617L72.6763 27.512C68.588 14.4812 55.1263 4.97461 39.2128 4.97461V5.47461ZM31.4585 50.3187H30.9585C30.9585 63.3946 42.9037 73.8948 57.5077 73.8948V73.3948V72.8948C43.3386 72.8948 31.9585 62.7319 31.9585 50.3187H31.4585ZM83.5569 50.3187H84.0569C84.0569 37.2427 72.1118 26.7426 57.5077 26.7426V27.2426V27.7426C71.6768 27.7426 83.0569 37.9055 83.0569 50.3187H83.5569ZM57.5077 27.2426V26.7426C42.9037 26.7426 30.9585 37.2427 30.9585 50.3187H31.4585H31.9585C31.9585 37.9055 43.3386 27.7426 57.5077 27.7426V27.2426ZM73.9431 68.2229L74.2356 68.6284C80.2145 64.3161 84.0569 57.7244 84.0569 50.3187H83.5569H83.0569C83.0569 57.3612 79.4049 63.6671 73.6506 67.8173L73.9431 68.2229ZM81.0662 77.4746C81.0937 76.9754 81.0937 76.9754 81.0937 76.9754C81.0936 76.9754 81.0936 76.9754 81.0936 76.9754C81.0934 76.9753 81.0932 76.9753 81.0929 76.9753C81.0922 76.9753 81.0912 76.9752 81.0897 76.9751C81.0869 76.975 81.0825 76.9747 81.0765 76.9744C81.0647 76.9737 81.0467 76.9726 81.023 76.9712C80.9756 76.9682 80.9051 76.9637 80.8137 76.9573C80.631 76.9446 80.3649 76.9247 80.0335 76.8958C79.3704 76.8381 78.4472 76.7449 77.4079 76.6029C75.3168 76.3171 72.8019 75.8399 70.9818 75.078L70.7887 75.5392L70.5957 76.0005C72.5429 76.8155 75.1668 77.3059 77.2725 77.5937C78.3316 77.7384 79.2715 77.8333 79.9467 77.8921C80.2845 77.9215 80.5564 77.9419 80.7444 77.9549C80.8384 77.9615 80.9114 77.9662 80.9612 77.9692C80.9861 77.9708 81.0052 77.9719 81.0182 77.9727C81.0247 77.9731 81.0297 77.9733 81.0331 77.9735C81.0348 77.9736 81.0361 77.9737 81.0371 77.9738C81.0375 77.9738 81.0379 77.9738 81.0382 77.9738C81.0383 77.9738 81.0384 77.9738 81.0385 77.9738C81.0386 77.9738 81.0387 77.9739 81.0662 77.4746ZM57.5077 73.3948V73.8948C60.2571 73.8948 62.9099 73.5236 65.4057 72.8341L65.2725 72.3522L65.1394 71.8702C62.7302 72.5358 60.167 72.8948 57.5077 72.8948V73.3948ZM70.7887 75.5392L70.9818 75.078C69.8727 74.6138 68.5215 73.8346 67.4333 73.1605C66.8925 72.8253 66.4224 72.5198 66.0878 72.2982C65.9205 72.1874 65.7872 72.0977 65.696 72.0359C65.6504 72.005 65.6153 71.981 65.5918 71.9649C65.58 71.9568 65.5711 71.9507 65.5653 71.9467C65.5623 71.9447 65.5601 71.9432 65.5587 71.9422C65.558 71.9417 65.5575 71.9414 65.5572 71.9411C65.557 71.941 65.5569 71.9409 65.5568 71.9409C65.5568 71.9409 65.5568 71.9409 65.5568 71.9409C65.5568 71.9409 65.5568 71.9409 65.2725 72.3522C64.9882 72.7635 64.9883 72.7635 64.9883 72.7636C64.9883 72.7636 64.9884 72.7636 64.9885 72.7637C64.9886 72.7638 64.9888 72.7639 64.989 72.7641C64.9895 72.7644 64.9901 72.7648 64.991 72.7654C64.9927 72.7666 64.9952 72.7683 64.9984 72.7705C65.0049 72.775 65.0143 72.7815 65.0267 72.79C65.0515 72.8069 65.0879 72.8317 65.1348 72.8636C65.2287 72.9272 65.365 73.019 65.5356 73.132C65.8766 73.3578 66.3553 73.6689 66.9067 74.0105C68.0029 74.6897 69.4098 75.5041 70.5957 76.0005L70.7887 75.5392ZM73.9431 68.2229C73.4662 68.3731 73.4662 68.3732 73.4663 68.3733C73.4663 68.3733 73.4663 68.3734 73.4663 68.3735C73.4664 68.3736 73.4664 68.3738 73.4665 68.3741C73.4667 68.3746 73.4669 68.3753 73.4672 68.3761C73.4677 68.3779 73.4685 68.3803 73.4695 68.3835C73.4715 68.3898 73.4744 68.3989 73.4783 68.4107C73.4859 68.4343 73.4971 68.4686 73.5117 68.5126C73.5409 68.6006 73.5839 68.7275 73.6395 68.885C73.7505 69.1998 73.9123 69.6381 74.1159 70.1334C74.5195 71.1157 75.1006 72.3559 75.791 73.2987L76.1944 73.0033L76.5978 72.7078C75.9805 71.8649 75.436 70.7149 75.0408 69.7534C74.845 69.2769 74.6892 68.8548 74.5825 68.5523C74.5292 68.4012 74.4882 68.2801 74.4607 68.1974C74.447 68.1561 74.4366 68.1243 74.4298 68.1031C74.4264 68.0926 74.4238 68.0846 74.4222 68.0795C74.4214 68.0769 74.4208 68.0751 74.4204 68.0739C74.4202 68.0733 74.4201 68.0729 74.42 68.0727C74.42 68.0726 74.42 68.0725 74.42 68.0725C74.42 68.0725 74.42 68.0725 74.42 68.0725C74.42 68.0725 74.42 68.0726 73.9431 68.2229ZM76.1944 73.0033L75.791 73.2987C76.5565 74.344 77.815 75.4945 78.8542 76.3667C79.379 76.8071 79.8573 77.1843 80.2045 77.4515C80.3783 77.5852 80.5194 77.6915 80.6175 77.7647C80.6665 77.8013 80.7048 77.8296 80.731 77.8489C80.7441 77.8585 80.7542 77.8659 80.7611 77.871C80.7645 77.8735 80.7672 77.8754 80.769 77.8768C80.77 77.8774 80.7707 77.878 80.7712 77.8783C80.7714 77.8785 80.7716 77.8787 80.7718 77.8788C80.7719 77.8788 80.7719 77.8789 80.772 77.8789C80.772 77.8789 80.7721 77.879 81.0662 77.4746C81.3602 77.0702 81.3603 77.0703 81.3603 77.0703C81.3603 77.0702 81.3603 77.0702 81.3602 77.0702C81.3602 77.0702 81.3601 77.0701 81.3599 77.07C81.3596 77.0697 81.3591 77.0694 81.3583 77.0688C81.3569 77.0678 81.3546 77.0661 81.3515 77.0639C81.3454 77.0594 81.3361 77.0526 81.3239 77.0436C81.2993 77.0255 81.2627 76.9984 81.2155 76.9632C81.121 76.8927 80.9838 76.7893 80.8144 76.659C80.4754 76.3981 80.0085 76.0299 79.4971 75.6007C78.4641 74.7338 77.2867 73.6486 76.5978 72.7078L76.1944 73.0033Z" fill="black"/>
  <defs>
    <filter id="filter0_f_1069_3540" x="0.479492" y="0.974609" width="87.5771" height="81.0924" filterUnits="userSpaceOnUse" color-interpolation-filters="sRGB">
      <feFlood flood-opacity="0" result="BackgroundImageFix"/>
      <feBlend mode="normal" in="SourceGraphic" in2="BackgroundImageFix" result="shape"/>
      <feGaussianBlur stdDeviation="2" result="effect1_foregroundBlur_1069_3540"/>
    </filter>
  </defs>
</svg>