<svg xmlns="http://www.w3.org/2000/svg" width="82" height="82" viewBox="0 0 82 82" fill="none">
  <path d="M72.0974 23.4891C75.1602 28.784 76.9131 34.9314 76.9131 41.4883C76.9131 61.3705 60.7953 77.4883 40.9131 77.4883C21.0308 77.4883 4.91309 61.3705 4.91309 41.4883C4.91309 21.606 21.0308 5.48828 40.9131 5.48828C47.5711 5.48828 53.807 7.29573 59.1569 10.4467M61.9437 30.7024C63.6052 33.9359 64.543 37.6023 64.543 41.4878C64.543 54.5385 53.9633 65.1182 40.9126 65.1182C27.8619 65.1182 17.2822 54.5385 17.2822 41.4878C17.2822 28.4371 27.8619 17.8574 40.9126 17.8574C44.9975 17.8574 48.8403 18.8939 52.1923 20.7182M50.5545 37.7094C51.0136 38.88 51.2656 40.1545 51.2656 41.4878C51.2656 47.2056 46.6304 51.8408 40.9126 51.8408C35.1948 51.8408 30.5596 47.2056 30.5596 41.4878C30.5596 35.77 35.1948 31.1348 40.9126 31.1348C42.2648 31.1348 43.5565 31.394 44.7407 31.8655M40.5088 41.6463L56.9464 25.5723M56.9464 25.5723V18.8437C56.9464 18.5653 57.0624 18.2995 57.2666 18.1102L62.963 12.8311C63.6031 12.2379 64.6427 12.6919 64.6427 13.5646V17.4685C64.6427 17.9789 65.0271 18.4074 65.5345 18.4626L69.069 18.8474C69.9241 18.9404 70.2705 19.998 69.6362 20.579L63.5485 26.154C63.3274 26.3564 63.0272 26.449 62.7305 26.4063L56.9464 25.5723ZM56.9464 25.5723L60.7946 21.9689" stroke="black" stroke-linecap="round"/>
  <g filter="url(#filter0_f_1069_3476)">
    <path d="M72.0974 23.4891C75.1602 28.784 76.9131 34.9314 76.9131 41.4883C76.9131 61.3705 60.7953 77.4883 40.9131 77.4883C21.0308 77.4883 4.91309 61.3705 4.91309 41.4883C4.91309 21.606 21.0308 5.48828 40.9131 5.48828C47.5711 5.48828 53.807 7.29573 59.1569 10.4467M61.9437 30.7024C63.6052 33.9359 64.543 37.6023 64.543 41.4878C64.543 54.5385 53.9633 65.1182 40.9126 65.1182C27.8619 65.1182 17.2822 54.5385 17.2822 41.4878C17.2822 28.4371 27.8619 17.8574 40.9126 17.8574C44.9975 17.8574 48.8403 18.8939 52.1923 20.7182M50.5545 37.7094C51.0136 38.88 51.2656 40.1545 51.2656 41.4878C51.2656 47.2056 46.6304 51.8408 40.9126 51.8408C35.1948 51.8408 30.5596 47.2056 30.5596 41.4878C30.5596 35.77 35.1948 31.1348 40.9126 31.1348C42.2648 31.1348 43.5565 31.394 44.7407 31.8655M40.5088 41.6463L56.9464 25.5723M56.9464 25.5723V18.8437C56.9464 18.5653 57.0624 18.2995 57.2666 18.1102L62.963 12.8311C63.6031 12.2379 64.6427 12.6919 64.6427 13.5646V17.4685C64.6427 17.9789 65.0271 18.4074 65.5345 18.4626L69.069 18.8474C69.9241 18.9404 70.2705 19.998 69.6362 20.579L63.5485 26.154C63.3274 26.3564 63.0272 26.449 62.7305 26.4063L56.9464 25.5723ZM56.9464 25.5723L60.7946 21.9689" stroke="black" stroke-linecap="round"/>
  </g>
  <defs>
    <filter id="filter0_f_1069_3476" x="0.413086" y="0.988281" width="81" height="81" filterUnits="userSpaceOnUse" color-interpolation-filters="sRGB">
      <feFlood flood-opacity="0" result="BackgroundImageFix"/>
      <feBlend mode="normal" in="SourceGraphic" in2="BackgroundImageFix" result="shape"/>
      <feGaussianBlur stdDeviation="2" result="effect1_foregroundBlur_1069_3476"/>
    </filter>
  </defs>
</svg>