<svg xmlns="http://www.w3.org/2000/svg" width="80" height="82" viewBox="0 0 80 82" fill="none">
  <g filter="url(#filter0_f_1069_3533)">
    <path d="M29.1716 5.22936V8.22783C29.1716 8.58244 29.459 8.86991 29.8137 8.86991H32.5173C32.872 8.86991 33.1594 9.15738 33.1594 9.51199V29.1693C33.1594 29.2848 33.1283 29.3981 33.0693 29.4974L9.6947 68.8263C7.65968 72.2503 10.1272 76.5873 14.1103 76.5873H66.4653C70.4446 76.5873 72.9127 72.2578 70.8854 68.8337L47.5955 29.497C47.5369 29.398 47.506 29.285 47.506 29.1699V9.51199C47.506 9.15738 47.7934 8.86991 48.148 8.86991H50.7753C51.13 8.86991 51.4174 8.58244 51.4174 8.22783V5.22936C51.4174 4.87475 51.13 4.58728 50.7753 4.58728H29.8137C29.459 4.58728 29.1716 4.87475 29.1716 5.22936Z" stroke="black" stroke-linecap="round"/>
    <path d="M11.9869 69.971L22.1565 53.8678C22.2742 53.6815 22.4791 53.5685 22.6994 53.5685H25.4718C27.8288 53.5685 30.1659 54.0011 32.3667 54.8448L40.1946 57.8456C43.1704 58.9864 46.5396 58.25 48.7682 55.9718C50.2717 54.4349 52.3311 53.5685 54.4811 53.5685H58.4195C58.6229 53.5685 58.8113 53.6753 58.9158 53.8499L68.5984 70.0231C69.6233 71.735 68.39 73.9107 66.3948 73.9107H14.1584C12.1358 73.9107 10.9069 71.6812 11.9869 69.971Z" stroke="black" stroke-linecap="round"/>
  </g>
  <path d="M29.1716 5.22948V8.22795C29.1716 8.58256 29.459 8.87003 29.8137 8.87003H32.5173C32.872 8.87003 33.1594 9.1575 33.1594 9.51211V29.1694C33.1594 29.2849 33.1283 29.3982 33.0693 29.4975L9.6947 68.8264C7.65968 72.2504 10.1272 76.5874 14.1103 76.5874H66.4653C70.4446 76.5874 72.9127 72.2579 70.8854 68.8338L47.5955 29.4971C47.5369 29.3981 47.506 29.2851 47.506 29.17V9.51211C47.506 9.1575 47.7934 8.87003 48.148 8.87003H50.7753C51.13 8.87003 51.4174 8.58256 51.4174 8.22795V5.22948C51.4174 4.87487 51.13 4.5874 50.7753 4.5874H29.8137C29.459 4.5874 29.1716 4.87487 29.1716 5.22948Z" stroke="black" stroke-linecap="round"/>
  <path d="M11.9869 69.9711L22.1565 53.8679C22.2742 53.6816 22.4791 53.5687 22.6994 53.5687H25.4718C27.8288 53.5687 30.1659 54.0012 32.3667 54.8449L40.1946 57.8457C43.1704 58.9865 46.5396 58.2502 48.7682 55.9719C50.2717 54.435 52.3311 53.5687 54.4811 53.5687H58.4195C58.6229 53.5687 58.8113 53.6755 58.9158 53.85L68.5984 70.0233C69.6233 71.7352 68.39 73.9108 66.3948 73.9108H14.1584C12.1358 73.9108 10.9069 71.6813 11.9869 69.9711Z" stroke="black" stroke-linecap="round"/>
  <defs>
    <filter id="filter0_f_1069_3533" x="4.46484" y="0.0872803" width="71.6455" height="81" filterUnits="userSpaceOnUse" color-interpolation-filters="sRGB">
      <feFlood flood-opacity="0" result="BackgroundImageFix"/>
      <feBlend mode="normal" in="SourceGraphic" in2="BackgroundImageFix" result="shape"/>
      <feGaussianBlur stdDeviation="2" result="effect1_foregroundBlur_1069_3533"/>
    </filter>
  </defs>
</svg>