<svg xmlns="http://www.w3.org/2000/svg" width="81" height="81" viewBox="0 0 81 81" fill="none">
  <g filter="url(#filter0_f_1069_3491)">
    <path d="M49.926 46.4735L54.37 51.1634M46.5656 49.8259L51.0095 54.5158M51.3398 35.3664C48.2971 46.7218 36.6252 53.4606 25.2698 50.4179C13.9144 47.3752 7.17566 35.7033 10.2183 24.3479C13.261 12.9925 24.9329 6.25374 36.2883 9.29641C47.6437 12.3391 54.3825 24.011 51.3398 35.3664ZM55.2716 36.4109C51.6474 49.9365 37.7448 57.9632 24.2192 54.339C10.6936 50.7148 2.66694 36.8122 6.29111 23.2866C9.91529 9.76101 23.8179 1.73433 37.3435 5.3585C50.8691 8.98267 58.8958 22.8853 55.2716 36.4109ZM52.266 59.6378L67.7459 75.0125C69.7367 76.9897 72.9534 76.9788 74.9306 74.988C76.9079 72.9972 76.8969 69.7805 74.9061 67.8032L59.4262 52.4285C57.4355 50.4513 54.2187 50.4623 52.2415 52.453C50.2642 54.4438 50.2752 57.6605 52.266 59.6378Z" stroke="black" stroke-width="0.9"/>
  </g>
  <path d="M49.926 46.4735L54.37 51.1634M46.5656 49.8259L51.0095 54.5158M51.3398 35.3664C48.2971 46.7218 36.6252 53.4606 25.2698 50.4179C13.9144 47.3752 7.17566 35.7033 10.2183 24.3479C13.261 12.9925 24.9329 6.25374 36.2883 9.29641C47.6437 12.3391 54.3825 24.011 51.3398 35.3664ZM55.2716 36.4109C51.6474 49.9365 37.7448 57.9632 24.2192 54.339C10.6936 50.7148 2.66694 36.8122 6.29111 23.2866C9.91529 9.76101 23.8179 1.73433 37.3435 5.3585C50.8691 8.98267 58.8958 22.8853 55.2716 36.4109ZM52.266 59.6378L67.7459 75.0125C69.7367 76.9897 72.9534 76.9788 74.9306 74.988C76.9079 72.9972 76.8969 69.7805 74.9061 67.8032L59.4262 52.4285C57.4355 50.4513 54.2187 50.4623 52.2415 52.453C50.2642 54.4438 50.2752 57.6605 52.266 59.6378Z" stroke="black" stroke-width="0.9"/>
  <defs>
    <filter id="filter0_f_1069_3491" x="1.42564" y="0.493018" width="78.9759" height="79.9903" filterUnits="userSpaceOnUse" color-interpolation-filters="sRGB">
      <feFlood flood-opacity="0" result="BackgroundImageFix"/>
      <feBlend mode="normal" in="SourceGraphic" in2="BackgroundImageFix" result="shape"/>
      <feGaussianBlur stdDeviation="1.77253" result="effect1_foregroundBlur_1069_3491"/>
    </filter>
  </defs>
</svg>