<svg xmlns="http://www.w3.org/2000/svg" width="82" height="83" viewBox="0 0 82 83" fill="none">
  <g filter="url(#filter0_f_1069_3484)">
    <path d="M40.9113 5.48901V17.297C39.716 16.2278 38.2367 15.5274 36.6521 15.2804C35.0675 15.0334 33.4452 15.2504 31.9812 15.9051C30.5172 16.5598 29.2739 17.6243 28.4015 18.97C27.5292 20.3158 27.065 21.8853 27.065 23.489C27.065 25.0928 27.5292 26.6623 28.4015 28.008C29.2739 29.3537 30.5172 30.4182 31.9812 31.0729C33.4452 31.7276 35.0675 31.9446 36.6521 31.6976C38.2367 31.4506 39.716 30.7502 40.9113 29.681V53.297C42.1067 52.2278 43.5859 51.5274 45.1706 51.2804C46.7552 51.0334 48.3774 51.2504 49.8415 51.9051C51.3055 52.5598 52.5488 53.6243 53.4211 54.97C54.2935 56.3158 54.7577 57.8853 54.7577 59.489C54.7577 61.0928 54.2935 62.6623 53.4211 64.008C52.5488 65.3537 51.3055 66.4182 49.8415 67.0729C48.3774 67.7276 46.7552 67.9446 45.1706 67.6976C43.5859 67.4506 42.1067 66.7502 40.9113 65.681V77.489M4.91113 41.4892H16.7191C15.6499 42.6846 14.9495 44.1638 14.7026 45.7485C14.4556 47.3331 14.6725 48.9553 15.3272 50.4194C15.9819 51.8834 17.0464 53.1266 18.3921 53.999C19.7379 54.8714 21.3074 55.3356 22.9111 55.3356C24.5149 55.3356 26.0844 54.8714 27.4301 53.999C28.7759 53.1266 29.8403 51.8834 30.495 50.4194C31.1497 48.9553 31.3667 47.3331 31.1197 45.7485C30.8727 44.1638 30.1723 42.6846 29.1031 41.4892H52.7191C51.6499 40.2939 50.9495 38.8146 50.7026 37.23C50.4556 35.6454 50.6725 34.0231 51.3272 32.5591C51.9819 31.095 53.0464 29.8518 54.3921 28.9794C55.7379 28.1071 57.3074 27.6429 58.9111 27.6429C60.5149 27.6429 62.0844 28.1071 63.4301 28.9794C64.7759 29.8518 65.8403 31.095 66.495 32.5591C67.1498 34.0231 67.3667 35.6454 67.1197 37.23C66.8727 38.8146 66.1723 40.2939 65.1031 41.4892H76.9111M71.3727 5.48901H10.4496C8.9807 5.48901 7.57197 6.07253 6.53331 7.11119C5.49465 8.14985 4.91113 9.55858 4.91113 11.0275V71.9505C4.91113 73.4194 5.49465 74.8282 6.53331 75.8668C7.57197 76.9055 8.9807 77.489 10.4496 77.489H71.3727C72.8416 77.489 74.2503 76.9055 75.289 75.8668C76.3276 74.8282 76.9111 73.4194 76.9111 71.9505V11.0275C76.9111 9.55858 76.3276 8.14985 75.289 7.11119C74.2503 6.07253 72.8416 5.48901 71.3727 5.48901Z" stroke="black" stroke-width="1.07692" stroke-linecap="round" stroke-linejoin="round"/>
  </g>
  <path d="M40.9113 5.48901V17.297C39.716 16.2278 38.2367 15.5274 36.6521 15.2804C35.0675 15.0334 33.4452 15.2504 31.9812 15.9051C30.5172 16.5598 29.2739 17.6243 28.4015 18.97C27.5292 20.3158 27.065 21.8853 27.065 23.489C27.065 25.0928 27.5292 26.6623 28.4015 28.008C29.2739 29.3537 30.5172 30.4182 31.9812 31.0729C33.4452 31.7276 35.0675 31.9446 36.6521 31.6976C38.2367 31.4506 39.716 30.7502 40.9113 29.681V53.297C42.1067 52.2278 43.5859 51.5274 45.1706 51.2804C46.7552 51.0334 48.3774 51.2504 49.8415 51.9051C51.3055 52.5598 52.5488 53.6243 53.4211 54.97C54.2935 56.3158 54.7577 57.8853 54.7577 59.489C54.7577 61.0928 54.2935 62.6623 53.4211 64.008C52.5488 65.3537 51.3055 66.4182 49.8415 67.0729C48.3774 67.7276 46.7552 67.9446 45.1706 67.6976C43.5859 67.4506 42.1067 66.7502 40.9113 65.681V77.489M4.91113 41.4892H16.7191C15.6499 42.6846 14.9495 44.1638 14.7026 45.7485C14.4556 47.3331 14.6725 48.9553 15.3272 50.4194C15.9819 51.8834 17.0464 53.1266 18.3921 53.999C19.7379 54.8714 21.3074 55.3356 22.9111 55.3356C24.5149 55.3356 26.0844 54.8714 27.4301 53.999C28.7759 53.1266 29.8403 51.8834 30.495 50.4194C31.1497 48.9553 31.3667 47.3331 31.1197 45.7485C30.8727 44.1638 30.1723 42.6846 29.1031 41.4892H52.7191C51.6499 40.2939 50.9495 38.8146 50.7026 37.23C50.4556 35.6454 50.6725 34.0231 51.3272 32.5591C51.9819 31.095 53.0464 29.8518 54.3921 28.9794C55.7379 28.1071 57.3074 27.6429 58.9111 27.6429C60.5149 27.6429 62.0844 28.1071 63.4301 28.9794C64.7759 29.8518 65.8403 31.095 66.495 32.5591C67.1498 34.0231 67.3667 35.6454 67.1197 37.23C66.8727 38.8146 66.1723 40.2939 65.1031 41.4892H76.9111M71.3727 5.48901H10.4496C8.9807 5.48901 7.57197 6.07253 6.53331 7.11119C5.49465 8.14985 4.91113 9.55858 4.91113 11.0275V71.9505C4.91113 73.4194 5.49465 74.8282 6.53331 75.8668C7.57197 76.9055 8.9807 77.489 10.4496 77.489H71.3727C72.8416 77.489 74.2503 76.9055 75.289 75.8668C76.3276 74.8282 76.9111 73.4194 76.9111 71.9505V11.0275C76.9111 9.55858 76.3276 8.14985 75.289 7.11119C74.2503 6.07253 72.8416 5.48901 71.3727 5.48901Z" stroke="black" stroke-width="1.07692" stroke-linecap="round" stroke-linejoin="round"/>
  <defs>
    <filter id="filter0_f_1069_3484" x="0.0653548" y="0.642747" width="81.6916" height="81.6925" filterUnits="userSpaceOnUse" color-interpolation-filters="sRGB">
      <feFlood flood-opacity="0" result="BackgroundImageFix"/>
      <feBlend mode="normal" in="SourceGraphic" in2="BackgroundImageFix" result="shape"/>
      <feGaussianBlur stdDeviation="2.15385" result="effect1_foregroundBlur_1069_3484"/>
    </filter>
  </defs>
</svg>