<svg xmlns="http://www.w3.org/2000/svg" width="90" height="82" viewBox="0 0 90 82" fill="none">
  <g filter="url(#filter0_f_1069_3518)">
    <path d="M36.2089 9.85388C40.0229 3.24791 49.5578 3.24793 53.3717 9.8539L83.4991 62.036C87.313 68.642 82.5456 76.8994 74.9177 76.8994H14.663C7.03506 76.8994 2.26764 68.642 6.08159 62.036L36.2089 9.85388Z" stroke="black"/>
    <path d="M47.7598 22.0837L47.3231 54.2245H42.2574L41.8207 22.0837H47.7598ZM44.7902 67.1507C43.7131 67.1507 42.7887 66.7649 42.0172 65.9934C41.2457 65.2219 40.86 64.2976 40.86 63.2204C40.86 62.1432 41.2457 61.2189 42.0172 60.4474C42.7887 59.6759 43.7131 59.2902 44.7902 59.2902C45.8674 59.2902 46.7918 59.6759 47.5633 60.4474C48.3347 61.2189 48.7205 62.1432 48.7205 63.2204C48.7205 63.9337 48.5385 64.5887 48.1746 65.1855C47.8253 65.7824 47.3522 66.2627 46.7554 66.6266C46.1731 66.976 45.5181 67.1507 44.7902 67.1507Z" stroke="black"/>
  </g>
  <path d="M36.2089 9.85388C40.0229 3.24791 49.5578 3.24793 53.3717 9.8539L83.4991 62.036C87.313 68.642 82.5456 76.8994 74.9177 76.8994H14.663C7.03506 76.8994 2.26764 68.642 6.08159 62.036L36.2089 9.85388Z" stroke="black"/>
  <path d="M47.7598 22.0837L47.3231 54.2245H42.2574L41.8207 22.0837H47.7598ZM44.7902 67.1507C43.7131 67.1507 42.7887 66.7649 42.0172 65.9934C41.2457 65.2219 40.86 64.2976 40.86 63.2204C40.86 62.1432 41.2457 61.2189 42.0172 60.4474C42.7887 59.6759 43.7131 59.2902 44.7902 59.2902C45.8674 59.2902 46.7918 59.6759 47.5633 60.4474C48.3347 61.2189 48.7205 62.1432 48.7205 63.2204C48.7205 63.9337 48.5385 64.5887 48.1746 65.1855C47.8253 65.7824 47.3522 66.2627 46.7554 66.6266C46.1731 66.976 45.5181 67.1507 44.7902 67.1507Z" stroke="black"/>
  <defs>
    <filter id="filter0_f_1069_3518" x="0.238281" y="0.399414" width="89.1035" height="81" filterUnits="userSpaceOnUse" color-interpolation-filters="sRGB">
      <feFlood flood-opacity="0" result="BackgroundImageFix"/>
      <feBlend mode="normal" in="SourceGraphic" in2="BackgroundImageFix" result="shape"/>
      <feGaussianBlur stdDeviation="2" result="effect1_foregroundBlur_1069_3518"/>
    </filter>
  </defs>
</svg>