<svg xmlns="http://www.w3.org/2000/svg" width="82" height="82" viewBox="0 0 82 82" fill="none">
  <g filter="url(#filter0_f_1069_3499)">
    <path d="M51.0843 51.2425L42.6138 42.7719C42.4172 42.5749 42.2615 42.341 42.1554 42.0838C42.0493 41.8265 41.9949 41.5509 41.9954 41.2726V24.3314M5.3291 41.2441C5.3291 31.6963 9.12195 22.5396 15.8733 15.7883C22.6246 9.03699 31.7813 5.24414 41.3291 5.24414C50.8769 5.24414 60.0336 9.03699 66.785 15.7883C73.5363 22.5396 77.3291 31.6963 77.3291 41.2441C77.3291 50.7919 73.5363 59.9487 66.785 66.7C60.0336 73.4513 50.8769 77.2441 41.3291 77.2441C31.7813 77.2441 22.6246 73.4513 15.8733 66.7C9.12195 59.9487 5.3291 50.7919 5.3291 41.2441Z" stroke="black" stroke-linecap="round"/>
  </g>
  <path d="M51.0843 51.2425L42.6138 42.7719C42.4172 42.5749 42.2615 42.341 42.1554 42.0838C42.0493 41.8265 41.9949 41.5509 41.9954 41.2726V24.3314M5.3291 41.2441C5.3291 31.6963 9.12195 22.5396 15.8733 15.7883C22.6246 9.03699 31.7813 5.24414 41.3291 5.24414C50.8769 5.24414 60.0336 9.03699 66.785 15.7883C73.5363 22.5396 77.3291 31.6963 77.3291 41.2441C77.3291 50.7919 73.5363 59.9487 66.785 66.7C60.0336 73.4513 50.8769 77.2441 41.3291 77.2441C31.7813 77.2441 22.6246 73.4513 15.8733 66.7C9.12195 59.9487 5.3291 50.7919 5.3291 41.2441Z" stroke="black" stroke-linecap="round"/>
  <defs>
    <filter id="filter0_f_1069_3499" x="0.829102" y="0.744141" width="81" height="81" filterUnits="userSpaceOnUse" color-interpolation-filters="sRGB">
      <feFlood flood-opacity="0" result="BackgroundImageFix"/>
      <feBlend mode="normal" in="SourceGraphic" in2="BackgroundImageFix" result="shape"/>
      <feGaussianBlur stdDeviation="2" result="effect1_foregroundBlur_1069_3499"/>
    </filter>
  </defs>
</svg>